G04 #@! TF.GenerationSoftware,KiCad,Pcbnew,5.1.5*
G04 #@! TF.CreationDate,2019-12-29T16:55:21+09:00*
G04 #@! TF.ProjectId,Sync-chan,53796e63-2d63-4686-916e-2e6b69636164,rev?*
G04 #@! TF.SameCoordinates,Original*
G04 #@! TF.FileFunction,Legend,Top*
G04 #@! TF.FilePolarity,Positive*
%FSLAX46Y46*%
G04 Gerber Fmt 4.6, Leading zero omitted, Abs format (unit mm)*
G04 Created by KiCad (PCBNEW 5.1.5) date 2019-12-29 16:55:21*
%MOMM*%
%LPD*%
G04 APERTURE LIST*
%ADD10C,0.375000*%
%ADD11C,0.500000*%
%ADD12C,0.300000*%
%ADD13C,0.120000*%
%ADD14C,1.000000*%
%ADD15C,2.000000*%
%ADD16C,0.150000*%
%ADD17C,0.200000*%
%ADD18C,0.100000*%
G04 APERTURE END LIST*
D10*
X116535714Y-69178571D02*
X116535714Y-67678571D01*
X117107142Y-67678571D01*
X117250000Y-67750000D01*
X117321428Y-67821428D01*
X117392857Y-67964285D01*
X117392857Y-68178571D01*
X117321428Y-68321428D01*
X117250000Y-68392857D01*
X117107142Y-68464285D01*
X116535714Y-68464285D01*
X118250000Y-69178571D02*
X118107142Y-69107142D01*
X118035714Y-69035714D01*
X117964285Y-68892857D01*
X117964285Y-68464285D01*
X118035714Y-68321428D01*
X118107142Y-68250000D01*
X118250000Y-68178571D01*
X118464285Y-68178571D01*
X118607142Y-68250000D01*
X118678571Y-68321428D01*
X118750000Y-68464285D01*
X118750000Y-68892857D01*
X118678571Y-69035714D01*
X118607142Y-69107142D01*
X118464285Y-69178571D01*
X118250000Y-69178571D01*
X119250000Y-68178571D02*
X119535714Y-69178571D01*
X119821428Y-68464285D01*
X120107142Y-69178571D01*
X120392857Y-68178571D01*
X121535714Y-69107142D02*
X121392857Y-69178571D01*
X121107142Y-69178571D01*
X120964285Y-69107142D01*
X120892857Y-68964285D01*
X120892857Y-68392857D01*
X120964285Y-68250000D01*
X121107142Y-68178571D01*
X121392857Y-68178571D01*
X121535714Y-68250000D01*
X121607142Y-68392857D01*
X121607142Y-68535714D01*
X120892857Y-68678571D01*
X122250000Y-69178571D02*
X122250000Y-68178571D01*
X122250000Y-68464285D02*
X122321428Y-68321428D01*
X122392857Y-68250000D01*
X122535714Y-68178571D01*
X122678571Y-68178571D01*
X113571428Y-87107142D02*
X113785714Y-87178571D01*
X114142857Y-87178571D01*
X114285714Y-87107142D01*
X114357142Y-87035714D01*
X114428571Y-86892857D01*
X114428571Y-86750000D01*
X114357142Y-86607142D01*
X114285714Y-86535714D01*
X114142857Y-86464285D01*
X113857142Y-86392857D01*
X113714285Y-86321428D01*
X113642857Y-86250000D01*
X113571428Y-86107142D01*
X113571428Y-85964285D01*
X113642857Y-85821428D01*
X113714285Y-85750000D01*
X113857142Y-85678571D01*
X114214285Y-85678571D01*
X114428571Y-85750000D01*
X114928571Y-86178571D02*
X115285714Y-87178571D01*
X115642857Y-86178571D02*
X115285714Y-87178571D01*
X115142857Y-87535714D01*
X115071428Y-87607142D01*
X114928571Y-87678571D01*
X116214285Y-86178571D02*
X116214285Y-87178571D01*
X116214285Y-86321428D02*
X116285714Y-86250000D01*
X116428571Y-86178571D01*
X116642857Y-86178571D01*
X116785714Y-86250000D01*
X116857142Y-86392857D01*
X116857142Y-87178571D01*
X118214285Y-87107142D02*
X118071428Y-87178571D01*
X117785714Y-87178571D01*
X117642857Y-87107142D01*
X117571428Y-87035714D01*
X117500000Y-86892857D01*
X117500000Y-86464285D01*
X117571428Y-86321428D01*
X117642857Y-86250000D01*
X117785714Y-86178571D01*
X118071428Y-86178571D01*
X118214285Y-86250000D01*
X120000000Y-87178571D02*
X120000000Y-85678571D01*
X120714285Y-86178571D02*
X120714285Y-87178571D01*
X120714285Y-86321428D02*
X120785714Y-86250000D01*
X120928571Y-86178571D01*
X121142857Y-86178571D01*
X121285714Y-86250000D01*
X121357142Y-86392857D01*
X121357142Y-87178571D01*
D11*
X182880952Y-57309523D02*
X183166666Y-57404761D01*
X183642857Y-57404761D01*
X183833333Y-57309523D01*
X183928571Y-57214285D01*
X184023809Y-57023809D01*
X184023809Y-56833333D01*
X183928571Y-56642857D01*
X183833333Y-56547619D01*
X183642857Y-56452380D01*
X183261904Y-56357142D01*
X183071428Y-56261904D01*
X182976190Y-56166666D01*
X182880952Y-55976190D01*
X182880952Y-55785714D01*
X182976190Y-55595238D01*
X183071428Y-55500000D01*
X183261904Y-55404761D01*
X183738095Y-55404761D01*
X184023809Y-55500000D01*
X184690476Y-56071428D02*
X185166666Y-57404761D01*
X185642857Y-56071428D02*
X185166666Y-57404761D01*
X184976190Y-57880952D01*
X184880952Y-57976190D01*
X184690476Y-58071428D01*
X186404761Y-56071428D02*
X186404761Y-57404761D01*
X186404761Y-56261904D02*
X186500000Y-56166666D01*
X186690476Y-56071428D01*
X186976190Y-56071428D01*
X187166666Y-56166666D01*
X187261904Y-56357142D01*
X187261904Y-57404761D01*
X189071428Y-57309523D02*
X188880952Y-57404761D01*
X188500000Y-57404761D01*
X188309523Y-57309523D01*
X188214285Y-57214285D01*
X188119047Y-57023809D01*
X188119047Y-56452380D01*
X188214285Y-56261904D01*
X188309523Y-56166666D01*
X188500000Y-56071428D01*
X188880952Y-56071428D01*
X189071428Y-56166666D01*
X190309523Y-55404761D02*
X190690476Y-55404761D01*
X190880952Y-55500000D01*
X191071428Y-55690476D01*
X191166666Y-56071428D01*
X191166666Y-56738095D01*
X191071428Y-57119047D01*
X190880952Y-57309523D01*
X190690476Y-57404761D01*
X190309523Y-57404761D01*
X190119047Y-57309523D01*
X189928571Y-57119047D01*
X189833333Y-56738095D01*
X189833333Y-56071428D01*
X189928571Y-55690476D01*
X190119047Y-55500000D01*
X190309523Y-55404761D01*
X192880952Y-56071428D02*
X192880952Y-57404761D01*
X192023809Y-56071428D02*
X192023809Y-57119047D01*
X192119047Y-57309523D01*
X192309523Y-57404761D01*
X192595238Y-57404761D01*
X192785714Y-57309523D01*
X192880952Y-57214285D01*
X193547619Y-56071428D02*
X194309523Y-56071428D01*
X193833333Y-55404761D02*
X193833333Y-57119047D01*
X193928571Y-57309523D01*
X194119047Y-57404761D01*
X194309523Y-57404761D01*
X171428571Y-74309523D02*
X171714285Y-74404761D01*
X172190476Y-74404761D01*
X172380952Y-74309523D01*
X172476190Y-74214285D01*
X172571428Y-74023809D01*
X172571428Y-73833333D01*
X172476190Y-73642857D01*
X172380952Y-73547619D01*
X172190476Y-73452380D01*
X171809523Y-73357142D01*
X171619047Y-73261904D01*
X171523809Y-73166666D01*
X171428571Y-72976190D01*
X171428571Y-72785714D01*
X171523809Y-72595238D01*
X171619047Y-72500000D01*
X171809523Y-72404761D01*
X172285714Y-72404761D01*
X172571428Y-72500000D01*
X173238095Y-73071428D02*
X173714285Y-74404761D01*
X174190476Y-73071428D02*
X173714285Y-74404761D01*
X173523809Y-74880952D01*
X173428571Y-74976190D01*
X173238095Y-75071428D01*
X174952380Y-73071428D02*
X174952380Y-74404761D01*
X174952380Y-73261904D02*
X175047619Y-73166666D01*
X175238095Y-73071428D01*
X175523809Y-73071428D01*
X175714285Y-73166666D01*
X175809523Y-73357142D01*
X175809523Y-74404761D01*
X177619047Y-74309523D02*
X177428571Y-74404761D01*
X177047619Y-74404761D01*
X176857142Y-74309523D01*
X176761904Y-74214285D01*
X176666666Y-74023809D01*
X176666666Y-73452380D01*
X176761904Y-73261904D01*
X176857142Y-73166666D01*
X177047619Y-73071428D01*
X177428571Y-73071428D01*
X177619047Y-73166666D01*
X178476190Y-74214285D02*
X178571428Y-74309523D01*
X178476190Y-74404761D01*
X178380952Y-74309523D01*
X178476190Y-74214285D01*
X178476190Y-74404761D01*
X178476190Y-73642857D02*
X178380952Y-72500000D01*
X178476190Y-72404761D01*
X178571428Y-72500000D01*
X178476190Y-73642857D01*
X178476190Y-72404761D01*
D12*
X153285714Y-73392857D02*
X153785714Y-73392857D01*
X154000000Y-74178571D02*
X153285714Y-74178571D01*
X153285714Y-72678571D01*
X154000000Y-72678571D01*
X154500000Y-74178571D02*
X155285714Y-73178571D01*
X154500000Y-73178571D02*
X155285714Y-74178571D01*
X155642857Y-73178571D02*
X156214285Y-73178571D01*
X155857142Y-72678571D02*
X155857142Y-73964285D01*
X155928571Y-74107142D01*
X156071428Y-74178571D01*
X156214285Y-74178571D01*
X156714285Y-74035714D02*
X156785714Y-74107142D01*
X156714285Y-74178571D01*
X156642857Y-74107142D01*
X156714285Y-74035714D01*
X156714285Y-74178571D01*
X162535714Y-74178571D02*
X162535714Y-72678571D01*
X163250000Y-73178571D02*
X163250000Y-74178571D01*
X163250000Y-73321428D02*
X163321428Y-73250000D01*
X163464285Y-73178571D01*
X163678571Y-73178571D01*
X163821428Y-73250000D01*
X163892857Y-73392857D01*
X163892857Y-74178571D01*
X164392857Y-73178571D02*
X164964285Y-73178571D01*
X164607142Y-72678571D02*
X164607142Y-73964285D01*
X164678571Y-74107142D01*
X164821428Y-74178571D01*
X164964285Y-74178571D01*
X165464285Y-74035714D02*
X165535714Y-74107142D01*
X165464285Y-74178571D01*
X165392857Y-74107142D01*
X165464285Y-74035714D01*
X165464285Y-74178571D01*
D11*
X200238095Y-95142857D02*
X201761904Y-95142857D01*
X200904761Y-114904761D02*
X201095238Y-114904761D01*
X201285714Y-115000000D01*
X201380952Y-115095238D01*
X201476190Y-115285714D01*
X201571428Y-115666666D01*
X201571428Y-116142857D01*
X201476190Y-116523809D01*
X201380952Y-116714285D01*
X201285714Y-116809523D01*
X201095238Y-116904761D01*
X200904761Y-116904761D01*
X200714285Y-116809523D01*
X200619047Y-116714285D01*
X200523809Y-116523809D01*
X200428571Y-116142857D01*
X200428571Y-115666666D01*
X200523809Y-115285714D01*
X200619047Y-115095238D01*
X200714285Y-115000000D01*
X200904761Y-114904761D01*
X200238095Y-135142857D02*
X201761904Y-135142857D01*
X201000000Y-135904761D02*
X201000000Y-134380952D01*
X176428571Y-140904761D02*
X177571428Y-140904761D01*
X177000000Y-142904761D02*
X177000000Y-140904761D01*
X179000000Y-142809523D02*
X178809523Y-142904761D01*
X178428571Y-142904761D01*
X178238095Y-142809523D01*
X178142857Y-142619047D01*
X178142857Y-141857142D01*
X178238095Y-141666666D01*
X178428571Y-141571428D01*
X178809523Y-141571428D01*
X179000000Y-141666666D01*
X179095238Y-141857142D01*
X179095238Y-142047619D01*
X178142857Y-142238095D01*
X179952380Y-142904761D02*
X179952380Y-141571428D01*
X179952380Y-141761904D02*
X180047619Y-141666666D01*
X180238095Y-141571428D01*
X180523809Y-141571428D01*
X180714285Y-141666666D01*
X180809523Y-141857142D01*
X180809523Y-142904761D01*
X180809523Y-141857142D02*
X180904761Y-141666666D01*
X181095238Y-141571428D01*
X181380952Y-141571428D01*
X181571428Y-141666666D01*
X181666666Y-141857142D01*
X181666666Y-142904761D01*
X182619047Y-141571428D02*
X182619047Y-143571428D01*
X182619047Y-141666666D02*
X182809523Y-141571428D01*
X183190476Y-141571428D01*
X183380952Y-141666666D01*
X183476190Y-141761904D01*
X183571428Y-141952380D01*
X183571428Y-142523809D01*
X183476190Y-142714285D01*
X183380952Y-142809523D01*
X183190476Y-142904761D01*
X182809523Y-142904761D01*
X182619047Y-142809523D01*
X184714285Y-142904761D02*
X184523809Y-142809523D01*
X184428571Y-142714285D01*
X184333333Y-142523809D01*
X184333333Y-141952380D01*
X184428571Y-141761904D01*
X184523809Y-141666666D01*
X184714285Y-141571428D01*
X185000000Y-141571428D01*
X185190476Y-141666666D01*
X185285714Y-141761904D01*
X185380952Y-141952380D01*
X185380952Y-142523809D01*
X185285714Y-142714285D01*
X185190476Y-142809523D01*
X185000000Y-142904761D01*
X184714285Y-142904761D01*
X148119047Y-141904761D02*
X149261904Y-141904761D01*
X148690476Y-143904761D02*
X148690476Y-141904761D01*
X150785714Y-143904761D02*
X150785714Y-142857142D01*
X150690476Y-142666666D01*
X150500000Y-142571428D01*
X150119047Y-142571428D01*
X149928571Y-142666666D01*
X150785714Y-143809523D02*
X150595238Y-143904761D01*
X150119047Y-143904761D01*
X149928571Y-143809523D01*
X149833333Y-143619047D01*
X149833333Y-143428571D01*
X149928571Y-143238095D01*
X150119047Y-143142857D01*
X150595238Y-143142857D01*
X150785714Y-143047619D01*
X151738095Y-142571428D02*
X151738095Y-144571428D01*
X151738095Y-142666666D02*
X151928571Y-142571428D01*
X152309523Y-142571428D01*
X152500000Y-142666666D01*
X152595238Y-142761904D01*
X152690476Y-142952380D01*
X152690476Y-143523809D01*
X152595238Y-143714285D01*
X152500000Y-143809523D01*
X152309523Y-143904761D01*
X151928571Y-143904761D01*
X151738095Y-143809523D01*
X132000000Y-142571428D02*
X133523809Y-143142857D01*
X132000000Y-143714285D01*
X134476190Y-142571428D02*
X136000000Y-143142857D01*
X134476190Y-143714285D01*
X119523809Y-142571428D02*
X118000000Y-143142857D01*
X119523809Y-143714285D01*
X122000000Y-142571428D02*
X120476190Y-143142857D01*
X122000000Y-143714285D01*
D13*
X154940000Y-107640000D02*
X154940000Y-89600000D01*
X111500000Y-107640000D02*
X154940000Y-107640000D01*
X111500000Y-89600000D02*
X111500000Y-107640000D01*
X114170000Y-92270000D02*
X114170000Y-89600000D01*
X149730000Y-92270000D02*
X114170000Y-92270000D01*
X149730000Y-92270000D02*
X149730000Y-89600000D01*
X114170000Y-104970000D02*
X114170000Y-107640000D01*
X152270000Y-104970000D02*
X114170000Y-104970000D01*
X152270000Y-104970000D02*
X152270000Y-107640000D01*
X154940000Y-89600000D02*
X152270000Y-89600000D01*
X149730000Y-89600000D02*
X111500000Y-89600000D01*
X152270000Y-92270000D02*
X152270000Y-89600000D01*
X149730000Y-92270000D02*
X152270000Y-92270000D01*
X156770000Y-92600000D02*
X156770000Y-91600000D01*
X158130000Y-91600000D02*
X158130000Y-92600000D01*
X148700000Y-131450000D02*
X148700000Y-132550000D01*
X148700000Y-132550000D02*
X151300000Y-132550000D01*
X148700000Y-131450000D02*
X151300000Y-131450000D01*
X162100000Y-69450000D02*
X164700000Y-69450000D01*
X162100000Y-70550000D02*
X164700000Y-70550000D01*
X162100000Y-69450000D02*
X162100000Y-70550000D01*
X153200000Y-69450000D02*
X153200000Y-70550000D01*
X153200000Y-70550000D02*
X155800000Y-70550000D01*
X153200000Y-69450000D02*
X155800000Y-69450000D01*
D14*
X147300000Y-134750000D02*
X147300000Y-137750000D01*
X153700000Y-134750000D02*
X147300000Y-134750000D01*
X153700000Y-140800000D02*
X153700000Y-134750000D01*
X147300000Y-140800000D02*
X153700000Y-140800000D01*
X147300000Y-137750000D02*
X147300000Y-140800000D01*
D15*
X151500000Y-137750000D02*
G75*
G03X151500000Y-137750000I-1000000J0D01*
G01*
X121000000Y-137750000D02*
G75*
G03X121000000Y-137750000I-1000000J0D01*
G01*
D14*
X116800000Y-137750000D02*
X116800000Y-140800000D01*
X116800000Y-140800000D02*
X123200000Y-140800000D01*
X123200000Y-140800000D02*
X123200000Y-134750000D01*
X123200000Y-134750000D02*
X116800000Y-134750000D01*
X116800000Y-134750000D02*
X116800000Y-137750000D01*
D15*
X135000000Y-137750000D02*
G75*
G03X135000000Y-137750000I-1000000J0D01*
G01*
D14*
X130800000Y-137750000D02*
X130800000Y-140800000D01*
X130800000Y-140800000D02*
X137200000Y-140800000D01*
X137200000Y-140800000D02*
X137200000Y-134750000D01*
X137200000Y-134750000D02*
X130800000Y-134750000D01*
X130800000Y-134750000D02*
X130800000Y-137750000D01*
D13*
X133480000Y-67500000D02*
X133480000Y-69500000D01*
X135520000Y-69500000D02*
X135520000Y-67500000D01*
X145100000Y-77150000D02*
X145100000Y-77850000D01*
X143900000Y-77850000D02*
X143900000Y-77150000D01*
X176100000Y-97000000D02*
X176800000Y-97000000D01*
X176800000Y-98200000D02*
X176100000Y-98200000D01*
X176100000Y-91030000D02*
X174100000Y-91030000D01*
X174100000Y-93070000D02*
X176100000Y-93070000D01*
X183400000Y-66350000D02*
X183400000Y-65650000D01*
X184600000Y-65650000D02*
X184600000Y-66350000D01*
D16*
X114000000Y-68500000D02*
X114000000Y-64850000D01*
X114000000Y-68500000D02*
X114000000Y-72150000D01*
X114000000Y-72150000D02*
X105850000Y-72150000D01*
X105850000Y-72150000D02*
X105850000Y-64840000D01*
X105850000Y-64840000D02*
X114000000Y-64840000D01*
X111100000Y-83600000D02*
X111100000Y-75900000D01*
X123400000Y-83600000D02*
X111100000Y-83600000D01*
X123400000Y-75900000D02*
X123400000Y-83600000D01*
X111100000Y-75900000D02*
X123400000Y-75900000D01*
X127510000Y-52950000D02*
X139810000Y-52950000D01*
X139810000Y-52950000D02*
X139810000Y-60650000D01*
X139810000Y-60650000D02*
X127510000Y-60650000D01*
X127510000Y-60650000D02*
X127510000Y-52950000D01*
X141100000Y-52900000D02*
X153400000Y-52900000D01*
X153400000Y-52900000D02*
X153400000Y-60600000D01*
X153400000Y-60600000D02*
X141100000Y-60600000D01*
X141100000Y-60600000D02*
X141100000Y-52900000D01*
X154600000Y-60600000D02*
X154600000Y-52900000D01*
X166900000Y-60600000D02*
X154600000Y-60600000D01*
X166900000Y-52900000D02*
X166900000Y-60600000D01*
X154600000Y-52900000D02*
X166900000Y-52900000D01*
X168100000Y-52900000D02*
X180400000Y-52900000D01*
X180400000Y-52900000D02*
X180400000Y-60600000D01*
X180400000Y-60600000D02*
X168100000Y-60600000D01*
X168100000Y-60600000D02*
X168100000Y-52900000D01*
D13*
X129950000Y-71300000D02*
X131050000Y-71300000D01*
X131050000Y-71300000D02*
X131050000Y-68700000D01*
X129950000Y-71300000D02*
X129950000Y-68700000D01*
X127450000Y-82300000D02*
X127450000Y-79700000D01*
X128550000Y-82300000D02*
X128550000Y-79700000D01*
X127450000Y-82300000D02*
X128550000Y-82300000D01*
X173300000Y-69450000D02*
X175900000Y-69450000D01*
X173300000Y-70550000D02*
X175900000Y-70550000D01*
X173300000Y-69450000D02*
X173300000Y-70550000D01*
X182700000Y-114950000D02*
X182700000Y-116050000D01*
X182700000Y-116050000D02*
X185300000Y-116050000D01*
X182700000Y-114950000D02*
X185300000Y-114950000D01*
X130900000Y-66180000D02*
X129900000Y-66180000D01*
X129900000Y-64820000D02*
X130900000Y-64820000D01*
X156770000Y-97100000D02*
X156770000Y-96100000D01*
X158130000Y-96100000D02*
X158130000Y-97100000D01*
X125320000Y-81000000D02*
X125320000Y-80000000D01*
X126680000Y-80000000D02*
X126680000Y-81000000D01*
X147000000Y-83820000D02*
X148000000Y-83820000D01*
X148000000Y-85180000D02*
X147000000Y-85180000D01*
X148000000Y-87180000D02*
X147000000Y-87180000D01*
X147000000Y-85820000D02*
X148000000Y-85820000D01*
X174500000Y-67320000D02*
X175500000Y-67320000D01*
X175500000Y-68680000D02*
X174500000Y-68680000D01*
X155000000Y-131320000D02*
X156000000Y-131320000D01*
X156000000Y-132680000D02*
X155000000Y-132680000D01*
X164500000Y-68680000D02*
X163500000Y-68680000D01*
X163500000Y-67320000D02*
X164500000Y-67320000D01*
X154500000Y-67320000D02*
X155500000Y-67320000D01*
X155500000Y-68680000D02*
X154500000Y-68680000D01*
X183900000Y-112820000D02*
X184900000Y-112820000D01*
X184900000Y-114180000D02*
X183900000Y-114180000D01*
D16*
X193000000Y-145750000D02*
X197500000Y-145750000D01*
X197500000Y-145750000D02*
X197500000Y-85750000D01*
X197500000Y-85750000D02*
X188500000Y-85750000D01*
X188500000Y-85750000D02*
X188500000Y-145750000D01*
X188500000Y-145750000D02*
X193000000Y-145750000D01*
D13*
X164737568Y-136328018D02*
G75*
G02X170262000Y-136327000I2762432J-1171982D01*
G01*
X169797753Y-139428295D02*
G75*
G02X165202000Y-139428000I-2297753J1928295D01*
G01*
X162539000Y-144060000D02*
X162539000Y-140194000D01*
X162539000Y-135805000D02*
X162539000Y-131940000D01*
X172460000Y-144060000D02*
X172460000Y-140194000D01*
X172460000Y-135805000D02*
X172460000Y-131940000D01*
X162539000Y-144060000D02*
X164175000Y-144060000D01*
X165825000Y-144060000D02*
X166675000Y-144060000D01*
X168325000Y-144060000D02*
X169175000Y-144060000D01*
X170825000Y-144060000D02*
X172460000Y-144060000D01*
X162539000Y-131940000D02*
X172460000Y-131940000D01*
D16*
X125230000Y-64690000D02*
X127770000Y-64690000D01*
X127770000Y-64690000D02*
X127770000Y-72310000D01*
X127770000Y-72310000D02*
X125230000Y-72310000D01*
X125230000Y-72310000D02*
X125230000Y-64690000D01*
X145975000Y-81575000D02*
X145975000Y-82975000D01*
X151075000Y-81575000D02*
X151075000Y-77425000D01*
X145925000Y-81575000D02*
X145925000Y-77425000D01*
X151075000Y-81575000D02*
X150930000Y-81575000D01*
X151075000Y-77425000D02*
X150930000Y-77425000D01*
X145925000Y-77425000D02*
X146070000Y-77425000D01*
X145925000Y-81575000D02*
X145975000Y-81575000D01*
X185450000Y-70075000D02*
X185450000Y-71450000D01*
X195575000Y-70075000D02*
X195575000Y-65925000D01*
X185425000Y-70075000D02*
X185425000Y-65925000D01*
X195575000Y-70075000D02*
X195470000Y-70075000D01*
X195575000Y-65925000D02*
X195470000Y-65925000D01*
X185425000Y-65925000D02*
X185530000Y-65925000D01*
X185425000Y-70075000D02*
X185450000Y-70075000D01*
D17*
X140900000Y-84300000D02*
X140900000Y-77400000D01*
X140900000Y-77400000D02*
X134100000Y-77400000D01*
X134100000Y-77400000D02*
X134100000Y-84300000D01*
X134100000Y-84300000D02*
X140900000Y-84300000D01*
D16*
X139127882Y-80872118D02*
G75*
G03X139127882Y-80872118I-1627882J0D01*
G01*
X136200000Y-80900000D02*
X138800000Y-80900000D01*
X137500000Y-79600000D02*
X137500000Y-82200000D01*
X131700000Y-130100000D02*
X156850000Y-130100000D01*
X156850000Y-130100000D02*
X156850000Y-111100000D01*
X156850000Y-111100000D02*
X106550000Y-111100000D01*
X106550000Y-111100000D02*
X106550000Y-130100000D01*
X106550000Y-130100000D02*
X131700000Y-130100000D01*
D18*
G36*
X118000000Y-117000000D02*
G01*
X117600000Y-116500000D01*
X117000000Y-117000000D01*
X116850000Y-120100000D01*
X117350000Y-120500000D01*
X117800000Y-120000000D01*
X118000000Y-117000000D01*
G37*
X118000000Y-117000000D02*
X117600000Y-116500000D01*
X117000000Y-117000000D01*
X116850000Y-120100000D01*
X117350000Y-120500000D01*
X117800000Y-120000000D01*
X118000000Y-117000000D01*
G36*
X113300000Y-120200000D02*
G01*
X112700000Y-120700000D01*
X113400000Y-121200000D01*
X116500000Y-121200000D01*
X117100000Y-120700000D01*
X116500000Y-120200000D01*
X113300000Y-120200000D01*
G37*
X113300000Y-120200000D02*
X112700000Y-120700000D01*
X113400000Y-121200000D01*
X116500000Y-121200000D01*
X117100000Y-120700000D01*
X116500000Y-120200000D01*
X113300000Y-120200000D01*
G36*
X113200000Y-124500000D02*
G01*
X112700000Y-124900000D01*
X113200000Y-125500000D01*
X116200000Y-125500000D01*
X116800000Y-124900000D01*
X116350000Y-124500000D01*
X113200000Y-124500000D01*
G37*
X113200000Y-124500000D02*
X112700000Y-124900000D01*
X113200000Y-125500000D01*
X116200000Y-125500000D01*
X116800000Y-124900000D01*
X116350000Y-124500000D01*
X113200000Y-124500000D01*
G36*
X113700000Y-115700000D02*
G01*
X113000000Y-116200000D01*
X113500000Y-116700000D01*
X116800000Y-116700000D01*
X117400000Y-116200000D01*
X116900000Y-115700000D01*
X113700000Y-115700000D01*
G37*
X113700000Y-115700000D02*
X113000000Y-116200000D01*
X113500000Y-116700000D01*
X116800000Y-116700000D01*
X117400000Y-116200000D01*
X116900000Y-115700000D01*
X113700000Y-115700000D01*
G36*
X116650000Y-124300000D02*
G01*
X117150000Y-124800000D01*
X117600000Y-124300000D01*
X117800000Y-121300000D01*
X117350000Y-120800000D01*
X116850000Y-121300000D01*
X116650000Y-124300000D01*
G37*
X116650000Y-124300000D02*
X117150000Y-124800000D01*
X117600000Y-124300000D01*
X117800000Y-121300000D01*
X117350000Y-120800000D01*
X116850000Y-121300000D01*
X116650000Y-124300000D01*
G36*
X111900000Y-124300000D02*
G01*
X112300000Y-124800000D01*
X112900000Y-124300000D01*
X113100000Y-121300000D01*
X112500000Y-120800000D01*
X112100000Y-121300000D01*
X111900000Y-124300000D01*
G37*
X111900000Y-124300000D02*
X112300000Y-124800000D01*
X112900000Y-124300000D01*
X113100000Y-121300000D01*
X112500000Y-120800000D01*
X112100000Y-121300000D01*
X111900000Y-124300000D01*
D14*
X119760555Y-125300000D02*
G75*
G03X119760555Y-125300000I-360555J0D01*
G01*
D18*
G36*
X112100000Y-120000000D02*
G01*
X112500000Y-120500000D01*
X113100000Y-120000000D01*
X113300000Y-117000000D01*
X112800000Y-116500000D01*
X112300000Y-117000000D01*
X112100000Y-120000000D01*
G37*
X112100000Y-120000000D02*
X112500000Y-120500000D01*
X113100000Y-120000000D01*
X113300000Y-117000000D01*
X112800000Y-116500000D01*
X112300000Y-117000000D01*
X112100000Y-120000000D01*
G36*
X129000000Y-117000000D02*
G01*
X128600000Y-116500000D01*
X128000000Y-117000000D01*
X127850000Y-120100000D01*
X128350000Y-120500000D01*
X128800000Y-120000000D01*
X129000000Y-117000000D01*
G37*
X129000000Y-117000000D02*
X128600000Y-116500000D01*
X128000000Y-117000000D01*
X127850000Y-120100000D01*
X128350000Y-120500000D01*
X128800000Y-120000000D01*
X129000000Y-117000000D01*
G36*
X124300000Y-120200000D02*
G01*
X123700000Y-120700000D01*
X124400000Y-121200000D01*
X127500000Y-121200000D01*
X128100000Y-120700000D01*
X127500000Y-120200000D01*
X124300000Y-120200000D01*
G37*
X124300000Y-120200000D02*
X123700000Y-120700000D01*
X124400000Y-121200000D01*
X127500000Y-121200000D01*
X128100000Y-120700000D01*
X127500000Y-120200000D01*
X124300000Y-120200000D01*
G36*
X124200000Y-124500000D02*
G01*
X123700000Y-124900000D01*
X124200000Y-125500000D01*
X127200000Y-125500000D01*
X127800000Y-124900000D01*
X127350000Y-124500000D01*
X124200000Y-124500000D01*
G37*
X124200000Y-124500000D02*
X123700000Y-124900000D01*
X124200000Y-125500000D01*
X127200000Y-125500000D01*
X127800000Y-124900000D01*
X127350000Y-124500000D01*
X124200000Y-124500000D01*
G36*
X124700000Y-115700000D02*
G01*
X124000000Y-116200000D01*
X124500000Y-116700000D01*
X127800000Y-116700000D01*
X128400000Y-116200000D01*
X127900000Y-115700000D01*
X124700000Y-115700000D01*
G37*
X124700000Y-115700000D02*
X124000000Y-116200000D01*
X124500000Y-116700000D01*
X127800000Y-116700000D01*
X128400000Y-116200000D01*
X127900000Y-115700000D01*
X124700000Y-115700000D01*
G36*
X127650000Y-124300000D02*
G01*
X128150000Y-124800000D01*
X128600000Y-124300000D01*
X128800000Y-121300000D01*
X128350000Y-120800000D01*
X127850000Y-121300000D01*
X127650000Y-124300000D01*
G37*
X127650000Y-124300000D02*
X128150000Y-124800000D01*
X128600000Y-124300000D01*
X128800000Y-121300000D01*
X128350000Y-120800000D01*
X127850000Y-121300000D01*
X127650000Y-124300000D01*
G36*
X122900000Y-124300000D02*
G01*
X123300000Y-124800000D01*
X123900000Y-124300000D01*
X124100000Y-121300000D01*
X123500000Y-120800000D01*
X123100000Y-121300000D01*
X122900000Y-124300000D01*
G37*
X122900000Y-124300000D02*
X123300000Y-124800000D01*
X123900000Y-124300000D01*
X124100000Y-121300000D01*
X123500000Y-120800000D01*
X123100000Y-121300000D01*
X122900000Y-124300000D01*
D14*
X130760555Y-125300000D02*
G75*
G03X130760555Y-125300000I-360555J0D01*
G01*
D18*
G36*
X123100000Y-120000000D02*
G01*
X123500000Y-120500000D01*
X124100000Y-120000000D01*
X124300000Y-117000000D01*
X123800000Y-116500000D01*
X123300000Y-117000000D01*
X123100000Y-120000000D01*
G37*
X123100000Y-120000000D02*
X123500000Y-120500000D01*
X124100000Y-120000000D01*
X124300000Y-117000000D01*
X123800000Y-116500000D01*
X123300000Y-117000000D01*
X123100000Y-120000000D01*
G36*
X141000000Y-117000000D02*
G01*
X140600000Y-116500000D01*
X140000000Y-117000000D01*
X139850000Y-120100000D01*
X140350000Y-120500000D01*
X140800000Y-120000000D01*
X141000000Y-117000000D01*
G37*
X141000000Y-117000000D02*
X140600000Y-116500000D01*
X140000000Y-117000000D01*
X139850000Y-120100000D01*
X140350000Y-120500000D01*
X140800000Y-120000000D01*
X141000000Y-117000000D01*
G36*
X136300000Y-120200000D02*
G01*
X135700000Y-120700000D01*
X136400000Y-121200000D01*
X139500000Y-121200000D01*
X140100000Y-120700000D01*
X139500000Y-120200000D01*
X136300000Y-120200000D01*
G37*
X136300000Y-120200000D02*
X135700000Y-120700000D01*
X136400000Y-121200000D01*
X139500000Y-121200000D01*
X140100000Y-120700000D01*
X139500000Y-120200000D01*
X136300000Y-120200000D01*
G36*
X136200000Y-124500000D02*
G01*
X135700000Y-124900000D01*
X136200000Y-125500000D01*
X139200000Y-125500000D01*
X139800000Y-124900000D01*
X139350000Y-124500000D01*
X136200000Y-124500000D01*
G37*
X136200000Y-124500000D02*
X135700000Y-124900000D01*
X136200000Y-125500000D01*
X139200000Y-125500000D01*
X139800000Y-124900000D01*
X139350000Y-124500000D01*
X136200000Y-124500000D01*
G36*
X136700000Y-115700000D02*
G01*
X136000000Y-116200000D01*
X136500000Y-116700000D01*
X139800000Y-116700000D01*
X140400000Y-116200000D01*
X139900000Y-115700000D01*
X136700000Y-115700000D01*
G37*
X136700000Y-115700000D02*
X136000000Y-116200000D01*
X136500000Y-116700000D01*
X139800000Y-116700000D01*
X140400000Y-116200000D01*
X139900000Y-115700000D01*
X136700000Y-115700000D01*
G36*
X139650000Y-124300000D02*
G01*
X140150000Y-124800000D01*
X140600000Y-124300000D01*
X140800000Y-121300000D01*
X140350000Y-120800000D01*
X139850000Y-121300000D01*
X139650000Y-124300000D01*
G37*
X139650000Y-124300000D02*
X140150000Y-124800000D01*
X140600000Y-124300000D01*
X140800000Y-121300000D01*
X140350000Y-120800000D01*
X139850000Y-121300000D01*
X139650000Y-124300000D01*
G36*
X134900000Y-124300000D02*
G01*
X135300000Y-124800000D01*
X135900000Y-124300000D01*
X136100000Y-121300000D01*
X135500000Y-120800000D01*
X135100000Y-121300000D01*
X134900000Y-124300000D01*
G37*
X134900000Y-124300000D02*
X135300000Y-124800000D01*
X135900000Y-124300000D01*
X136100000Y-121300000D01*
X135500000Y-120800000D01*
X135100000Y-121300000D01*
X134900000Y-124300000D01*
D14*
X142760555Y-125300000D02*
G75*
G03X142760555Y-125300000I-360555J0D01*
G01*
D18*
G36*
X135100000Y-120000000D02*
G01*
X135500000Y-120500000D01*
X136100000Y-120000000D01*
X136300000Y-117000000D01*
X135800000Y-116500000D01*
X135300000Y-117000000D01*
X135100000Y-120000000D01*
G37*
X135100000Y-120000000D02*
X135500000Y-120500000D01*
X136100000Y-120000000D01*
X136300000Y-117000000D01*
X135800000Y-116500000D01*
X135300000Y-117000000D01*
X135100000Y-120000000D01*
G36*
X152000000Y-117000000D02*
G01*
X151600000Y-116500000D01*
X151000000Y-117000000D01*
X150850000Y-120100000D01*
X151350000Y-120500000D01*
X151800000Y-120000000D01*
X152000000Y-117000000D01*
G37*
X152000000Y-117000000D02*
X151600000Y-116500000D01*
X151000000Y-117000000D01*
X150850000Y-120100000D01*
X151350000Y-120500000D01*
X151800000Y-120000000D01*
X152000000Y-117000000D01*
G36*
X147300000Y-120200000D02*
G01*
X146700000Y-120700000D01*
X147400000Y-121200000D01*
X150500000Y-121200000D01*
X151100000Y-120700000D01*
X150500000Y-120200000D01*
X147300000Y-120200000D01*
G37*
X147300000Y-120200000D02*
X146700000Y-120700000D01*
X147400000Y-121200000D01*
X150500000Y-121200000D01*
X151100000Y-120700000D01*
X150500000Y-120200000D01*
X147300000Y-120200000D01*
G36*
X147200000Y-124500000D02*
G01*
X146700000Y-124900000D01*
X147200000Y-125500000D01*
X150200000Y-125500000D01*
X150800000Y-124900000D01*
X150350000Y-124500000D01*
X147200000Y-124500000D01*
G37*
X147200000Y-124500000D02*
X146700000Y-124900000D01*
X147200000Y-125500000D01*
X150200000Y-125500000D01*
X150800000Y-124900000D01*
X150350000Y-124500000D01*
X147200000Y-124500000D01*
G36*
X147700000Y-115700000D02*
G01*
X147000000Y-116200000D01*
X147500000Y-116700000D01*
X150800000Y-116700000D01*
X151400000Y-116200000D01*
X150900000Y-115700000D01*
X147700000Y-115700000D01*
G37*
X147700000Y-115700000D02*
X147000000Y-116200000D01*
X147500000Y-116700000D01*
X150800000Y-116700000D01*
X151400000Y-116200000D01*
X150900000Y-115700000D01*
X147700000Y-115700000D01*
G36*
X150650000Y-124300000D02*
G01*
X151150000Y-124800000D01*
X151600000Y-124300000D01*
X151800000Y-121300000D01*
X151350000Y-120800000D01*
X150850000Y-121300000D01*
X150650000Y-124300000D01*
G37*
X150650000Y-124300000D02*
X151150000Y-124800000D01*
X151600000Y-124300000D01*
X151800000Y-121300000D01*
X151350000Y-120800000D01*
X150850000Y-121300000D01*
X150650000Y-124300000D01*
G36*
X145900000Y-124300000D02*
G01*
X146300000Y-124800000D01*
X146900000Y-124300000D01*
X147100000Y-121300000D01*
X146500000Y-120800000D01*
X146100000Y-121300000D01*
X145900000Y-124300000D01*
G37*
X145900000Y-124300000D02*
X146300000Y-124800000D01*
X146900000Y-124300000D01*
X147100000Y-121300000D01*
X146500000Y-120800000D01*
X146100000Y-121300000D01*
X145900000Y-124300000D01*
D14*
X153760555Y-125300000D02*
G75*
G03X153760555Y-125300000I-360555J0D01*
G01*
D18*
G36*
X146100000Y-120000000D02*
G01*
X146500000Y-120500000D01*
X147100000Y-120000000D01*
X147300000Y-117000000D01*
X146800000Y-116500000D01*
X146300000Y-117000000D01*
X146100000Y-120000000D01*
G37*
X146100000Y-120000000D02*
X146500000Y-120500000D01*
X147100000Y-120000000D01*
X147300000Y-117000000D01*
X146800000Y-116500000D01*
X146300000Y-117000000D01*
X146100000Y-120000000D01*
D16*
X160825000Y-109475000D02*
X160825000Y-111300000D01*
X179225000Y-109475000D02*
X179225000Y-101725000D01*
X160175000Y-109475000D02*
X160175000Y-101725000D01*
X179225000Y-109475000D02*
X178480000Y-109475000D01*
X179225000Y-101725000D02*
X178480000Y-101725000D01*
X160175000Y-101725000D02*
X160920000Y-101725000D01*
X160175000Y-109475000D02*
X160825000Y-109475000D01*
X155532380Y-99381904D02*
X156341904Y-99381904D01*
X156437142Y-99334285D01*
X156484761Y-99286666D01*
X156532380Y-99191428D01*
X156532380Y-99000952D01*
X156484761Y-98905714D01*
X156437142Y-98858095D01*
X156341904Y-98810476D01*
X155532380Y-98810476D01*
X155532380Y-98429523D02*
X155532380Y-97810476D01*
X155913333Y-98143809D01*
X155913333Y-98000952D01*
X155960952Y-97905714D01*
X156008571Y-97858095D01*
X156103809Y-97810476D01*
X156341904Y-97810476D01*
X156437142Y-97858095D01*
X156484761Y-97905714D01*
X156532380Y-98000952D01*
X156532380Y-98286666D01*
X156484761Y-98381904D01*
X156437142Y-98429523D01*
X157902380Y-88266666D02*
X157426190Y-88600000D01*
X157902380Y-88838095D02*
X156902380Y-88838095D01*
X156902380Y-88457142D01*
X156950000Y-88361904D01*
X156997619Y-88314285D01*
X157092857Y-88266666D01*
X157235714Y-88266666D01*
X157330952Y-88314285D01*
X157378571Y-88361904D01*
X157426190Y-88457142D01*
X157426190Y-88838095D01*
X156997619Y-87885714D02*
X156950000Y-87838095D01*
X156902380Y-87742857D01*
X156902380Y-87504761D01*
X156950000Y-87409523D01*
X156997619Y-87361904D01*
X157092857Y-87314285D01*
X157188095Y-87314285D01*
X157330952Y-87361904D01*
X157902380Y-87933333D01*
X157902380Y-87314285D01*
X144880952Y-132452380D02*
X144404761Y-132452380D01*
X144404761Y-131452380D01*
X145214285Y-131928571D02*
X145547619Y-131928571D01*
X145690476Y-132452380D02*
X145214285Y-132452380D01*
X145214285Y-131452380D01*
X145690476Y-131452380D01*
X146119047Y-132452380D02*
X146119047Y-131452380D01*
X146357142Y-131452380D01*
X146500000Y-131500000D01*
X146595238Y-131595238D01*
X146642857Y-131690476D01*
X146690476Y-131880952D01*
X146690476Y-132023809D01*
X146642857Y-132214285D01*
X146595238Y-132309523D01*
X146500000Y-132404761D01*
X146357142Y-132452380D01*
X146119047Y-132452380D01*
X147547619Y-131785714D02*
X147547619Y-132452380D01*
X147309523Y-131404761D02*
X147071428Y-132119047D01*
X147690476Y-132119047D01*
X166880952Y-70452380D02*
X166404761Y-70452380D01*
X166404761Y-69452380D01*
X167214285Y-69928571D02*
X167547619Y-69928571D01*
X167690476Y-70452380D02*
X167214285Y-70452380D01*
X167214285Y-69452380D01*
X167690476Y-69452380D01*
X168119047Y-70452380D02*
X168119047Y-69452380D01*
X168357142Y-69452380D01*
X168500000Y-69500000D01*
X168595238Y-69595238D01*
X168642857Y-69690476D01*
X168690476Y-69880952D01*
X168690476Y-70023809D01*
X168642857Y-70214285D01*
X168595238Y-70309523D01*
X168500000Y-70404761D01*
X168357142Y-70452380D01*
X168119047Y-70452380D01*
X169595238Y-69452380D02*
X169119047Y-69452380D01*
X169071428Y-69928571D01*
X169119047Y-69880952D01*
X169214285Y-69833333D01*
X169452380Y-69833333D01*
X169547619Y-69880952D01*
X169595238Y-69928571D01*
X169642857Y-70023809D01*
X169642857Y-70261904D01*
X169595238Y-70357142D01*
X169547619Y-70404761D01*
X169452380Y-70452380D01*
X169214285Y-70452380D01*
X169119047Y-70404761D01*
X169071428Y-70357142D01*
X149880952Y-70452380D02*
X149404761Y-70452380D01*
X149404761Y-69452380D01*
X150214285Y-69928571D02*
X150547619Y-69928571D01*
X150690476Y-70452380D02*
X150214285Y-70452380D01*
X150214285Y-69452380D01*
X150690476Y-69452380D01*
X151119047Y-70452380D02*
X151119047Y-69452380D01*
X151357142Y-69452380D01*
X151500000Y-69500000D01*
X151595238Y-69595238D01*
X151642857Y-69690476D01*
X151690476Y-69880952D01*
X151690476Y-70023809D01*
X151642857Y-70214285D01*
X151595238Y-70309523D01*
X151500000Y-70404761D01*
X151357142Y-70452380D01*
X151119047Y-70452380D01*
X152547619Y-69452380D02*
X152357142Y-69452380D01*
X152261904Y-69500000D01*
X152214285Y-69547619D01*
X152119047Y-69690476D01*
X152071428Y-69880952D01*
X152071428Y-70261904D01*
X152119047Y-70357142D01*
X152166666Y-70404761D01*
X152261904Y-70452380D01*
X152452380Y-70452380D01*
X152547619Y-70404761D01*
X152595238Y-70357142D01*
X152642857Y-70261904D01*
X152642857Y-70023809D01*
X152595238Y-69928571D01*
X152547619Y-69880952D01*
X152452380Y-69833333D01*
X152261904Y-69833333D01*
X152166666Y-69880952D01*
X152119047Y-69928571D01*
X152071428Y-70023809D01*
X150238095Y-133904761D02*
X150380952Y-133952380D01*
X150619047Y-133952380D01*
X150714285Y-133904761D01*
X150761904Y-133857142D01*
X150809523Y-133761904D01*
X150809523Y-133666666D01*
X150761904Y-133571428D01*
X150714285Y-133523809D01*
X150619047Y-133476190D01*
X150428571Y-133428571D01*
X150333333Y-133380952D01*
X150285714Y-133333333D01*
X150238095Y-133238095D01*
X150238095Y-133142857D01*
X150285714Y-133047619D01*
X150333333Y-133000000D01*
X150428571Y-132952380D01*
X150666666Y-132952380D01*
X150809523Y-133000000D01*
X151761904Y-133952380D02*
X151190476Y-133952380D01*
X151476190Y-133952380D02*
X151476190Y-132952380D01*
X151380952Y-133095238D01*
X151285714Y-133190476D01*
X151190476Y-133238095D01*
X119238095Y-133904761D02*
X119380952Y-133952380D01*
X119619047Y-133952380D01*
X119714285Y-133904761D01*
X119761904Y-133857142D01*
X119809523Y-133761904D01*
X119809523Y-133666666D01*
X119761904Y-133571428D01*
X119714285Y-133523809D01*
X119619047Y-133476190D01*
X119428571Y-133428571D01*
X119333333Y-133380952D01*
X119285714Y-133333333D01*
X119238095Y-133238095D01*
X119238095Y-133142857D01*
X119285714Y-133047619D01*
X119333333Y-133000000D01*
X119428571Y-132952380D01*
X119666666Y-132952380D01*
X119809523Y-133000000D01*
X120190476Y-133047619D02*
X120238095Y-133000000D01*
X120333333Y-132952380D01*
X120571428Y-132952380D01*
X120666666Y-133000000D01*
X120714285Y-133047619D01*
X120761904Y-133142857D01*
X120761904Y-133238095D01*
X120714285Y-133380952D01*
X120142857Y-133952380D01*
X120761904Y-133952380D01*
X133238095Y-133904761D02*
X133380952Y-133952380D01*
X133619047Y-133952380D01*
X133714285Y-133904761D01*
X133761904Y-133857142D01*
X133809523Y-133761904D01*
X133809523Y-133666666D01*
X133761904Y-133571428D01*
X133714285Y-133523809D01*
X133619047Y-133476190D01*
X133428571Y-133428571D01*
X133333333Y-133380952D01*
X133285714Y-133333333D01*
X133238095Y-133238095D01*
X133238095Y-133142857D01*
X133285714Y-133047619D01*
X133333333Y-133000000D01*
X133428571Y-132952380D01*
X133666666Y-132952380D01*
X133809523Y-133000000D01*
X134142857Y-132952380D02*
X134761904Y-132952380D01*
X134428571Y-133333333D01*
X134571428Y-133333333D01*
X134666666Y-133380952D01*
X134714285Y-133428571D01*
X134761904Y-133523809D01*
X134761904Y-133761904D01*
X134714285Y-133857142D01*
X134666666Y-133904761D01*
X134571428Y-133952380D01*
X134285714Y-133952380D01*
X134190476Y-133904761D01*
X134142857Y-133857142D01*
X176738095Y-133912380D02*
X177309523Y-133912380D01*
X177023809Y-134912380D02*
X177023809Y-133912380D01*
X177642857Y-134912380D02*
X177642857Y-133912380D01*
X178023809Y-133912380D01*
X178119047Y-133960000D01*
X178166666Y-134007619D01*
X178214285Y-134102857D01*
X178214285Y-134245714D01*
X178166666Y-134340952D01*
X178119047Y-134388571D01*
X178023809Y-134436190D01*
X177642857Y-134436190D01*
X179119047Y-133912380D02*
X178642857Y-133912380D01*
X178595238Y-134388571D01*
X178642857Y-134340952D01*
X178738095Y-134293333D01*
X178976190Y-134293333D01*
X179071428Y-134340952D01*
X179119047Y-134388571D01*
X179166666Y-134483809D01*
X179166666Y-134721904D01*
X179119047Y-134817142D01*
X179071428Y-134864761D01*
X178976190Y-134912380D01*
X178738095Y-134912380D01*
X178642857Y-134864761D01*
X178595238Y-134817142D01*
X136607142Y-68666666D02*
X136654761Y-68714285D01*
X136702380Y-68857142D01*
X136702380Y-68952380D01*
X136654761Y-69095238D01*
X136559523Y-69190476D01*
X136464285Y-69238095D01*
X136273809Y-69285714D01*
X136130952Y-69285714D01*
X135940476Y-69238095D01*
X135845238Y-69190476D01*
X135750000Y-69095238D01*
X135702380Y-68952380D01*
X135702380Y-68857142D01*
X135750000Y-68714285D01*
X135797619Y-68666666D01*
X136702380Y-67714285D02*
X136702380Y-68285714D01*
X136702380Y-68000000D02*
X135702380Y-68000000D01*
X135845238Y-68095238D01*
X135940476Y-68190476D01*
X135988095Y-68285714D01*
X144857142Y-74666666D02*
X144904761Y-74714285D01*
X144952380Y-74857142D01*
X144952380Y-74952380D01*
X144904761Y-75095238D01*
X144809523Y-75190476D01*
X144714285Y-75238095D01*
X144523809Y-75285714D01*
X144380952Y-75285714D01*
X144190476Y-75238095D01*
X144095238Y-75190476D01*
X144000000Y-75095238D01*
X143952380Y-74952380D01*
X143952380Y-74857142D01*
X144000000Y-74714285D01*
X144047619Y-74666666D01*
X144047619Y-74285714D02*
X144000000Y-74238095D01*
X143952380Y-74142857D01*
X143952380Y-73904761D01*
X144000000Y-73809523D01*
X144047619Y-73761904D01*
X144142857Y-73714285D01*
X144238095Y-73714285D01*
X144380952Y-73761904D01*
X144952380Y-74333333D01*
X144952380Y-73714285D01*
X179483333Y-97957142D02*
X179435714Y-98004761D01*
X179292857Y-98052380D01*
X179197619Y-98052380D01*
X179054761Y-98004761D01*
X178959523Y-97909523D01*
X178911904Y-97814285D01*
X178864285Y-97623809D01*
X178864285Y-97480952D01*
X178911904Y-97290476D01*
X178959523Y-97195238D01*
X179054761Y-97100000D01*
X179197619Y-97052380D01*
X179292857Y-97052380D01*
X179435714Y-97100000D01*
X179483333Y-97147619D01*
X180340476Y-97052380D02*
X180150000Y-97052380D01*
X180054761Y-97100000D01*
X180007142Y-97147619D01*
X179911904Y-97290476D01*
X179864285Y-97480952D01*
X179864285Y-97861904D01*
X179911904Y-97957142D01*
X179959523Y-98004761D01*
X180054761Y-98052380D01*
X180245238Y-98052380D01*
X180340476Y-98004761D01*
X180388095Y-97957142D01*
X180435714Y-97861904D01*
X180435714Y-97623809D01*
X180388095Y-97528571D01*
X180340476Y-97480952D01*
X180245238Y-97433333D01*
X180054761Y-97433333D01*
X179959523Y-97480952D01*
X179911904Y-97528571D01*
X179864285Y-97623809D01*
X174933333Y-90657142D02*
X174885714Y-90704761D01*
X174742857Y-90752380D01*
X174647619Y-90752380D01*
X174504761Y-90704761D01*
X174409523Y-90609523D01*
X174361904Y-90514285D01*
X174314285Y-90323809D01*
X174314285Y-90180952D01*
X174361904Y-89990476D01*
X174409523Y-89895238D01*
X174504761Y-89800000D01*
X174647619Y-89752380D01*
X174742857Y-89752380D01*
X174885714Y-89800000D01*
X174933333Y-89847619D01*
X175266666Y-89752380D02*
X175933333Y-89752380D01*
X175504761Y-90752380D01*
X184357142Y-63166666D02*
X184404761Y-63214285D01*
X184452380Y-63357142D01*
X184452380Y-63452380D01*
X184404761Y-63595238D01*
X184309523Y-63690476D01*
X184214285Y-63738095D01*
X184023809Y-63785714D01*
X183880952Y-63785714D01*
X183690476Y-63738095D01*
X183595238Y-63690476D01*
X183500000Y-63595238D01*
X183452380Y-63452380D01*
X183452380Y-63357142D01*
X183500000Y-63214285D01*
X183547619Y-63166666D01*
X183880952Y-62595238D02*
X183833333Y-62690476D01*
X183785714Y-62738095D01*
X183690476Y-62785714D01*
X183642857Y-62785714D01*
X183547619Y-62738095D01*
X183500000Y-62690476D01*
X183452380Y-62595238D01*
X183452380Y-62404761D01*
X183500000Y-62309523D01*
X183547619Y-62261904D01*
X183642857Y-62214285D01*
X183690476Y-62214285D01*
X183785714Y-62261904D01*
X183833333Y-62309523D01*
X183880952Y-62404761D01*
X183880952Y-62595238D01*
X183928571Y-62690476D01*
X183976190Y-62738095D01*
X184071428Y-62785714D01*
X184261904Y-62785714D01*
X184357142Y-62738095D01*
X184404761Y-62690476D01*
X184452380Y-62595238D01*
X184452380Y-62404761D01*
X184404761Y-62309523D01*
X184357142Y-62261904D01*
X184261904Y-62214285D01*
X184071428Y-62214285D01*
X183976190Y-62261904D01*
X183928571Y-62309523D01*
X183880952Y-62404761D01*
X115666666Y-64452380D02*
X115666666Y-65166666D01*
X115619047Y-65309523D01*
X115523809Y-65404761D01*
X115380952Y-65452380D01*
X115285714Y-65452380D01*
X116666666Y-65452380D02*
X116095238Y-65452380D01*
X116380952Y-65452380D02*
X116380952Y-64452380D01*
X116285714Y-64595238D01*
X116190476Y-64690476D01*
X116095238Y-64738095D01*
X116666666Y-73952380D02*
X116666666Y-74666666D01*
X116619047Y-74809523D01*
X116523809Y-74904761D01*
X116380952Y-74952380D01*
X116285714Y-74952380D01*
X117095238Y-74047619D02*
X117142857Y-74000000D01*
X117238095Y-73952380D01*
X117476190Y-73952380D01*
X117571428Y-74000000D01*
X117619047Y-74047619D01*
X117666666Y-74142857D01*
X117666666Y-74238095D01*
X117619047Y-74380952D01*
X117047619Y-74952380D01*
X117666666Y-74952380D01*
X133666666Y-61452380D02*
X133666666Y-62166666D01*
X133619047Y-62309523D01*
X133523809Y-62404761D01*
X133380952Y-62452380D01*
X133285714Y-62452380D01*
X134047619Y-61452380D02*
X134666666Y-61452380D01*
X134333333Y-61833333D01*
X134476190Y-61833333D01*
X134571428Y-61880952D01*
X134619047Y-61928571D01*
X134666666Y-62023809D01*
X134666666Y-62261904D01*
X134619047Y-62357142D01*
X134571428Y-62404761D01*
X134476190Y-62452380D01*
X134190476Y-62452380D01*
X134095238Y-62404761D01*
X134047619Y-62357142D01*
X147166666Y-61452380D02*
X147166666Y-62166666D01*
X147119047Y-62309523D01*
X147023809Y-62404761D01*
X146880952Y-62452380D01*
X146785714Y-62452380D01*
X148071428Y-61785714D02*
X148071428Y-62452380D01*
X147833333Y-61404761D02*
X147595238Y-62119047D01*
X148214285Y-62119047D01*
X160666666Y-61452380D02*
X160666666Y-62166666D01*
X160619047Y-62309523D01*
X160523809Y-62404761D01*
X160380952Y-62452380D01*
X160285714Y-62452380D01*
X161619047Y-61452380D02*
X161142857Y-61452380D01*
X161095238Y-61928571D01*
X161142857Y-61880952D01*
X161238095Y-61833333D01*
X161476190Y-61833333D01*
X161571428Y-61880952D01*
X161619047Y-61928571D01*
X161666666Y-62023809D01*
X161666666Y-62261904D01*
X161619047Y-62357142D01*
X161571428Y-62404761D01*
X161476190Y-62452380D01*
X161238095Y-62452380D01*
X161142857Y-62404761D01*
X161095238Y-62357142D01*
X174166666Y-61452380D02*
X174166666Y-62166666D01*
X174119047Y-62309523D01*
X174023809Y-62404761D01*
X173880952Y-62452380D01*
X173785714Y-62452380D01*
X175071428Y-61452380D02*
X174880952Y-61452380D01*
X174785714Y-61500000D01*
X174738095Y-61547619D01*
X174642857Y-61690476D01*
X174595238Y-61880952D01*
X174595238Y-62261904D01*
X174642857Y-62357142D01*
X174690476Y-62404761D01*
X174785714Y-62452380D01*
X174976190Y-62452380D01*
X175071428Y-62404761D01*
X175119047Y-62357142D01*
X175166666Y-62261904D01*
X175166666Y-62023809D01*
X175119047Y-61928571D01*
X175071428Y-61880952D01*
X174976190Y-61833333D01*
X174785714Y-61833333D01*
X174690476Y-61880952D01*
X174642857Y-61928571D01*
X174595238Y-62023809D01*
X129502380Y-70619047D02*
X129502380Y-71095238D01*
X128502380Y-71095238D01*
X128978571Y-70285714D02*
X128978571Y-69952380D01*
X129502380Y-69809523D02*
X129502380Y-70285714D01*
X128502380Y-70285714D01*
X128502380Y-69809523D01*
X129502380Y-69380952D02*
X128502380Y-69380952D01*
X128502380Y-69142857D01*
X128550000Y-69000000D01*
X128645238Y-68904761D01*
X128740476Y-68857142D01*
X128930952Y-68809523D01*
X129073809Y-68809523D01*
X129264285Y-68857142D01*
X129359523Y-68904761D01*
X129454761Y-69000000D01*
X129502380Y-69142857D01*
X129502380Y-69380952D01*
X129502380Y-67857142D02*
X129502380Y-68428571D01*
X129502380Y-68142857D02*
X128502380Y-68142857D01*
X128645238Y-68238095D01*
X128740476Y-68333333D01*
X128788095Y-68428571D01*
X128452380Y-77619047D02*
X128452380Y-78095238D01*
X127452380Y-78095238D01*
X127928571Y-77285714D02*
X127928571Y-76952380D01*
X128452380Y-76809523D02*
X128452380Y-77285714D01*
X127452380Y-77285714D01*
X127452380Y-76809523D01*
X128452380Y-76380952D02*
X127452380Y-76380952D01*
X127452380Y-76142857D01*
X127500000Y-76000000D01*
X127595238Y-75904761D01*
X127690476Y-75857142D01*
X127880952Y-75809523D01*
X128023809Y-75809523D01*
X128214285Y-75857142D01*
X128309523Y-75904761D01*
X128404761Y-76000000D01*
X128452380Y-76142857D01*
X128452380Y-76380952D01*
X127547619Y-75428571D02*
X127500000Y-75380952D01*
X127452380Y-75285714D01*
X127452380Y-75047619D01*
X127500000Y-74952380D01*
X127547619Y-74904761D01*
X127642857Y-74857142D01*
X127738095Y-74857142D01*
X127880952Y-74904761D01*
X128452380Y-75476190D01*
X128452380Y-74857142D01*
X177880952Y-70452380D02*
X177404761Y-70452380D01*
X177404761Y-69452380D01*
X178214285Y-69928571D02*
X178547619Y-69928571D01*
X178690476Y-70452380D02*
X178214285Y-70452380D01*
X178214285Y-69452380D01*
X178690476Y-69452380D01*
X179119047Y-70452380D02*
X179119047Y-69452380D01*
X179357142Y-69452380D01*
X179500000Y-69500000D01*
X179595238Y-69595238D01*
X179642857Y-69690476D01*
X179690476Y-69880952D01*
X179690476Y-70023809D01*
X179642857Y-70214285D01*
X179595238Y-70309523D01*
X179500000Y-70404761D01*
X179357142Y-70452380D01*
X179119047Y-70452380D01*
X180023809Y-69452380D02*
X180642857Y-69452380D01*
X180309523Y-69833333D01*
X180452380Y-69833333D01*
X180547619Y-69880952D01*
X180595238Y-69928571D01*
X180642857Y-70023809D01*
X180642857Y-70261904D01*
X180595238Y-70357142D01*
X180547619Y-70404761D01*
X180452380Y-70452380D01*
X180166666Y-70452380D01*
X180071428Y-70404761D01*
X180023809Y-70357142D01*
X179380952Y-115952380D02*
X178904761Y-115952380D01*
X178904761Y-114952380D01*
X179714285Y-115428571D02*
X180047619Y-115428571D01*
X180190476Y-115952380D02*
X179714285Y-115952380D01*
X179714285Y-114952380D01*
X180190476Y-114952380D01*
X180619047Y-115952380D02*
X180619047Y-114952380D01*
X180857142Y-114952380D01*
X181000000Y-115000000D01*
X181095238Y-115095238D01*
X181142857Y-115190476D01*
X181190476Y-115380952D01*
X181190476Y-115523809D01*
X181142857Y-115714285D01*
X181095238Y-115809523D01*
X181000000Y-115904761D01*
X180857142Y-115952380D01*
X180619047Y-115952380D01*
X181523809Y-114952380D02*
X182190476Y-114952380D01*
X181761904Y-115952380D01*
X130233333Y-64502380D02*
X129900000Y-64026190D01*
X129661904Y-64502380D02*
X129661904Y-63502380D01*
X130042857Y-63502380D01*
X130138095Y-63550000D01*
X130185714Y-63597619D01*
X130233333Y-63692857D01*
X130233333Y-63835714D01*
X130185714Y-63930952D01*
X130138095Y-63978571D01*
X130042857Y-64026190D01*
X129661904Y-64026190D01*
X131185714Y-64502380D02*
X130614285Y-64502380D01*
X130900000Y-64502380D02*
X130900000Y-63502380D01*
X130804761Y-63645238D01*
X130709523Y-63740476D01*
X130614285Y-63788095D01*
X157902380Y-99666666D02*
X157426190Y-100000000D01*
X157902380Y-100238095D02*
X156902380Y-100238095D01*
X156902380Y-99857142D01*
X156950000Y-99761904D01*
X156997619Y-99714285D01*
X157092857Y-99666666D01*
X157235714Y-99666666D01*
X157330952Y-99714285D01*
X157378571Y-99761904D01*
X157426190Y-99857142D01*
X157426190Y-100238095D01*
X156902380Y-99333333D02*
X156902380Y-98714285D01*
X157283333Y-99047619D01*
X157283333Y-98904761D01*
X157330952Y-98809523D01*
X157378571Y-98761904D01*
X157473809Y-98714285D01*
X157711904Y-98714285D01*
X157807142Y-98761904D01*
X157854761Y-98809523D01*
X157902380Y-98904761D01*
X157902380Y-99190476D01*
X157854761Y-99285714D01*
X157807142Y-99333333D01*
X126452380Y-77666666D02*
X125976190Y-78000000D01*
X126452380Y-78238095D02*
X125452380Y-78238095D01*
X125452380Y-77857142D01*
X125500000Y-77761904D01*
X125547619Y-77714285D01*
X125642857Y-77666666D01*
X125785714Y-77666666D01*
X125880952Y-77714285D01*
X125928571Y-77761904D01*
X125976190Y-77857142D01*
X125976190Y-78238095D01*
X125452380Y-76809523D02*
X125452380Y-77000000D01*
X125500000Y-77095238D01*
X125547619Y-77142857D01*
X125690476Y-77238095D01*
X125880952Y-77285714D01*
X126261904Y-77285714D01*
X126357142Y-77238095D01*
X126404761Y-77190476D01*
X126452380Y-77095238D01*
X126452380Y-76904761D01*
X126404761Y-76809523D01*
X126357142Y-76761904D01*
X126261904Y-76714285D01*
X126023809Y-76714285D01*
X125928571Y-76761904D01*
X125880952Y-76809523D01*
X125833333Y-76904761D01*
X125833333Y-77095238D01*
X125880952Y-77190476D01*
X125928571Y-77238095D01*
X126023809Y-77285714D01*
X150333333Y-84952380D02*
X150000000Y-84476190D01*
X149761904Y-84952380D02*
X149761904Y-83952380D01*
X150142857Y-83952380D01*
X150238095Y-84000000D01*
X150285714Y-84047619D01*
X150333333Y-84142857D01*
X150333333Y-84285714D01*
X150285714Y-84380952D01*
X150238095Y-84428571D01*
X150142857Y-84476190D01*
X149761904Y-84476190D01*
X150666666Y-83952380D02*
X151333333Y-83952380D01*
X150904761Y-84952380D01*
X150333333Y-86952380D02*
X150000000Y-86476190D01*
X149761904Y-86952380D02*
X149761904Y-85952380D01*
X150142857Y-85952380D01*
X150238095Y-86000000D01*
X150285714Y-86047619D01*
X150333333Y-86142857D01*
X150333333Y-86285714D01*
X150285714Y-86380952D01*
X150238095Y-86428571D01*
X150142857Y-86476190D01*
X149761904Y-86476190D01*
X150904761Y-86380952D02*
X150809523Y-86333333D01*
X150761904Y-86285714D01*
X150714285Y-86190476D01*
X150714285Y-86142857D01*
X150761904Y-86047619D01*
X150809523Y-86000000D01*
X150904761Y-85952380D01*
X151095238Y-85952380D01*
X151190476Y-86000000D01*
X151238095Y-86047619D01*
X151285714Y-86142857D01*
X151285714Y-86190476D01*
X151238095Y-86285714D01*
X151190476Y-86333333D01*
X151095238Y-86380952D01*
X150904761Y-86380952D01*
X150809523Y-86428571D01*
X150761904Y-86476190D01*
X150714285Y-86571428D01*
X150714285Y-86761904D01*
X150761904Y-86857142D01*
X150809523Y-86904761D01*
X150904761Y-86952380D01*
X151095238Y-86952380D01*
X151190476Y-86904761D01*
X151238095Y-86857142D01*
X151285714Y-86761904D01*
X151285714Y-86571428D01*
X151238095Y-86476190D01*
X151190476Y-86428571D01*
X151095238Y-86380952D01*
X177833333Y-68452380D02*
X177500000Y-67976190D01*
X177261904Y-68452380D02*
X177261904Y-67452380D01*
X177642857Y-67452380D01*
X177738095Y-67500000D01*
X177785714Y-67547619D01*
X177833333Y-67642857D01*
X177833333Y-67785714D01*
X177785714Y-67880952D01*
X177738095Y-67928571D01*
X177642857Y-67976190D01*
X177261904Y-67976190D01*
X178309523Y-68452380D02*
X178500000Y-68452380D01*
X178595238Y-68404761D01*
X178642857Y-68357142D01*
X178738095Y-68214285D01*
X178785714Y-68023809D01*
X178785714Y-67642857D01*
X178738095Y-67547619D01*
X178690476Y-67500000D01*
X178595238Y-67452380D01*
X178404761Y-67452380D01*
X178309523Y-67500000D01*
X178261904Y-67547619D01*
X178214285Y-67642857D01*
X178214285Y-67880952D01*
X178261904Y-67976190D01*
X178309523Y-68023809D01*
X178404761Y-68071428D01*
X178595238Y-68071428D01*
X178690476Y-68023809D01*
X178738095Y-67976190D01*
X178785714Y-67880952D01*
X154857142Y-133902380D02*
X154523809Y-133426190D01*
X154285714Y-133902380D02*
X154285714Y-132902380D01*
X154666666Y-132902380D01*
X154761904Y-132950000D01*
X154809523Y-132997619D01*
X154857142Y-133092857D01*
X154857142Y-133235714D01*
X154809523Y-133330952D01*
X154761904Y-133378571D01*
X154666666Y-133426190D01*
X154285714Y-133426190D01*
X155809523Y-133902380D02*
X155238095Y-133902380D01*
X155523809Y-133902380D02*
X155523809Y-132902380D01*
X155428571Y-133045238D01*
X155333333Y-133140476D01*
X155238095Y-133188095D01*
X156428571Y-132902380D02*
X156523809Y-132902380D01*
X156619047Y-132950000D01*
X156666666Y-132997619D01*
X156714285Y-133092857D01*
X156761904Y-133283333D01*
X156761904Y-133521428D01*
X156714285Y-133711904D01*
X156666666Y-133807142D01*
X156619047Y-133854761D01*
X156523809Y-133902380D01*
X156428571Y-133902380D01*
X156333333Y-133854761D01*
X156285714Y-133807142D01*
X156238095Y-133711904D01*
X156190476Y-133521428D01*
X156190476Y-133283333D01*
X156238095Y-133092857D01*
X156285714Y-132997619D01*
X156333333Y-132950000D01*
X156428571Y-132902380D01*
X166857142Y-68452380D02*
X166523809Y-67976190D01*
X166285714Y-68452380D02*
X166285714Y-67452380D01*
X166666666Y-67452380D01*
X166761904Y-67500000D01*
X166809523Y-67547619D01*
X166857142Y-67642857D01*
X166857142Y-67785714D01*
X166809523Y-67880952D01*
X166761904Y-67928571D01*
X166666666Y-67976190D01*
X166285714Y-67976190D01*
X167809523Y-68452380D02*
X167238095Y-68452380D01*
X167523809Y-68452380D02*
X167523809Y-67452380D01*
X167428571Y-67595238D01*
X167333333Y-67690476D01*
X167238095Y-67738095D01*
X168761904Y-68452380D02*
X168190476Y-68452380D01*
X168476190Y-68452380D02*
X168476190Y-67452380D01*
X168380952Y-67595238D01*
X168285714Y-67690476D01*
X168190476Y-67738095D01*
X150857142Y-68452380D02*
X150523809Y-67976190D01*
X150285714Y-68452380D02*
X150285714Y-67452380D01*
X150666666Y-67452380D01*
X150761904Y-67500000D01*
X150809523Y-67547619D01*
X150857142Y-67642857D01*
X150857142Y-67785714D01*
X150809523Y-67880952D01*
X150761904Y-67928571D01*
X150666666Y-67976190D01*
X150285714Y-67976190D01*
X151809523Y-68452380D02*
X151238095Y-68452380D01*
X151523809Y-68452380D02*
X151523809Y-67452380D01*
X151428571Y-67595238D01*
X151333333Y-67690476D01*
X151238095Y-67738095D01*
X152190476Y-67547619D02*
X152238095Y-67500000D01*
X152333333Y-67452380D01*
X152571428Y-67452380D01*
X152666666Y-67500000D01*
X152714285Y-67547619D01*
X152761904Y-67642857D01*
X152761904Y-67738095D01*
X152714285Y-67880952D01*
X152142857Y-68452380D01*
X152761904Y-68452380D01*
X179857142Y-113952380D02*
X179523809Y-113476190D01*
X179285714Y-113952380D02*
X179285714Y-112952380D01*
X179666666Y-112952380D01*
X179761904Y-113000000D01*
X179809523Y-113047619D01*
X179857142Y-113142857D01*
X179857142Y-113285714D01*
X179809523Y-113380952D01*
X179761904Y-113428571D01*
X179666666Y-113476190D01*
X179285714Y-113476190D01*
X180809523Y-113952380D02*
X180238095Y-113952380D01*
X180523809Y-113952380D02*
X180523809Y-112952380D01*
X180428571Y-113095238D01*
X180333333Y-113190476D01*
X180238095Y-113238095D01*
X181142857Y-112952380D02*
X181761904Y-112952380D01*
X181428571Y-113333333D01*
X181571428Y-113333333D01*
X181666666Y-113380952D01*
X181714285Y-113428571D01*
X181761904Y-113523809D01*
X181761904Y-113761904D01*
X181714285Y-113857142D01*
X181666666Y-113904761D01*
X181571428Y-113952380D01*
X181285714Y-113952380D01*
X181190476Y-113904761D01*
X181142857Y-113857142D01*
X192404761Y-116202380D02*
X192071428Y-115726190D01*
X191833333Y-116202380D02*
X191833333Y-115202380D01*
X192214285Y-115202380D01*
X192309523Y-115250000D01*
X192357142Y-115297619D01*
X192404761Y-115392857D01*
X192404761Y-115535714D01*
X192357142Y-115630952D01*
X192309523Y-115678571D01*
X192214285Y-115726190D01*
X191833333Y-115726190D01*
X192690476Y-115202380D02*
X193023809Y-116202380D01*
X193357142Y-115202380D01*
X193642857Y-115297619D02*
X193690476Y-115250000D01*
X193785714Y-115202380D01*
X194023809Y-115202380D01*
X194119047Y-115250000D01*
X194166666Y-115297619D01*
X194214285Y-115392857D01*
X194214285Y-115488095D01*
X194166666Y-115630952D01*
X193595238Y-116202380D01*
X194214285Y-116202380D01*
X166904761Y-131452380D02*
X166571428Y-130976190D01*
X166333333Y-131452380D02*
X166333333Y-130452380D01*
X166714285Y-130452380D01*
X166809523Y-130500000D01*
X166857142Y-130547619D01*
X166904761Y-130642857D01*
X166904761Y-130785714D01*
X166857142Y-130880952D01*
X166809523Y-130928571D01*
X166714285Y-130976190D01*
X166333333Y-130976190D01*
X167190476Y-130452380D02*
X167523809Y-131452380D01*
X167857142Y-130452380D01*
X168095238Y-130452380D02*
X168714285Y-130452380D01*
X168380952Y-130833333D01*
X168523809Y-130833333D01*
X168619047Y-130880952D01*
X168666666Y-130928571D01*
X168714285Y-131023809D01*
X168714285Y-131261904D01*
X168666666Y-131357142D01*
X168619047Y-131404761D01*
X168523809Y-131452380D01*
X168238095Y-131452380D01*
X168142857Y-131404761D01*
X168095238Y-131357142D01*
X125166666Y-73904761D02*
X125309523Y-73952380D01*
X125547619Y-73952380D01*
X125642857Y-73904761D01*
X125690476Y-73857142D01*
X125738095Y-73761904D01*
X125738095Y-73666666D01*
X125690476Y-73571428D01*
X125642857Y-73523809D01*
X125547619Y-73476190D01*
X125357142Y-73428571D01*
X125261904Y-73380952D01*
X125214285Y-73333333D01*
X125166666Y-73238095D01*
X125166666Y-73142857D01*
X125214285Y-73047619D01*
X125261904Y-73000000D01*
X125357142Y-72952380D01*
X125595238Y-72952380D01*
X125738095Y-73000000D01*
X126071428Y-72952380D02*
X126309523Y-73952380D01*
X126500000Y-73238095D01*
X126690476Y-73952380D01*
X126928571Y-72952380D01*
X127833333Y-73952380D02*
X127261904Y-73952380D01*
X127547619Y-73952380D02*
X127547619Y-72952380D01*
X127452380Y-73095238D01*
X127357142Y-73190476D01*
X127261904Y-73238095D01*
X120838095Y-56952380D02*
X121409523Y-56952380D01*
X121123809Y-57952380D02*
X121123809Y-56952380D01*
X121742857Y-57952380D02*
X121742857Y-56952380D01*
X122123809Y-56952380D01*
X122219047Y-57000000D01*
X122266666Y-57047619D01*
X122314285Y-57142857D01*
X122314285Y-57285714D01*
X122266666Y-57380952D01*
X122219047Y-57428571D01*
X122123809Y-57476190D01*
X121742857Y-57476190D01*
X123266666Y-57952380D02*
X122695238Y-57952380D01*
X122980952Y-57952380D02*
X122980952Y-56952380D01*
X122885714Y-57095238D01*
X122790476Y-57190476D01*
X122695238Y-57238095D01*
X114338095Y-58152380D02*
X114909523Y-58152380D01*
X114623809Y-59152380D02*
X114623809Y-58152380D01*
X115242857Y-59152380D02*
X115242857Y-58152380D01*
X115623809Y-58152380D01*
X115719047Y-58200000D01*
X115766666Y-58247619D01*
X115814285Y-58342857D01*
X115814285Y-58485714D01*
X115766666Y-58580952D01*
X115719047Y-58628571D01*
X115623809Y-58676190D01*
X115242857Y-58676190D01*
X116195238Y-58247619D02*
X116242857Y-58200000D01*
X116338095Y-58152380D01*
X116576190Y-58152380D01*
X116671428Y-58200000D01*
X116719047Y-58247619D01*
X116766666Y-58342857D01*
X116766666Y-58438095D01*
X116719047Y-58580952D01*
X116147619Y-59152380D01*
X116766666Y-59152380D01*
X139238095Y-73252380D02*
X139809523Y-73252380D01*
X139523809Y-74252380D02*
X139523809Y-73252380D01*
X140142857Y-74252380D02*
X140142857Y-73252380D01*
X140523809Y-73252380D01*
X140619047Y-73300000D01*
X140666666Y-73347619D01*
X140714285Y-73442857D01*
X140714285Y-73585714D01*
X140666666Y-73680952D01*
X140619047Y-73728571D01*
X140523809Y-73776190D01*
X140142857Y-73776190D01*
X141047619Y-73252380D02*
X141666666Y-73252380D01*
X141333333Y-73633333D01*
X141476190Y-73633333D01*
X141571428Y-73680952D01*
X141619047Y-73728571D01*
X141666666Y-73823809D01*
X141666666Y-74061904D01*
X141619047Y-74157142D01*
X141571428Y-74204761D01*
X141476190Y-74252380D01*
X141190476Y-74252380D01*
X141095238Y-74204761D01*
X141047619Y-74157142D01*
X183738095Y-133912380D02*
X184309523Y-133912380D01*
X184023809Y-134912380D02*
X184023809Y-133912380D01*
X184642857Y-134912380D02*
X184642857Y-133912380D01*
X185023809Y-133912380D01*
X185119047Y-133960000D01*
X185166666Y-134007619D01*
X185214285Y-134102857D01*
X185214285Y-134245714D01*
X185166666Y-134340952D01*
X185119047Y-134388571D01*
X185023809Y-134436190D01*
X184642857Y-134436190D01*
X186071428Y-134245714D02*
X186071428Y-134912380D01*
X185833333Y-133864761D02*
X185595238Y-134579047D01*
X186214285Y-134579047D01*
X144452380Y-82261904D02*
X145261904Y-82261904D01*
X145357142Y-82214285D01*
X145404761Y-82166666D01*
X145452380Y-82071428D01*
X145452380Y-81880952D01*
X145404761Y-81785714D01*
X145357142Y-81738095D01*
X145261904Y-81690476D01*
X144452380Y-81690476D01*
X145452380Y-80690476D02*
X145452380Y-81261904D01*
X145452380Y-80976190D02*
X144452380Y-80976190D01*
X144595238Y-81071428D01*
X144690476Y-81166666D01*
X144738095Y-81261904D01*
X183952380Y-71761904D02*
X184761904Y-71761904D01*
X184857142Y-71714285D01*
X184904761Y-71666666D01*
X184952380Y-71571428D01*
X184952380Y-71380952D01*
X184904761Y-71285714D01*
X184857142Y-71238095D01*
X184761904Y-71190476D01*
X183952380Y-71190476D01*
X184285714Y-70285714D02*
X184952380Y-70285714D01*
X183904761Y-70523809D02*
X184619047Y-70761904D01*
X184619047Y-70142857D01*
X136904761Y-76552380D02*
X136571428Y-76076190D01*
X136333333Y-76552380D02*
X136333333Y-75552380D01*
X136714285Y-75552380D01*
X136809523Y-75600000D01*
X136857142Y-75647619D01*
X136904761Y-75742857D01*
X136904761Y-75885714D01*
X136857142Y-75980952D01*
X136809523Y-76028571D01*
X136714285Y-76076190D01*
X136333333Y-76076190D01*
X137190476Y-75552380D02*
X137523809Y-76552380D01*
X137857142Y-75552380D01*
X138714285Y-76552380D02*
X138142857Y-76552380D01*
X138428571Y-76552380D02*
X138428571Y-75552380D01*
X138333333Y-75695238D01*
X138238095Y-75790476D01*
X138142857Y-75838095D01*
X129738095Y-79152380D02*
X130309523Y-79152380D01*
X130023809Y-80152380D02*
X130023809Y-79152380D01*
X130642857Y-80152380D02*
X130642857Y-79152380D01*
X131023809Y-79152380D01*
X131119047Y-79200000D01*
X131166666Y-79247619D01*
X131214285Y-79342857D01*
X131214285Y-79485714D01*
X131166666Y-79580952D01*
X131119047Y-79628571D01*
X131023809Y-79676190D01*
X130642857Y-79676190D01*
X132071428Y-79152380D02*
X131880952Y-79152380D01*
X131785714Y-79200000D01*
X131738095Y-79247619D01*
X131642857Y-79390476D01*
X131595238Y-79580952D01*
X131595238Y-79961904D01*
X131642857Y-80057142D01*
X131690476Y-80104761D01*
X131785714Y-80152380D01*
X131976190Y-80152380D01*
X132071428Y-80104761D01*
X132119047Y-80057142D01*
X132166666Y-79961904D01*
X132166666Y-79723809D01*
X132119047Y-79628571D01*
X132071428Y-79580952D01*
X131976190Y-79533333D01*
X131785714Y-79533333D01*
X131690476Y-79580952D01*
X131642857Y-79628571D01*
X131595238Y-79723809D01*
X128842857Y-108052380D02*
X129509523Y-108052380D01*
X129080952Y-109052380D01*
X129842857Y-109004761D02*
X129985714Y-109052380D01*
X130223809Y-109052380D01*
X130319047Y-109004761D01*
X130366666Y-108957142D01*
X130414285Y-108861904D01*
X130414285Y-108766666D01*
X130366666Y-108671428D01*
X130319047Y-108623809D01*
X130223809Y-108576190D01*
X130033333Y-108528571D01*
X129938095Y-108480952D01*
X129890476Y-108433333D01*
X129842857Y-108338095D01*
X129842857Y-108242857D01*
X129890476Y-108147619D01*
X129938095Y-108100000D01*
X130033333Y-108052380D01*
X130271428Y-108052380D01*
X130414285Y-108100000D01*
X130842857Y-108528571D02*
X131176190Y-108528571D01*
X131319047Y-109052380D02*
X130842857Y-109052380D01*
X130842857Y-108052380D01*
X131319047Y-108052380D01*
X132271428Y-108100000D02*
X132176190Y-108052380D01*
X132033333Y-108052380D01*
X131890476Y-108100000D01*
X131795238Y-108195238D01*
X131747619Y-108290476D01*
X131700000Y-108480952D01*
X131700000Y-108623809D01*
X131747619Y-108814285D01*
X131795238Y-108909523D01*
X131890476Y-109004761D01*
X132033333Y-109052380D01*
X132128571Y-109052380D01*
X132271428Y-109004761D01*
X132319047Y-108957142D01*
X132319047Y-108623809D01*
X132128571Y-108623809D01*
X132747619Y-108671428D02*
X133509523Y-108671428D01*
X134509523Y-109052380D02*
X133938095Y-109052380D01*
X134223809Y-109052380D02*
X134223809Y-108052380D01*
X134128571Y-108195238D01*
X134033333Y-108290476D01*
X133938095Y-108338095D01*
X158702380Y-106361904D02*
X159511904Y-106361904D01*
X159607142Y-106314285D01*
X159654761Y-106266666D01*
X159702380Y-106171428D01*
X159702380Y-105980952D01*
X159654761Y-105885714D01*
X159607142Y-105838095D01*
X159511904Y-105790476D01*
X158702380Y-105790476D01*
X158797619Y-105361904D02*
X158750000Y-105314285D01*
X158702380Y-105219047D01*
X158702380Y-104980952D01*
X158750000Y-104885714D01*
X158797619Y-104838095D01*
X158892857Y-104790476D01*
X158988095Y-104790476D01*
X159130952Y-104838095D01*
X159702380Y-105409523D01*
X159702380Y-104790476D01*
M02*
