M48
; DRILL file {KiCad 5.1.5} date 2019年12月29日 16時55分32秒
; FORMAT={-:-/ absolute / metric / decimal}
; #@! TF.CreationDate,2019-12-29T16:55:32+09:00
; #@! TF.GenerationSoftware,Kicad,Pcbnew,5.1.5
; #@! TF.FileFunction,Plated,1,4,PTH
FMAT,2
METRIC
T1C0.400
T2C0.762
T3C0.800
T4C1.000
T5C1.400
T6C1.500
T7C2.000
T8C3.000
%
G90
G05
T1
X111.0Y-61.0
X114.7Y-95.35
X115.788Y-94.438
X116.43Y-97.33
X117.516Y-93.416
X117.95Y-96.35
X119.435Y-94.725
X123.1Y-85.45
X123.1Y-88.95
X124.045Y-83.445
X124.7Y-100.6
X124.85Y-96.182
X124.85Y-97.35
X125.0Y-84.7
X126.6Y-85.4
X126.6Y-89.0
X128.89Y-97.35
X128.89Y-100.6
X129.3Y-81.3
X130.2Y-96.5
X130.8Y-86.2
X133.3Y-86.2
X136.9Y-70.4
X139.9Y-88.2
X139.9Y-89.2
X141.59Y-88.9
X143.0Y-69.6
X143.091Y-86.183
X143.1Y-76.6
X144.9Y-86.0
X145.7Y-78.8
X146.95Y-126.35
X150.0Y-133.0
X150.2Y-123.85
X150.5Y-83.9
X150.62Y-128.18
X151.3Y-88.05
X151.9Y-86.55
X151.95Y-129.6
X152.1Y-70.1
X153.0Y-84.5
X153.8Y-86.5
X153.8Y-89.7
X153.95Y-130.45
X154.8Y-85.75
X154.8Y-89.7
X154.95Y-112.6
X154.973Y-84.127
X155.95Y-91.85
X155.95Y-95.1
X155.95Y-108.35
X156.2Y-98.35
X156.328Y-130.478
X156.7Y-103.35
X156.7Y-111.85
X158.45Y-104.35
X158.45Y-109.1
X158.45Y-114.6
X158.463Y-129.613
X158.7Y-89.6
X158.95Y-106.85
X158.95Y-125.35
X159.2Y-88.1
X159.95Y-95.85
X159.95Y-104.35
X160.2Y-85.1
X160.2Y-87.1
X160.45Y-103.35
X160.7Y-88.1
X160.7Y-116.85
X161.1Y-70.1
X161.7Y-89.6
X161.73Y-106.32
X162.588Y-125.488
X163.308Y-128.208
X165.2Y-117.667
X165.7Y-114.6
X166.7Y-83.35
X166.7Y-87.85
X166.7Y-112.6
X166.95Y-108.35
X167.45Y-105.57
X167.767Y-116.917
X168.622Y-113.522
X169.2Y-112.1
X169.922Y-102.6
X170.7Y-113.6
X171.46Y-64.94
X172.4Y-69.9
X172.473Y-116.873
X175.7Y-79.6
X175.72Y-64.88
X175.8Y-76.5
X178.7Y-104.35
X179.2Y-97.6
X179.45Y-92.1
X180.1Y-67.15
X180.1Y-69.15
X180.2Y-104.35
X180.45Y-92.1
X181.2Y-115.6
X181.3Y-85.4
X181.45Y-92.1
X182.9Y-67.1
X183.8Y-85.5
X184.0Y-60.3
X184.0Y-63.2
X184.3Y-70.7
X184.3Y-73.8
X185.9Y-133.6
X185.9Y-117.9
X187.5Y-133.6
X188.0Y-63.0
X188.1Y-117.9
X195.0Y-72.7
T2
X185.0Y-137.0
X140.5Y-75.5
X131.0Y-81.5
X178.0Y-137.0
X125.35Y-112.98
X125.35Y-128.22
X127.89Y-112.98
X127.89Y-128.22
X130.43Y-112.98
X130.43Y-128.22
X132.97Y-112.98
X132.97Y-128.22
X135.51Y-112.98
X135.51Y-128.22
X138.05Y-112.98
X138.05Y-128.22
X126.5Y-65.96
X126.5Y-68.5
X126.5Y-71.04
T3
X115.44Y-91.0
X115.44Y-106.24
X117.98Y-91.0
X117.98Y-106.24
X120.52Y-91.0
X120.52Y-106.24
X123.06Y-91.0
X123.06Y-106.24
X125.6Y-91.0
X125.6Y-106.24
X128.14Y-91.0
X128.14Y-106.24
X130.68Y-91.0
X130.68Y-106.24
X133.22Y-91.0
X133.22Y-106.24
X135.76Y-91.0
X135.76Y-106.24
X138.3Y-91.0
X138.3Y-106.24
X140.84Y-91.0
X140.84Y-106.24
X143.38Y-91.0
X143.38Y-106.24
X145.92Y-91.0
X145.92Y-106.24
X148.46Y-91.0
X148.46Y-106.24
X151.0Y-91.0
X151.0Y-106.24
X135.0Y-80.5
X137.5Y-78.0
X140.0Y-80.5
T4
X130.75Y-135.5
X130.75Y-140.0
X137.25Y-135.5
X137.25Y-140.0
X147.25Y-135.5
X147.25Y-140.0
X153.75Y-135.5
X153.75Y-140.0
X165.0Y-145.0
X167.5Y-145.0
X170.0Y-145.0
X116.75Y-135.5
X116.75Y-140.0
X123.25Y-135.5
X123.25Y-140.0
T5
X107.0Y-64.8
X107.0Y-72.2
T6
X156.44Y-56.95
X158.59Y-55.45
X163.04Y-55.45
X165.34Y-56.95
X191.25Y-86.5
X191.25Y-145.0
X194.75Y-145.0
X112.94Y-79.95
X115.09Y-78.45
X119.54Y-78.45
X121.84Y-79.95
X129.35Y-57.0
X131.5Y-55.5
X135.95Y-55.5
X138.25Y-57.0
X142.94Y-56.95
X145.09Y-55.45
X149.54Y-55.45
X151.84Y-56.95
X169.94Y-56.95
X172.09Y-55.45
X176.54Y-55.45
X178.84Y-56.95
T7
X188.75Y-91.85
X188.75Y-139.65
X197.25Y-90.65
X197.25Y-140.85
T8
X163.1Y-138.0
X171.9Y-138.0
T0
M30
