G04 #@! TF.GenerationSoftware,KiCad,Pcbnew,5.1.4*
G04 #@! TF.CreationDate,2019-12-03T14:43:41+09:00*
G04 #@! TF.ProjectId,Sync-chan,53796e63-2d63-4686-916e-2e6b69636164,rev?*
G04 #@! TF.SameCoordinates,Original*
G04 #@! TF.FileFunction,Soldermask,Bot*
G04 #@! TF.FilePolarity,Negative*
%FSLAX46Y46*%
G04 Gerber Fmt 4.6, Leading zero omitted, Abs format (unit mm)*
G04 Created by KiCad (PCBNEW 5.1.4) date 2019-12-03 14:43:41*
%MOMM*%
%LPD*%
G04 APERTURE LIST*
%ADD10C,0.100000*%
G04 APERTURE END LIST*
D10*
G36*
X201375256Y-143391298D02*
G01*
X201481579Y-143412447D01*
X201782042Y-143536903D01*
X202052451Y-143717585D01*
X202282415Y-143947549D01*
X202463097Y-144217958D01*
X202587553Y-144518421D01*
X202593742Y-144549534D01*
X202651000Y-144837389D01*
X202651000Y-145162611D01*
X202608702Y-145375256D01*
X202587553Y-145481579D01*
X202463097Y-145782042D01*
X202282415Y-146052451D01*
X202052451Y-146282415D01*
X201782042Y-146463097D01*
X201481579Y-146587553D01*
X201375256Y-146608702D01*
X201162611Y-146651000D01*
X200837389Y-146651000D01*
X200624744Y-146608702D01*
X200518421Y-146587553D01*
X200217958Y-146463097D01*
X199947549Y-146282415D01*
X199717585Y-146052451D01*
X199536903Y-145782042D01*
X199412447Y-145481579D01*
X199391298Y-145375256D01*
X199349000Y-145162611D01*
X199349000Y-144837389D01*
X199406258Y-144549534D01*
X199412447Y-144518421D01*
X199536903Y-144217958D01*
X199717585Y-143947549D01*
X199947549Y-143717585D01*
X200217958Y-143536903D01*
X200518421Y-143412447D01*
X200624744Y-143391298D01*
X200837389Y-143349000D01*
X201162611Y-143349000D01*
X201375256Y-143391298D01*
X201375256Y-143391298D01*
G37*
G36*
X144375256Y-143391298D02*
G01*
X144481579Y-143412447D01*
X144782042Y-143536903D01*
X145052451Y-143717585D01*
X145282415Y-143947549D01*
X145463097Y-144217958D01*
X145587553Y-144518421D01*
X145593742Y-144549534D01*
X145651000Y-144837389D01*
X145651000Y-145162611D01*
X145608702Y-145375256D01*
X145587553Y-145481579D01*
X145463097Y-145782042D01*
X145282415Y-146052451D01*
X145052451Y-146282415D01*
X144782042Y-146463097D01*
X144481579Y-146587553D01*
X144375256Y-146608702D01*
X144162611Y-146651000D01*
X143837389Y-146651000D01*
X143624744Y-146608702D01*
X143518421Y-146587553D01*
X143217958Y-146463097D01*
X142947549Y-146282415D01*
X142717585Y-146052451D01*
X142536903Y-145782042D01*
X142412447Y-145481579D01*
X142391298Y-145375256D01*
X142349000Y-145162611D01*
X142349000Y-144837389D01*
X142406258Y-144549534D01*
X142412447Y-144518421D01*
X142536903Y-144217958D01*
X142717585Y-143947549D01*
X142947549Y-143717585D01*
X143217958Y-143536903D01*
X143518421Y-143412447D01*
X143624744Y-143391298D01*
X143837389Y-143349000D01*
X144162611Y-143349000D01*
X144375256Y-143391298D01*
X144375256Y-143391298D01*
G37*
G36*
X109375256Y-143391298D02*
G01*
X109481579Y-143412447D01*
X109782042Y-143536903D01*
X110052451Y-143717585D01*
X110282415Y-143947549D01*
X110463097Y-144217958D01*
X110587553Y-144518421D01*
X110593742Y-144549534D01*
X110651000Y-144837389D01*
X110651000Y-145162611D01*
X110608702Y-145375256D01*
X110587553Y-145481579D01*
X110463097Y-145782042D01*
X110282415Y-146052451D01*
X110052451Y-146282415D01*
X109782042Y-146463097D01*
X109481579Y-146587553D01*
X109375256Y-146608702D01*
X109162611Y-146651000D01*
X108837389Y-146651000D01*
X108624744Y-146608702D01*
X108518421Y-146587553D01*
X108217958Y-146463097D01*
X107947549Y-146282415D01*
X107717585Y-146052451D01*
X107536903Y-145782042D01*
X107412447Y-145481579D01*
X107391298Y-145375256D01*
X107349000Y-145162611D01*
X107349000Y-144837389D01*
X107406258Y-144549534D01*
X107412447Y-144518421D01*
X107536903Y-144217958D01*
X107717585Y-143947549D01*
X107947549Y-143717585D01*
X108217958Y-143536903D01*
X108518421Y-143412447D01*
X108624744Y-143391298D01*
X108837389Y-143349000D01*
X109162611Y-143349000D01*
X109375256Y-143391298D01*
X109375256Y-143391298D01*
G37*
G36*
X191629487Y-143748996D02*
G01*
X191866253Y-143847068D01*
X191866255Y-143847069D01*
X192016634Y-143947549D01*
X192079339Y-143989447D01*
X192260553Y-144170661D01*
X192402932Y-144383747D01*
X192501004Y-144620513D01*
X192551000Y-144871861D01*
X192551000Y-145128139D01*
X192501004Y-145379487D01*
X192471603Y-145450466D01*
X192402931Y-145616255D01*
X192260553Y-145829339D01*
X192079339Y-146010553D01*
X191866255Y-146152931D01*
X191866254Y-146152932D01*
X191866253Y-146152932D01*
X191629487Y-146251004D01*
X191378139Y-146301000D01*
X191121861Y-146301000D01*
X190870513Y-146251004D01*
X190633747Y-146152932D01*
X190633746Y-146152932D01*
X190633745Y-146152931D01*
X190420661Y-146010553D01*
X190239447Y-145829339D01*
X190097069Y-145616255D01*
X190028397Y-145450466D01*
X189998996Y-145379487D01*
X189949000Y-145128139D01*
X189949000Y-144871861D01*
X189998996Y-144620513D01*
X190097068Y-144383747D01*
X190239447Y-144170661D01*
X190420661Y-143989447D01*
X190483366Y-143947549D01*
X190633745Y-143847069D01*
X190633747Y-143847068D01*
X190870513Y-143748996D01*
X191121861Y-143699000D01*
X191378139Y-143699000D01*
X191629487Y-143748996D01*
X191629487Y-143748996D01*
G37*
G36*
X195129487Y-143748996D02*
G01*
X195366253Y-143847068D01*
X195366255Y-143847069D01*
X195516634Y-143947549D01*
X195579339Y-143989447D01*
X195760553Y-144170661D01*
X195902932Y-144383747D01*
X196001004Y-144620513D01*
X196051000Y-144871861D01*
X196051000Y-145128139D01*
X196001004Y-145379487D01*
X195971603Y-145450466D01*
X195902931Y-145616255D01*
X195760553Y-145829339D01*
X195579339Y-146010553D01*
X195366255Y-146152931D01*
X195366254Y-146152932D01*
X195366253Y-146152932D01*
X195129487Y-146251004D01*
X194878139Y-146301000D01*
X194621861Y-146301000D01*
X194370513Y-146251004D01*
X194133747Y-146152932D01*
X194133746Y-146152932D01*
X194133745Y-146152931D01*
X193920661Y-146010553D01*
X193739447Y-145829339D01*
X193597069Y-145616255D01*
X193528397Y-145450466D01*
X193498996Y-145379487D01*
X193449000Y-145128139D01*
X193449000Y-144871861D01*
X193498996Y-144620513D01*
X193597068Y-144383747D01*
X193739447Y-144170661D01*
X193920661Y-143989447D01*
X193983366Y-143947549D01*
X194133745Y-143847069D01*
X194133747Y-143847068D01*
X194370513Y-143748996D01*
X194621861Y-143699000D01*
X194878139Y-143699000D01*
X195129487Y-143748996D01*
X195129487Y-143748996D01*
G37*
G36*
X170277395Y-144085546D02*
G01*
X170450466Y-144157234D01*
X170450467Y-144157235D01*
X170606227Y-144261310D01*
X170738690Y-144393773D01*
X170738691Y-144393775D01*
X170842766Y-144549534D01*
X170914454Y-144722605D01*
X170951000Y-144906333D01*
X170951000Y-145093667D01*
X170914454Y-145277395D01*
X170842766Y-145450466D01*
X170821977Y-145481579D01*
X170738690Y-145606227D01*
X170606227Y-145738690D01*
X170541349Y-145782040D01*
X170450466Y-145842766D01*
X170277395Y-145914454D01*
X170093667Y-145951000D01*
X169906333Y-145951000D01*
X169722605Y-145914454D01*
X169549534Y-145842766D01*
X169458651Y-145782040D01*
X169393773Y-145738690D01*
X169261310Y-145606227D01*
X169178023Y-145481579D01*
X169157234Y-145450466D01*
X169085546Y-145277395D01*
X169049000Y-145093667D01*
X169049000Y-144906333D01*
X169085546Y-144722605D01*
X169157234Y-144549534D01*
X169261309Y-144393775D01*
X169261310Y-144393773D01*
X169393773Y-144261310D01*
X169549533Y-144157235D01*
X169549534Y-144157234D01*
X169722605Y-144085546D01*
X169906333Y-144049000D01*
X170093667Y-144049000D01*
X170277395Y-144085546D01*
X170277395Y-144085546D01*
G37*
G36*
X167777395Y-144085546D02*
G01*
X167950466Y-144157234D01*
X167950467Y-144157235D01*
X168106227Y-144261310D01*
X168238690Y-144393773D01*
X168238691Y-144393775D01*
X168342766Y-144549534D01*
X168414454Y-144722605D01*
X168451000Y-144906333D01*
X168451000Y-145093667D01*
X168414454Y-145277395D01*
X168342766Y-145450466D01*
X168321977Y-145481579D01*
X168238690Y-145606227D01*
X168106227Y-145738690D01*
X168041349Y-145782040D01*
X167950466Y-145842766D01*
X167777395Y-145914454D01*
X167593667Y-145951000D01*
X167406333Y-145951000D01*
X167222605Y-145914454D01*
X167049534Y-145842766D01*
X166958651Y-145782040D01*
X166893773Y-145738690D01*
X166761310Y-145606227D01*
X166678023Y-145481579D01*
X166657234Y-145450466D01*
X166585546Y-145277395D01*
X166549000Y-145093667D01*
X166549000Y-144906333D01*
X166585546Y-144722605D01*
X166657234Y-144549534D01*
X166761309Y-144393775D01*
X166761310Y-144393773D01*
X166893773Y-144261310D01*
X167049533Y-144157235D01*
X167049534Y-144157234D01*
X167222605Y-144085546D01*
X167406333Y-144049000D01*
X167593667Y-144049000D01*
X167777395Y-144085546D01*
X167777395Y-144085546D01*
G37*
G36*
X165277395Y-144085546D02*
G01*
X165450466Y-144157234D01*
X165450467Y-144157235D01*
X165606227Y-144261310D01*
X165738690Y-144393773D01*
X165738691Y-144393775D01*
X165842766Y-144549534D01*
X165914454Y-144722605D01*
X165951000Y-144906333D01*
X165951000Y-145093667D01*
X165914454Y-145277395D01*
X165842766Y-145450466D01*
X165821977Y-145481579D01*
X165738690Y-145606227D01*
X165606227Y-145738690D01*
X165541349Y-145782040D01*
X165450466Y-145842766D01*
X165277395Y-145914454D01*
X165093667Y-145951000D01*
X164906333Y-145951000D01*
X164722605Y-145914454D01*
X164549534Y-145842766D01*
X164458651Y-145782040D01*
X164393773Y-145738690D01*
X164261310Y-145606227D01*
X164178023Y-145481579D01*
X164157234Y-145450466D01*
X164085546Y-145277395D01*
X164049000Y-145093667D01*
X164049000Y-144906333D01*
X164085546Y-144722605D01*
X164157234Y-144549534D01*
X164261309Y-144393775D01*
X164261310Y-144393773D01*
X164393773Y-144261310D01*
X164549533Y-144157235D01*
X164549534Y-144157234D01*
X164722605Y-144085546D01*
X164906333Y-144049000D01*
X165093667Y-144049000D01*
X165277395Y-144085546D01*
X165277395Y-144085546D01*
G37*
G36*
X197445171Y-139307436D02*
G01*
X197702410Y-139358604D01*
X197984674Y-139475521D01*
X198238705Y-139645259D01*
X198454741Y-139861295D01*
X198624479Y-140115326D01*
X198704292Y-140308013D01*
X198741396Y-140397591D01*
X198789357Y-140638704D01*
X198801000Y-140697240D01*
X198801000Y-141002760D01*
X198741396Y-141302410D01*
X198624479Y-141584674D01*
X198454741Y-141838705D01*
X198238705Y-142054741D01*
X197984674Y-142224479D01*
X197702410Y-142341396D01*
X197552585Y-142371198D01*
X197402761Y-142401000D01*
X197097239Y-142401000D01*
X196947415Y-142371198D01*
X196797590Y-142341396D01*
X196515326Y-142224479D01*
X196261295Y-142054741D01*
X196045259Y-141838705D01*
X195875521Y-141584674D01*
X195758604Y-141302410D01*
X195699000Y-141002760D01*
X195699000Y-140697240D01*
X195710644Y-140638704D01*
X195758604Y-140397591D01*
X195795708Y-140308013D01*
X195875521Y-140115326D01*
X196045259Y-139861295D01*
X196261295Y-139645259D01*
X196515326Y-139475521D01*
X196797590Y-139358604D01*
X197054829Y-139307436D01*
X197097239Y-139299000D01*
X197402761Y-139299000D01*
X197445171Y-139307436D01*
X197445171Y-139307436D01*
G37*
G36*
X189052585Y-138128802D02*
G01*
X189202410Y-138158604D01*
X189484674Y-138275521D01*
X189738705Y-138445259D01*
X189954741Y-138661295D01*
X190124479Y-138915326D01*
X190147751Y-138971511D01*
X190241396Y-139197591D01*
X190301000Y-139497239D01*
X190301000Y-139802761D01*
X190271198Y-139952585D01*
X190241396Y-140102410D01*
X190124479Y-140384674D01*
X189954741Y-140638705D01*
X189738705Y-140854741D01*
X189484674Y-141024479D01*
X189202410Y-141141396D01*
X189052585Y-141171198D01*
X188902761Y-141201000D01*
X188597239Y-141201000D01*
X188447415Y-141171198D01*
X188297590Y-141141396D01*
X188015326Y-141024479D01*
X187761295Y-140854741D01*
X187545259Y-140638705D01*
X187375521Y-140384674D01*
X187258604Y-140102410D01*
X187228802Y-139952585D01*
X187199000Y-139802761D01*
X187199000Y-139497239D01*
X187258604Y-139197591D01*
X187352249Y-138971511D01*
X187375521Y-138915326D01*
X187545259Y-138661295D01*
X187761295Y-138445259D01*
X188015326Y-138275521D01*
X188297590Y-138158604D01*
X188447415Y-138128802D01*
X188597239Y-138099000D01*
X188902761Y-138099000D01*
X189052585Y-138128802D01*
X189052585Y-138128802D01*
G37*
G36*
X131578571Y-139202863D02*
G01*
X131657023Y-139210590D01*
X131757682Y-139241125D01*
X131808013Y-139256392D01*
X131947165Y-139330771D01*
X132069133Y-139430867D01*
X132169229Y-139552835D01*
X132243608Y-139691987D01*
X132243608Y-139691988D01*
X132289410Y-139842977D01*
X132304875Y-140000000D01*
X132289410Y-140157023D01*
X132258875Y-140257682D01*
X132243608Y-140308013D01*
X132169229Y-140447165D01*
X132069133Y-140569133D01*
X131947165Y-140669229D01*
X131808013Y-140743608D01*
X131757682Y-140758875D01*
X131657023Y-140789410D01*
X131578571Y-140797137D01*
X131539346Y-140801000D01*
X129960654Y-140801000D01*
X129921429Y-140797137D01*
X129842977Y-140789410D01*
X129742318Y-140758875D01*
X129691987Y-140743608D01*
X129552835Y-140669229D01*
X129430867Y-140569133D01*
X129330771Y-140447165D01*
X129256392Y-140308013D01*
X129241125Y-140257682D01*
X129210590Y-140157023D01*
X129195125Y-140000000D01*
X129210590Y-139842977D01*
X129256392Y-139691988D01*
X129256392Y-139691987D01*
X129330771Y-139552835D01*
X129430867Y-139430867D01*
X129552835Y-139330771D01*
X129691987Y-139256392D01*
X129742318Y-139241125D01*
X129842977Y-139210590D01*
X129921429Y-139202863D01*
X129960654Y-139199000D01*
X131539346Y-139199000D01*
X131578571Y-139202863D01*
X131578571Y-139202863D01*
G37*
G36*
X138078571Y-139202863D02*
G01*
X138157023Y-139210590D01*
X138257682Y-139241125D01*
X138308013Y-139256392D01*
X138447165Y-139330771D01*
X138569133Y-139430867D01*
X138669229Y-139552835D01*
X138743608Y-139691987D01*
X138743608Y-139691988D01*
X138789410Y-139842977D01*
X138804875Y-140000000D01*
X138789410Y-140157023D01*
X138758875Y-140257682D01*
X138743608Y-140308013D01*
X138669229Y-140447165D01*
X138569133Y-140569133D01*
X138447165Y-140669229D01*
X138308013Y-140743608D01*
X138257682Y-140758875D01*
X138157023Y-140789410D01*
X138078571Y-140797137D01*
X138039346Y-140801000D01*
X136460654Y-140801000D01*
X136421429Y-140797137D01*
X136342977Y-140789410D01*
X136242318Y-140758875D01*
X136191987Y-140743608D01*
X136052835Y-140669229D01*
X135930867Y-140569133D01*
X135830771Y-140447165D01*
X135756392Y-140308013D01*
X135741125Y-140257682D01*
X135710590Y-140157023D01*
X135695125Y-140000000D01*
X135710590Y-139842977D01*
X135756392Y-139691988D01*
X135756392Y-139691987D01*
X135830771Y-139552835D01*
X135930867Y-139430867D01*
X136052835Y-139330771D01*
X136191987Y-139256392D01*
X136242318Y-139241125D01*
X136342977Y-139210590D01*
X136421429Y-139202863D01*
X136460654Y-139199000D01*
X138039346Y-139199000D01*
X138078571Y-139202863D01*
X138078571Y-139202863D01*
G37*
G36*
X117578571Y-139202863D02*
G01*
X117657023Y-139210590D01*
X117757682Y-139241125D01*
X117808013Y-139256392D01*
X117947165Y-139330771D01*
X118069133Y-139430867D01*
X118169229Y-139552835D01*
X118243608Y-139691987D01*
X118243608Y-139691988D01*
X118289410Y-139842977D01*
X118304875Y-140000000D01*
X118289410Y-140157023D01*
X118258875Y-140257682D01*
X118243608Y-140308013D01*
X118169229Y-140447165D01*
X118069133Y-140569133D01*
X117947165Y-140669229D01*
X117808013Y-140743608D01*
X117757682Y-140758875D01*
X117657023Y-140789410D01*
X117578571Y-140797137D01*
X117539346Y-140801000D01*
X115960654Y-140801000D01*
X115921429Y-140797137D01*
X115842977Y-140789410D01*
X115742318Y-140758875D01*
X115691987Y-140743608D01*
X115552835Y-140669229D01*
X115430867Y-140569133D01*
X115330771Y-140447165D01*
X115256392Y-140308013D01*
X115241125Y-140257682D01*
X115210590Y-140157023D01*
X115195125Y-140000000D01*
X115210590Y-139842977D01*
X115256392Y-139691988D01*
X115256392Y-139691987D01*
X115330771Y-139552835D01*
X115430867Y-139430867D01*
X115552835Y-139330771D01*
X115691987Y-139256392D01*
X115742318Y-139241125D01*
X115842977Y-139210590D01*
X115921429Y-139202863D01*
X115960654Y-139199000D01*
X117539346Y-139199000D01*
X117578571Y-139202863D01*
X117578571Y-139202863D01*
G37*
G36*
X124078571Y-139202863D02*
G01*
X124157023Y-139210590D01*
X124257682Y-139241125D01*
X124308013Y-139256392D01*
X124447165Y-139330771D01*
X124569133Y-139430867D01*
X124669229Y-139552835D01*
X124743608Y-139691987D01*
X124743608Y-139691988D01*
X124789410Y-139842977D01*
X124804875Y-140000000D01*
X124789410Y-140157023D01*
X124758875Y-140257682D01*
X124743608Y-140308013D01*
X124669229Y-140447165D01*
X124569133Y-140569133D01*
X124447165Y-140669229D01*
X124308013Y-140743608D01*
X124257682Y-140758875D01*
X124157023Y-140789410D01*
X124078571Y-140797137D01*
X124039346Y-140801000D01*
X122460654Y-140801000D01*
X122421429Y-140797137D01*
X122342977Y-140789410D01*
X122242318Y-140758875D01*
X122191987Y-140743608D01*
X122052835Y-140669229D01*
X121930867Y-140569133D01*
X121830771Y-140447165D01*
X121756392Y-140308013D01*
X121741125Y-140257682D01*
X121710590Y-140157023D01*
X121695125Y-140000000D01*
X121710590Y-139842977D01*
X121756392Y-139691988D01*
X121756392Y-139691987D01*
X121830771Y-139552835D01*
X121930867Y-139430867D01*
X122052835Y-139330771D01*
X122191987Y-139256392D01*
X122242318Y-139241125D01*
X122342977Y-139210590D01*
X122421429Y-139202863D01*
X122460654Y-139199000D01*
X124039346Y-139199000D01*
X124078571Y-139202863D01*
X124078571Y-139202863D01*
G37*
G36*
X154578571Y-139202863D02*
G01*
X154657023Y-139210590D01*
X154757682Y-139241125D01*
X154808013Y-139256392D01*
X154947165Y-139330771D01*
X155069133Y-139430867D01*
X155169229Y-139552835D01*
X155243608Y-139691987D01*
X155243608Y-139691988D01*
X155289410Y-139842977D01*
X155304875Y-140000000D01*
X155289410Y-140157023D01*
X155258875Y-140257682D01*
X155243608Y-140308013D01*
X155169229Y-140447165D01*
X155069133Y-140569133D01*
X154947165Y-140669229D01*
X154808013Y-140743608D01*
X154757682Y-140758875D01*
X154657023Y-140789410D01*
X154578571Y-140797137D01*
X154539346Y-140801000D01*
X152960654Y-140801000D01*
X152921429Y-140797137D01*
X152842977Y-140789410D01*
X152742318Y-140758875D01*
X152691987Y-140743608D01*
X152552835Y-140669229D01*
X152430867Y-140569133D01*
X152330771Y-140447165D01*
X152256392Y-140308013D01*
X152241125Y-140257682D01*
X152210590Y-140157023D01*
X152195125Y-140000000D01*
X152210590Y-139842977D01*
X152256392Y-139691988D01*
X152256392Y-139691987D01*
X152330771Y-139552835D01*
X152430867Y-139430867D01*
X152552835Y-139330771D01*
X152691987Y-139256392D01*
X152742318Y-139241125D01*
X152842977Y-139210590D01*
X152921429Y-139202863D01*
X152960654Y-139199000D01*
X154539346Y-139199000D01*
X154578571Y-139202863D01*
X154578571Y-139202863D01*
G37*
G36*
X148078571Y-139202863D02*
G01*
X148157023Y-139210590D01*
X148257682Y-139241125D01*
X148308013Y-139256392D01*
X148447165Y-139330771D01*
X148569133Y-139430867D01*
X148669229Y-139552835D01*
X148743608Y-139691987D01*
X148743608Y-139691988D01*
X148789410Y-139842977D01*
X148804875Y-140000000D01*
X148789410Y-140157023D01*
X148758875Y-140257682D01*
X148743608Y-140308013D01*
X148669229Y-140447165D01*
X148569133Y-140569133D01*
X148447165Y-140669229D01*
X148308013Y-140743608D01*
X148257682Y-140758875D01*
X148157023Y-140789410D01*
X148078571Y-140797137D01*
X148039346Y-140801000D01*
X146460654Y-140801000D01*
X146421429Y-140797137D01*
X146342977Y-140789410D01*
X146242318Y-140758875D01*
X146191987Y-140743608D01*
X146052835Y-140669229D01*
X145930867Y-140569133D01*
X145830771Y-140447165D01*
X145756392Y-140308013D01*
X145741125Y-140257682D01*
X145710590Y-140157023D01*
X145695125Y-140000000D01*
X145710590Y-139842977D01*
X145756392Y-139691988D01*
X145756392Y-139691987D01*
X145830771Y-139552835D01*
X145930867Y-139430867D01*
X146052835Y-139330771D01*
X146191987Y-139256392D01*
X146242318Y-139241125D01*
X146342977Y-139210590D01*
X146421429Y-139202863D01*
X146460654Y-139199000D01*
X148039346Y-139199000D01*
X148078571Y-139202863D01*
X148078571Y-139202863D01*
G37*
G36*
X172498254Y-136027818D02*
G01*
X172871511Y-136182426D01*
X172871513Y-136182427D01*
X173207436Y-136406884D01*
X173493116Y-136692564D01*
X173645035Y-136919926D01*
X173717574Y-137028489D01*
X173872182Y-137401746D01*
X173951000Y-137797993D01*
X173951000Y-138202007D01*
X173872182Y-138598254D01*
X173740846Y-138915328D01*
X173717573Y-138971513D01*
X173493116Y-139307436D01*
X173207436Y-139593116D01*
X172871513Y-139817573D01*
X172871512Y-139817574D01*
X172871511Y-139817574D01*
X172498254Y-139972182D01*
X172102007Y-140051000D01*
X171697993Y-140051000D01*
X171301746Y-139972182D01*
X170928489Y-139817574D01*
X170928488Y-139817574D01*
X170928487Y-139817573D01*
X170592564Y-139593116D01*
X170306884Y-139307436D01*
X170082427Y-138971513D01*
X170059154Y-138915328D01*
X169927818Y-138598254D01*
X169849000Y-138202007D01*
X169849000Y-137797993D01*
X169927818Y-137401746D01*
X170082426Y-137028489D01*
X170154966Y-136919926D01*
X170306884Y-136692564D01*
X170592564Y-136406884D01*
X170928487Y-136182427D01*
X170928489Y-136182426D01*
X171301746Y-136027818D01*
X171697993Y-135949000D01*
X172102007Y-135949000D01*
X172498254Y-136027818D01*
X172498254Y-136027818D01*
G37*
G36*
X163698254Y-136027818D02*
G01*
X164071511Y-136182426D01*
X164071513Y-136182427D01*
X164407436Y-136406884D01*
X164693116Y-136692564D01*
X164845035Y-136919926D01*
X164917574Y-137028489D01*
X165072182Y-137401746D01*
X165151000Y-137797993D01*
X165151000Y-138202007D01*
X165072182Y-138598254D01*
X164940846Y-138915328D01*
X164917573Y-138971513D01*
X164693116Y-139307436D01*
X164407436Y-139593116D01*
X164071513Y-139817573D01*
X164071512Y-139817574D01*
X164071511Y-139817574D01*
X163698254Y-139972182D01*
X163302007Y-140051000D01*
X162897993Y-140051000D01*
X162501746Y-139972182D01*
X162128489Y-139817574D01*
X162128488Y-139817574D01*
X162128487Y-139817573D01*
X161792564Y-139593116D01*
X161506884Y-139307436D01*
X161282427Y-138971513D01*
X161259154Y-138915328D01*
X161127818Y-138598254D01*
X161049000Y-138202007D01*
X161049000Y-137797993D01*
X161127818Y-137401746D01*
X161282426Y-137028489D01*
X161354966Y-136919926D01*
X161506884Y-136692564D01*
X161792564Y-136406884D01*
X162128487Y-136182427D01*
X162128489Y-136182426D01*
X162501746Y-136027818D01*
X162897993Y-135949000D01*
X163302007Y-135949000D01*
X163698254Y-136027818D01*
X163698254Y-136027818D01*
G37*
G36*
X178237142Y-136218242D02*
G01*
X178385101Y-136279529D01*
X178518255Y-136368499D01*
X178631501Y-136481745D01*
X178720471Y-136614899D01*
X178781758Y-136762858D01*
X178813000Y-136919925D01*
X178813000Y-137080075D01*
X178781758Y-137237142D01*
X178720471Y-137385101D01*
X178631501Y-137518255D01*
X178518255Y-137631501D01*
X178385101Y-137720471D01*
X178237142Y-137781758D01*
X178080075Y-137813000D01*
X177919925Y-137813000D01*
X177762858Y-137781758D01*
X177614899Y-137720471D01*
X177481745Y-137631501D01*
X177368499Y-137518255D01*
X177279529Y-137385101D01*
X177218242Y-137237142D01*
X177187000Y-137080075D01*
X177187000Y-136919925D01*
X177218242Y-136762858D01*
X177279529Y-136614899D01*
X177368499Y-136481745D01*
X177481745Y-136368499D01*
X177614899Y-136279529D01*
X177762858Y-136218242D01*
X177919925Y-136187000D01*
X178080075Y-136187000D01*
X178237142Y-136218242D01*
X178237142Y-136218242D01*
G37*
G36*
X185237142Y-136218242D02*
G01*
X185385101Y-136279529D01*
X185518255Y-136368499D01*
X185631501Y-136481745D01*
X185720471Y-136614899D01*
X185781758Y-136762858D01*
X185813000Y-136919925D01*
X185813000Y-137080075D01*
X185781758Y-137237142D01*
X185720471Y-137385101D01*
X185631501Y-137518255D01*
X185518255Y-137631501D01*
X185385101Y-137720471D01*
X185237142Y-137781758D01*
X185080075Y-137813000D01*
X184919925Y-137813000D01*
X184762858Y-137781758D01*
X184614899Y-137720471D01*
X184481745Y-137631501D01*
X184368499Y-137518255D01*
X184279529Y-137385101D01*
X184218242Y-137237142D01*
X184187000Y-137080075D01*
X184187000Y-136919925D01*
X184218242Y-136762858D01*
X184279529Y-136614899D01*
X184368499Y-136481745D01*
X184481745Y-136368499D01*
X184614899Y-136279529D01*
X184762858Y-136218242D01*
X184919925Y-136187000D01*
X185080075Y-136187000D01*
X185237142Y-136218242D01*
X185237142Y-136218242D01*
G37*
G36*
X154578571Y-134702863D02*
G01*
X154657023Y-134710590D01*
X154757682Y-134741125D01*
X154808013Y-134756392D01*
X154947165Y-134830771D01*
X155069133Y-134930867D01*
X155169229Y-135052835D01*
X155243608Y-135191987D01*
X155243608Y-135191988D01*
X155289410Y-135342977D01*
X155304875Y-135500000D01*
X155289410Y-135657023D01*
X155258875Y-135757682D01*
X155243608Y-135808013D01*
X155169229Y-135947165D01*
X155069133Y-136069133D01*
X154947165Y-136169229D01*
X154808013Y-136243608D01*
X154757682Y-136258875D01*
X154657023Y-136289410D01*
X154578571Y-136297137D01*
X154539346Y-136301000D01*
X152960654Y-136301000D01*
X152921429Y-136297137D01*
X152842977Y-136289410D01*
X152742318Y-136258875D01*
X152691987Y-136243608D01*
X152552835Y-136169229D01*
X152430867Y-136069133D01*
X152330771Y-135947165D01*
X152256392Y-135808013D01*
X152241125Y-135757682D01*
X152210590Y-135657023D01*
X152195125Y-135500000D01*
X152210590Y-135342977D01*
X152256392Y-135191988D01*
X152256392Y-135191987D01*
X152330771Y-135052835D01*
X152430867Y-134930867D01*
X152552835Y-134830771D01*
X152691987Y-134756392D01*
X152742318Y-134741125D01*
X152842977Y-134710590D01*
X152921429Y-134702863D01*
X152960654Y-134699000D01*
X154539346Y-134699000D01*
X154578571Y-134702863D01*
X154578571Y-134702863D01*
G37*
G36*
X148078571Y-134702863D02*
G01*
X148157023Y-134710590D01*
X148257682Y-134741125D01*
X148308013Y-134756392D01*
X148447165Y-134830771D01*
X148569133Y-134930867D01*
X148669229Y-135052835D01*
X148743608Y-135191987D01*
X148743608Y-135191988D01*
X148789410Y-135342977D01*
X148804875Y-135500000D01*
X148789410Y-135657023D01*
X148758875Y-135757682D01*
X148743608Y-135808013D01*
X148669229Y-135947165D01*
X148569133Y-136069133D01*
X148447165Y-136169229D01*
X148308013Y-136243608D01*
X148257682Y-136258875D01*
X148157023Y-136289410D01*
X148078571Y-136297137D01*
X148039346Y-136301000D01*
X146460654Y-136301000D01*
X146421429Y-136297137D01*
X146342977Y-136289410D01*
X146242318Y-136258875D01*
X146191987Y-136243608D01*
X146052835Y-136169229D01*
X145930867Y-136069133D01*
X145830771Y-135947165D01*
X145756392Y-135808013D01*
X145741125Y-135757682D01*
X145710590Y-135657023D01*
X145695125Y-135500000D01*
X145710590Y-135342977D01*
X145756392Y-135191988D01*
X145756392Y-135191987D01*
X145830771Y-135052835D01*
X145930867Y-134930867D01*
X146052835Y-134830771D01*
X146191987Y-134756392D01*
X146242318Y-134741125D01*
X146342977Y-134710590D01*
X146421429Y-134702863D01*
X146460654Y-134699000D01*
X148039346Y-134699000D01*
X148078571Y-134702863D01*
X148078571Y-134702863D01*
G37*
G36*
X138078571Y-134702863D02*
G01*
X138157023Y-134710590D01*
X138257682Y-134741125D01*
X138308013Y-134756392D01*
X138447165Y-134830771D01*
X138569133Y-134930867D01*
X138669229Y-135052835D01*
X138743608Y-135191987D01*
X138743608Y-135191988D01*
X138789410Y-135342977D01*
X138804875Y-135500000D01*
X138789410Y-135657023D01*
X138758875Y-135757682D01*
X138743608Y-135808013D01*
X138669229Y-135947165D01*
X138569133Y-136069133D01*
X138447165Y-136169229D01*
X138308013Y-136243608D01*
X138257682Y-136258875D01*
X138157023Y-136289410D01*
X138078571Y-136297137D01*
X138039346Y-136301000D01*
X136460654Y-136301000D01*
X136421429Y-136297137D01*
X136342977Y-136289410D01*
X136242318Y-136258875D01*
X136191987Y-136243608D01*
X136052835Y-136169229D01*
X135930867Y-136069133D01*
X135830771Y-135947165D01*
X135756392Y-135808013D01*
X135741125Y-135757682D01*
X135710590Y-135657023D01*
X135695125Y-135500000D01*
X135710590Y-135342977D01*
X135756392Y-135191988D01*
X135756392Y-135191987D01*
X135830771Y-135052835D01*
X135930867Y-134930867D01*
X136052835Y-134830771D01*
X136191987Y-134756392D01*
X136242318Y-134741125D01*
X136342977Y-134710590D01*
X136421429Y-134702863D01*
X136460654Y-134699000D01*
X138039346Y-134699000D01*
X138078571Y-134702863D01*
X138078571Y-134702863D01*
G37*
G36*
X131578571Y-134702863D02*
G01*
X131657023Y-134710590D01*
X131757682Y-134741125D01*
X131808013Y-134756392D01*
X131947165Y-134830771D01*
X132069133Y-134930867D01*
X132169229Y-135052835D01*
X132243608Y-135191987D01*
X132243608Y-135191988D01*
X132289410Y-135342977D01*
X132304875Y-135500000D01*
X132289410Y-135657023D01*
X132258875Y-135757682D01*
X132243608Y-135808013D01*
X132169229Y-135947165D01*
X132069133Y-136069133D01*
X131947165Y-136169229D01*
X131808013Y-136243608D01*
X131757682Y-136258875D01*
X131657023Y-136289410D01*
X131578571Y-136297137D01*
X131539346Y-136301000D01*
X129960654Y-136301000D01*
X129921429Y-136297137D01*
X129842977Y-136289410D01*
X129742318Y-136258875D01*
X129691987Y-136243608D01*
X129552835Y-136169229D01*
X129430867Y-136069133D01*
X129330771Y-135947165D01*
X129256392Y-135808013D01*
X129241125Y-135757682D01*
X129210590Y-135657023D01*
X129195125Y-135500000D01*
X129210590Y-135342977D01*
X129256392Y-135191988D01*
X129256392Y-135191987D01*
X129330771Y-135052835D01*
X129430867Y-134930867D01*
X129552835Y-134830771D01*
X129691987Y-134756392D01*
X129742318Y-134741125D01*
X129842977Y-134710590D01*
X129921429Y-134702863D01*
X129960654Y-134699000D01*
X131539346Y-134699000D01*
X131578571Y-134702863D01*
X131578571Y-134702863D01*
G37*
G36*
X124078571Y-134702863D02*
G01*
X124157023Y-134710590D01*
X124257682Y-134741125D01*
X124308013Y-134756392D01*
X124447165Y-134830771D01*
X124569133Y-134930867D01*
X124669229Y-135052835D01*
X124743608Y-135191987D01*
X124743608Y-135191988D01*
X124789410Y-135342977D01*
X124804875Y-135500000D01*
X124789410Y-135657023D01*
X124758875Y-135757682D01*
X124743608Y-135808013D01*
X124669229Y-135947165D01*
X124569133Y-136069133D01*
X124447165Y-136169229D01*
X124308013Y-136243608D01*
X124257682Y-136258875D01*
X124157023Y-136289410D01*
X124078571Y-136297137D01*
X124039346Y-136301000D01*
X122460654Y-136301000D01*
X122421429Y-136297137D01*
X122342977Y-136289410D01*
X122242318Y-136258875D01*
X122191987Y-136243608D01*
X122052835Y-136169229D01*
X121930867Y-136069133D01*
X121830771Y-135947165D01*
X121756392Y-135808013D01*
X121741125Y-135757682D01*
X121710590Y-135657023D01*
X121695125Y-135500000D01*
X121710590Y-135342977D01*
X121756392Y-135191988D01*
X121756392Y-135191987D01*
X121830771Y-135052835D01*
X121930867Y-134930867D01*
X122052835Y-134830771D01*
X122191987Y-134756392D01*
X122242318Y-134741125D01*
X122342977Y-134710590D01*
X122421429Y-134702863D01*
X122460654Y-134699000D01*
X124039346Y-134699000D01*
X124078571Y-134702863D01*
X124078571Y-134702863D01*
G37*
G36*
X117578571Y-134702863D02*
G01*
X117657023Y-134710590D01*
X117757682Y-134741125D01*
X117808013Y-134756392D01*
X117947165Y-134830771D01*
X118069133Y-134930867D01*
X118169229Y-135052835D01*
X118243608Y-135191987D01*
X118243608Y-135191988D01*
X118289410Y-135342977D01*
X118304875Y-135500000D01*
X118289410Y-135657023D01*
X118258875Y-135757682D01*
X118243608Y-135808013D01*
X118169229Y-135947165D01*
X118069133Y-136069133D01*
X117947165Y-136169229D01*
X117808013Y-136243608D01*
X117757682Y-136258875D01*
X117657023Y-136289410D01*
X117578571Y-136297137D01*
X117539346Y-136301000D01*
X115960654Y-136301000D01*
X115921429Y-136297137D01*
X115842977Y-136289410D01*
X115742318Y-136258875D01*
X115691987Y-136243608D01*
X115552835Y-136169229D01*
X115430867Y-136069133D01*
X115330771Y-135947165D01*
X115256392Y-135808013D01*
X115241125Y-135757682D01*
X115210590Y-135657023D01*
X115195125Y-135500000D01*
X115210590Y-135342977D01*
X115256392Y-135191988D01*
X115256392Y-135191987D01*
X115330771Y-135052835D01*
X115430867Y-134930867D01*
X115552835Y-134830771D01*
X115691987Y-134756392D01*
X115742318Y-134741125D01*
X115842977Y-134710590D01*
X115921429Y-134702863D01*
X115960654Y-134699000D01*
X117539346Y-134699000D01*
X117578571Y-134702863D01*
X117578571Y-134702863D01*
G37*
G36*
X140697142Y-127218242D02*
G01*
X140845101Y-127279529D01*
X140978255Y-127368499D01*
X141091501Y-127481745D01*
X141180471Y-127614899D01*
X141241758Y-127762858D01*
X141273000Y-127919925D01*
X141273000Y-128080075D01*
X141241758Y-128237142D01*
X141180471Y-128385101D01*
X141091501Y-128518255D01*
X140978255Y-128631501D01*
X140845101Y-128720471D01*
X140697142Y-128781758D01*
X140540075Y-128813000D01*
X140379925Y-128813000D01*
X140222858Y-128781758D01*
X140074899Y-128720471D01*
X139941745Y-128631501D01*
X139828499Y-128518255D01*
X139739529Y-128385101D01*
X139678242Y-128237142D01*
X139647000Y-128080075D01*
X139647000Y-127919925D01*
X139678242Y-127762858D01*
X139739529Y-127614899D01*
X139828499Y-127481745D01*
X139941745Y-127368499D01*
X140074899Y-127279529D01*
X140222858Y-127218242D01*
X140379925Y-127187000D01*
X140540075Y-127187000D01*
X140697142Y-127218242D01*
X140697142Y-127218242D01*
G37*
G36*
X134317142Y-127218242D02*
G01*
X134465101Y-127279529D01*
X134598255Y-127368499D01*
X134711501Y-127481745D01*
X134800471Y-127614899D01*
X134861758Y-127762858D01*
X134893000Y-127919925D01*
X134893000Y-128080075D01*
X134861758Y-128237142D01*
X134800471Y-128385101D01*
X134711501Y-128518255D01*
X134598255Y-128631501D01*
X134465101Y-128720471D01*
X134317142Y-128781758D01*
X134160075Y-128813000D01*
X133999925Y-128813000D01*
X133842858Y-128781758D01*
X133694899Y-128720471D01*
X133561745Y-128631501D01*
X133448499Y-128518255D01*
X133359529Y-128385101D01*
X133298242Y-128237142D01*
X133267000Y-128080075D01*
X133267000Y-127919925D01*
X133298242Y-127762858D01*
X133359529Y-127614899D01*
X133448499Y-127481745D01*
X133561745Y-127368499D01*
X133694899Y-127279529D01*
X133842858Y-127218242D01*
X133999925Y-127187000D01*
X134160075Y-127187000D01*
X134317142Y-127218242D01*
X134317142Y-127218242D01*
G37*
G36*
X138157142Y-127218242D02*
G01*
X138305101Y-127279529D01*
X138438255Y-127368499D01*
X138551501Y-127481745D01*
X138640471Y-127614899D01*
X138701758Y-127762858D01*
X138733000Y-127919925D01*
X138733000Y-128080075D01*
X138701758Y-128237142D01*
X138640471Y-128385101D01*
X138551501Y-128518255D01*
X138438255Y-128631501D01*
X138305101Y-128720471D01*
X138157142Y-128781758D01*
X138000075Y-128813000D01*
X137839925Y-128813000D01*
X137682858Y-128781758D01*
X137534899Y-128720471D01*
X137401745Y-128631501D01*
X137288499Y-128518255D01*
X137199529Y-128385101D01*
X137138242Y-128237142D01*
X137107000Y-128080075D01*
X137107000Y-127919925D01*
X137138242Y-127762858D01*
X137199529Y-127614899D01*
X137288499Y-127481745D01*
X137401745Y-127368499D01*
X137534899Y-127279529D01*
X137682858Y-127218242D01*
X137839925Y-127187000D01*
X138000075Y-127187000D01*
X138157142Y-127218242D01*
X138157142Y-127218242D01*
G37*
G36*
X152157142Y-127218242D02*
G01*
X152305101Y-127279529D01*
X152438255Y-127368499D01*
X152551501Y-127481745D01*
X152640471Y-127614899D01*
X152701758Y-127762858D01*
X152733000Y-127919925D01*
X152733000Y-128080075D01*
X152701758Y-128237142D01*
X152640471Y-128385101D01*
X152551501Y-128518255D01*
X152438255Y-128631501D01*
X152305101Y-128720471D01*
X152157142Y-128781758D01*
X152000075Y-128813000D01*
X151839925Y-128813000D01*
X151682858Y-128781758D01*
X151534899Y-128720471D01*
X151401745Y-128631501D01*
X151288499Y-128518255D01*
X151199529Y-128385101D01*
X151138242Y-128237142D01*
X151107000Y-128080075D01*
X151107000Y-127919925D01*
X151138242Y-127762858D01*
X151199529Y-127614899D01*
X151288499Y-127481745D01*
X151401745Y-127368499D01*
X151534899Y-127279529D01*
X151682858Y-127218242D01*
X151839925Y-127187000D01*
X152000075Y-127187000D01*
X152157142Y-127218242D01*
X152157142Y-127218242D01*
G37*
G36*
X168697142Y-127218242D02*
G01*
X168845101Y-127279529D01*
X168978255Y-127368499D01*
X169091501Y-127481745D01*
X169180471Y-127614899D01*
X169241758Y-127762858D01*
X169273000Y-127919925D01*
X169273000Y-128080075D01*
X169241758Y-128237142D01*
X169180471Y-128385101D01*
X169091501Y-128518255D01*
X168978255Y-128631501D01*
X168845101Y-128720471D01*
X168697142Y-128781758D01*
X168540075Y-128813000D01*
X168379925Y-128813000D01*
X168222858Y-128781758D01*
X168074899Y-128720471D01*
X167941745Y-128631501D01*
X167828499Y-128518255D01*
X167739529Y-128385101D01*
X167678242Y-128237142D01*
X167647000Y-128080075D01*
X167647000Y-127919925D01*
X167678242Y-127762858D01*
X167739529Y-127614899D01*
X167828499Y-127481745D01*
X167941745Y-127368499D01*
X168074899Y-127279529D01*
X168222858Y-127218242D01*
X168379925Y-127187000D01*
X168540075Y-127187000D01*
X168697142Y-127218242D01*
X168697142Y-127218242D01*
G37*
G36*
X171237142Y-127218242D02*
G01*
X171385101Y-127279529D01*
X171518255Y-127368499D01*
X171631501Y-127481745D01*
X171720471Y-127614899D01*
X171781758Y-127762858D01*
X171813000Y-127919925D01*
X171813000Y-128080075D01*
X171781758Y-128237142D01*
X171720471Y-128385101D01*
X171631501Y-128518255D01*
X171518255Y-128631501D01*
X171385101Y-128720471D01*
X171237142Y-128781758D01*
X171080075Y-128813000D01*
X170919925Y-128813000D01*
X170762858Y-128781758D01*
X170614899Y-128720471D01*
X170481745Y-128631501D01*
X170368499Y-128518255D01*
X170279529Y-128385101D01*
X170218242Y-128237142D01*
X170187000Y-128080075D01*
X170187000Y-127919925D01*
X170218242Y-127762858D01*
X170279529Y-127614899D01*
X170368499Y-127481745D01*
X170481745Y-127368499D01*
X170614899Y-127279529D01*
X170762858Y-127218242D01*
X170919925Y-127187000D01*
X171080075Y-127187000D01*
X171237142Y-127218242D01*
X171237142Y-127218242D01*
G37*
G36*
X154697142Y-127218242D02*
G01*
X154845101Y-127279529D01*
X154978255Y-127368499D01*
X155091501Y-127481745D01*
X155180471Y-127614899D01*
X155241758Y-127762858D01*
X155273000Y-127919925D01*
X155273000Y-128080075D01*
X155241758Y-128237142D01*
X155180471Y-128385101D01*
X155091501Y-128518255D01*
X154978255Y-128631501D01*
X154845101Y-128720471D01*
X154697142Y-128781758D01*
X154540075Y-128813000D01*
X154379925Y-128813000D01*
X154222858Y-128781758D01*
X154074899Y-128720471D01*
X153941745Y-128631501D01*
X153828499Y-128518255D01*
X153739529Y-128385101D01*
X153678242Y-128237142D01*
X153647000Y-128080075D01*
X153647000Y-127919925D01*
X153678242Y-127762858D01*
X153739529Y-127614899D01*
X153828499Y-127481745D01*
X153941745Y-127368499D01*
X154074899Y-127279529D01*
X154222858Y-127218242D01*
X154379925Y-127187000D01*
X154540075Y-127187000D01*
X154697142Y-127218242D01*
X154697142Y-127218242D01*
G37*
G36*
X176317142Y-127218242D02*
G01*
X176465101Y-127279529D01*
X176598255Y-127368499D01*
X176711501Y-127481745D01*
X176800471Y-127614899D01*
X176861758Y-127762858D01*
X176893000Y-127919925D01*
X176893000Y-128080075D01*
X176861758Y-128237142D01*
X176800471Y-128385101D01*
X176711501Y-128518255D01*
X176598255Y-128631501D01*
X176465101Y-128720471D01*
X176317142Y-128781758D01*
X176160075Y-128813000D01*
X175999925Y-128813000D01*
X175842858Y-128781758D01*
X175694899Y-128720471D01*
X175561745Y-128631501D01*
X175448499Y-128518255D01*
X175359529Y-128385101D01*
X175298242Y-128237142D01*
X175267000Y-128080075D01*
X175267000Y-127919925D01*
X175298242Y-127762858D01*
X175359529Y-127614899D01*
X175448499Y-127481745D01*
X175561745Y-127368499D01*
X175694899Y-127279529D01*
X175842858Y-127218242D01*
X175999925Y-127187000D01*
X176160075Y-127187000D01*
X176317142Y-127218242D01*
X176317142Y-127218242D01*
G37*
G36*
X124157142Y-127218242D02*
G01*
X124305101Y-127279529D01*
X124438255Y-127368499D01*
X124551501Y-127481745D01*
X124640471Y-127614899D01*
X124701758Y-127762858D01*
X124733000Y-127919925D01*
X124733000Y-128080075D01*
X124701758Y-128237142D01*
X124640471Y-128385101D01*
X124551501Y-128518255D01*
X124438255Y-128631501D01*
X124305101Y-128720471D01*
X124157142Y-128781758D01*
X124000075Y-128813000D01*
X123839925Y-128813000D01*
X123682858Y-128781758D01*
X123534899Y-128720471D01*
X123401745Y-128631501D01*
X123288499Y-128518255D01*
X123199529Y-128385101D01*
X123138242Y-128237142D01*
X123107000Y-128080075D01*
X123107000Y-127919925D01*
X123138242Y-127762858D01*
X123199529Y-127614899D01*
X123288499Y-127481745D01*
X123401745Y-127368499D01*
X123534899Y-127279529D01*
X123682858Y-127218242D01*
X123839925Y-127187000D01*
X124000075Y-127187000D01*
X124157142Y-127218242D01*
X124157142Y-127218242D01*
G37*
G36*
X126697142Y-127218242D02*
G01*
X126845101Y-127279529D01*
X126978255Y-127368499D01*
X127091501Y-127481745D01*
X127180471Y-127614899D01*
X127241758Y-127762858D01*
X127273000Y-127919925D01*
X127273000Y-128080075D01*
X127241758Y-128237142D01*
X127180471Y-128385101D01*
X127091501Y-128518255D01*
X126978255Y-128631501D01*
X126845101Y-128720471D01*
X126697142Y-128781758D01*
X126540075Y-128813000D01*
X126379925Y-128813000D01*
X126222858Y-128781758D01*
X126074899Y-128720471D01*
X125941745Y-128631501D01*
X125828499Y-128518255D01*
X125739529Y-128385101D01*
X125678242Y-128237142D01*
X125647000Y-128080075D01*
X125647000Y-127919925D01*
X125678242Y-127762858D01*
X125739529Y-127614899D01*
X125828499Y-127481745D01*
X125941745Y-127368499D01*
X126074899Y-127279529D01*
X126222858Y-127218242D01*
X126379925Y-127187000D01*
X126540075Y-127187000D01*
X126697142Y-127218242D01*
X126697142Y-127218242D01*
G37*
G36*
X129237142Y-127218242D02*
G01*
X129385101Y-127279529D01*
X129518255Y-127368499D01*
X129631501Y-127481745D01*
X129720471Y-127614899D01*
X129781758Y-127762858D01*
X129813000Y-127919925D01*
X129813000Y-128080075D01*
X129781758Y-128237142D01*
X129720471Y-128385101D01*
X129631501Y-128518255D01*
X129518255Y-128631501D01*
X129385101Y-128720471D01*
X129237142Y-128781758D01*
X129080075Y-128813000D01*
X128919925Y-128813000D01*
X128762858Y-128781758D01*
X128614899Y-128720471D01*
X128481745Y-128631501D01*
X128368499Y-128518255D01*
X128279529Y-128385101D01*
X128218242Y-128237142D01*
X128187000Y-128080075D01*
X128187000Y-127919925D01*
X128218242Y-127762858D01*
X128279529Y-127614899D01*
X128368499Y-127481745D01*
X128481745Y-127368499D01*
X128614899Y-127279529D01*
X128762858Y-127218242D01*
X128919925Y-127187000D01*
X129080075Y-127187000D01*
X129237142Y-127218242D01*
X129237142Y-127218242D01*
G37*
G36*
X131777142Y-127218242D02*
G01*
X131925101Y-127279529D01*
X132058255Y-127368499D01*
X132171501Y-127481745D01*
X132260471Y-127614899D01*
X132321758Y-127762858D01*
X132353000Y-127919925D01*
X132353000Y-128080075D01*
X132321758Y-128237142D01*
X132260471Y-128385101D01*
X132171501Y-128518255D01*
X132058255Y-128631501D01*
X131925101Y-128720471D01*
X131777142Y-128781758D01*
X131620075Y-128813000D01*
X131459925Y-128813000D01*
X131302858Y-128781758D01*
X131154899Y-128720471D01*
X131021745Y-128631501D01*
X130908499Y-128518255D01*
X130819529Y-128385101D01*
X130758242Y-128237142D01*
X130727000Y-128080075D01*
X130727000Y-127919925D01*
X130758242Y-127762858D01*
X130819529Y-127614899D01*
X130908499Y-127481745D01*
X131021745Y-127368499D01*
X131154899Y-127279529D01*
X131302858Y-127218242D01*
X131459925Y-127187000D01*
X131620075Y-127187000D01*
X131777142Y-127218242D01*
X131777142Y-127218242D01*
G37*
G36*
X145777142Y-127218242D02*
G01*
X145925101Y-127279529D01*
X146058255Y-127368499D01*
X146171501Y-127481745D01*
X146260471Y-127614899D01*
X146321758Y-127762858D01*
X146353000Y-127919925D01*
X146353000Y-128080075D01*
X146321758Y-128237142D01*
X146260471Y-128385101D01*
X146171501Y-128518255D01*
X146058255Y-128631501D01*
X145925101Y-128720471D01*
X145777142Y-128781758D01*
X145620075Y-128813000D01*
X145459925Y-128813000D01*
X145302858Y-128781758D01*
X145154899Y-128720471D01*
X145021745Y-128631501D01*
X144908499Y-128518255D01*
X144819529Y-128385101D01*
X144758242Y-128237142D01*
X144727000Y-128080075D01*
X144727000Y-127919925D01*
X144758242Y-127762858D01*
X144819529Y-127614899D01*
X144908499Y-127481745D01*
X145021745Y-127368499D01*
X145154899Y-127279529D01*
X145302858Y-127218242D01*
X145459925Y-127187000D01*
X145620075Y-127187000D01*
X145777142Y-127218242D01*
X145777142Y-127218242D01*
G37*
G36*
X143237142Y-127218242D02*
G01*
X143385101Y-127279529D01*
X143518255Y-127368499D01*
X143631501Y-127481745D01*
X143720471Y-127614899D01*
X143781758Y-127762858D01*
X143813000Y-127919925D01*
X143813000Y-128080075D01*
X143781758Y-128237142D01*
X143720471Y-128385101D01*
X143631501Y-128518255D01*
X143518255Y-128631501D01*
X143385101Y-128720471D01*
X143237142Y-128781758D01*
X143080075Y-128813000D01*
X142919925Y-128813000D01*
X142762858Y-128781758D01*
X142614899Y-128720471D01*
X142481745Y-128631501D01*
X142368499Y-128518255D01*
X142279529Y-128385101D01*
X142218242Y-128237142D01*
X142187000Y-128080075D01*
X142187000Y-127919925D01*
X142218242Y-127762858D01*
X142279529Y-127614899D01*
X142368499Y-127481745D01*
X142481745Y-127368499D01*
X142614899Y-127279529D01*
X142762858Y-127218242D01*
X142919925Y-127187000D01*
X143080075Y-127187000D01*
X143237142Y-127218242D01*
X143237142Y-127218242D01*
G37*
G36*
X112697142Y-127218242D02*
G01*
X112845101Y-127279529D01*
X112978255Y-127368499D01*
X113091501Y-127481745D01*
X113180471Y-127614899D01*
X113241758Y-127762858D01*
X113273000Y-127919925D01*
X113273000Y-128080075D01*
X113241758Y-128237142D01*
X113180471Y-128385101D01*
X113091501Y-128518255D01*
X112978255Y-128631501D01*
X112845101Y-128720471D01*
X112697142Y-128781758D01*
X112540075Y-128813000D01*
X112379925Y-128813000D01*
X112222858Y-128781758D01*
X112074899Y-128720471D01*
X111941745Y-128631501D01*
X111828499Y-128518255D01*
X111739529Y-128385101D01*
X111678242Y-128237142D01*
X111647000Y-128080075D01*
X111647000Y-127919925D01*
X111678242Y-127762858D01*
X111739529Y-127614899D01*
X111828499Y-127481745D01*
X111941745Y-127368499D01*
X112074899Y-127279529D01*
X112222858Y-127218242D01*
X112379925Y-127187000D01*
X112540075Y-127187000D01*
X112697142Y-127218242D01*
X112697142Y-127218242D01*
G37*
G36*
X115237142Y-127218242D02*
G01*
X115385101Y-127279529D01*
X115518255Y-127368499D01*
X115631501Y-127481745D01*
X115720471Y-127614899D01*
X115781758Y-127762858D01*
X115813000Y-127919925D01*
X115813000Y-128080075D01*
X115781758Y-128237142D01*
X115720471Y-128385101D01*
X115631501Y-128518255D01*
X115518255Y-128631501D01*
X115385101Y-128720471D01*
X115237142Y-128781758D01*
X115080075Y-128813000D01*
X114919925Y-128813000D01*
X114762858Y-128781758D01*
X114614899Y-128720471D01*
X114481745Y-128631501D01*
X114368499Y-128518255D01*
X114279529Y-128385101D01*
X114218242Y-128237142D01*
X114187000Y-128080075D01*
X114187000Y-127919925D01*
X114218242Y-127762858D01*
X114279529Y-127614899D01*
X114368499Y-127481745D01*
X114481745Y-127368499D01*
X114614899Y-127279529D01*
X114762858Y-127218242D01*
X114919925Y-127187000D01*
X115080075Y-127187000D01*
X115237142Y-127218242D01*
X115237142Y-127218242D01*
G37*
G36*
X117777142Y-127218242D02*
G01*
X117925101Y-127279529D01*
X118058255Y-127368499D01*
X118171501Y-127481745D01*
X118260471Y-127614899D01*
X118321758Y-127762858D01*
X118353000Y-127919925D01*
X118353000Y-128080075D01*
X118321758Y-128237142D01*
X118260471Y-128385101D01*
X118171501Y-128518255D01*
X118058255Y-128631501D01*
X117925101Y-128720471D01*
X117777142Y-128781758D01*
X117620075Y-128813000D01*
X117459925Y-128813000D01*
X117302858Y-128781758D01*
X117154899Y-128720471D01*
X117021745Y-128631501D01*
X116908499Y-128518255D01*
X116819529Y-128385101D01*
X116758242Y-128237142D01*
X116727000Y-128080075D01*
X116727000Y-127919925D01*
X116758242Y-127762858D01*
X116819529Y-127614899D01*
X116908499Y-127481745D01*
X117021745Y-127368499D01*
X117154899Y-127279529D01*
X117302858Y-127218242D01*
X117459925Y-127187000D01*
X117620075Y-127187000D01*
X117777142Y-127218242D01*
X117777142Y-127218242D01*
G37*
G36*
X120317142Y-127218242D02*
G01*
X120465101Y-127279529D01*
X120598255Y-127368499D01*
X120711501Y-127481745D01*
X120800471Y-127614899D01*
X120861758Y-127762858D01*
X120893000Y-127919925D01*
X120893000Y-128080075D01*
X120861758Y-128237142D01*
X120800471Y-128385101D01*
X120711501Y-128518255D01*
X120598255Y-128631501D01*
X120465101Y-128720471D01*
X120317142Y-128781758D01*
X120160075Y-128813000D01*
X119999925Y-128813000D01*
X119842858Y-128781758D01*
X119694899Y-128720471D01*
X119561745Y-128631501D01*
X119448499Y-128518255D01*
X119359529Y-128385101D01*
X119298242Y-128237142D01*
X119267000Y-128080075D01*
X119267000Y-127919925D01*
X119298242Y-127762858D01*
X119359529Y-127614899D01*
X119448499Y-127481745D01*
X119561745Y-127368499D01*
X119694899Y-127279529D01*
X119842858Y-127218242D01*
X119999925Y-127187000D01*
X120160075Y-127187000D01*
X120317142Y-127218242D01*
X120317142Y-127218242D01*
G37*
G36*
X173777142Y-127218242D02*
G01*
X173925101Y-127279529D01*
X174058255Y-127368499D01*
X174171501Y-127481745D01*
X174260471Y-127614899D01*
X174321758Y-127762858D01*
X174353000Y-127919925D01*
X174353000Y-128080075D01*
X174321758Y-128237142D01*
X174260471Y-128385101D01*
X174171501Y-128518255D01*
X174058255Y-128631501D01*
X173925101Y-128720471D01*
X173777142Y-128781758D01*
X173620075Y-128813000D01*
X173459925Y-128813000D01*
X173302858Y-128781758D01*
X173154899Y-128720471D01*
X173021745Y-128631501D01*
X172908499Y-128518255D01*
X172819529Y-128385101D01*
X172758242Y-128237142D01*
X172727000Y-128080075D01*
X172727000Y-127919925D01*
X172758242Y-127762858D01*
X172819529Y-127614899D01*
X172908499Y-127481745D01*
X173021745Y-127368499D01*
X173154899Y-127279529D01*
X173302858Y-127218242D01*
X173459925Y-127187000D01*
X173620075Y-127187000D01*
X173777142Y-127218242D01*
X173777142Y-127218242D01*
G37*
G36*
X166157142Y-127218242D02*
G01*
X166305101Y-127279529D01*
X166438255Y-127368499D01*
X166551501Y-127481745D01*
X166640471Y-127614899D01*
X166701758Y-127762858D01*
X166733000Y-127919925D01*
X166733000Y-128080075D01*
X166701758Y-128237142D01*
X166640471Y-128385101D01*
X166551501Y-128518255D01*
X166438255Y-128631501D01*
X166305101Y-128720471D01*
X166157142Y-128781758D01*
X166000075Y-128813000D01*
X165839925Y-128813000D01*
X165682858Y-128781758D01*
X165534899Y-128720471D01*
X165401745Y-128631501D01*
X165288499Y-128518255D01*
X165199529Y-128385101D01*
X165138242Y-128237142D01*
X165107000Y-128080075D01*
X165107000Y-127919925D01*
X165138242Y-127762858D01*
X165199529Y-127614899D01*
X165288499Y-127481745D01*
X165401745Y-127368499D01*
X165534899Y-127279529D01*
X165682858Y-127218242D01*
X165839925Y-127187000D01*
X166000075Y-127187000D01*
X166157142Y-127218242D01*
X166157142Y-127218242D01*
G37*
G36*
X157237142Y-127218242D02*
G01*
X157385101Y-127279529D01*
X157518255Y-127368499D01*
X157631501Y-127481745D01*
X157720471Y-127614899D01*
X157781758Y-127762858D01*
X157813000Y-127919925D01*
X157813000Y-128080075D01*
X157781758Y-128237142D01*
X157720471Y-128385101D01*
X157631501Y-128518255D01*
X157518255Y-128631501D01*
X157385101Y-128720471D01*
X157237142Y-128781758D01*
X157080075Y-128813000D01*
X156919925Y-128813000D01*
X156762858Y-128781758D01*
X156614899Y-128720471D01*
X156481745Y-128631501D01*
X156368499Y-128518255D01*
X156279529Y-128385101D01*
X156218242Y-128237142D01*
X156187000Y-128080075D01*
X156187000Y-127919925D01*
X156218242Y-127762858D01*
X156279529Y-127614899D01*
X156368499Y-127481745D01*
X156481745Y-127368499D01*
X156614899Y-127279529D01*
X156762858Y-127218242D01*
X156919925Y-127187000D01*
X157080075Y-127187000D01*
X157237142Y-127218242D01*
X157237142Y-127218242D01*
G37*
G36*
X159777142Y-127218242D02*
G01*
X159925101Y-127279529D01*
X160058255Y-127368499D01*
X160171501Y-127481745D01*
X160260471Y-127614899D01*
X160321758Y-127762858D01*
X160353000Y-127919925D01*
X160353000Y-128080075D01*
X160321758Y-128237142D01*
X160260471Y-128385101D01*
X160171501Y-128518255D01*
X160058255Y-128631501D01*
X159925101Y-128720471D01*
X159777142Y-128781758D01*
X159620075Y-128813000D01*
X159459925Y-128813000D01*
X159302858Y-128781758D01*
X159154899Y-128720471D01*
X159021745Y-128631501D01*
X158908499Y-128518255D01*
X158819529Y-128385101D01*
X158758242Y-128237142D01*
X158727000Y-128080075D01*
X158727000Y-127919925D01*
X158758242Y-127762858D01*
X158819529Y-127614899D01*
X158908499Y-127481745D01*
X159021745Y-127368499D01*
X159154899Y-127279529D01*
X159302858Y-127218242D01*
X159459925Y-127187000D01*
X159620075Y-127187000D01*
X159777142Y-127218242D01*
X159777142Y-127218242D01*
G37*
G36*
X110157142Y-127218242D02*
G01*
X110305101Y-127279529D01*
X110438255Y-127368499D01*
X110551501Y-127481745D01*
X110640471Y-127614899D01*
X110701758Y-127762858D01*
X110733000Y-127919925D01*
X110733000Y-128080075D01*
X110701758Y-128237142D01*
X110640471Y-128385101D01*
X110551501Y-128518255D01*
X110438255Y-128631501D01*
X110305101Y-128720471D01*
X110157142Y-128781758D01*
X110000075Y-128813000D01*
X109839925Y-128813000D01*
X109682858Y-128781758D01*
X109534899Y-128720471D01*
X109401745Y-128631501D01*
X109288499Y-128518255D01*
X109199529Y-128385101D01*
X109138242Y-128237142D01*
X109107000Y-128080075D01*
X109107000Y-127919925D01*
X109138242Y-127762858D01*
X109199529Y-127614899D01*
X109288499Y-127481745D01*
X109401745Y-127368499D01*
X109534899Y-127279529D01*
X109682858Y-127218242D01*
X109839925Y-127187000D01*
X110000075Y-127187000D01*
X110157142Y-127218242D01*
X110157142Y-127218242D01*
G37*
G36*
X162317142Y-127218242D02*
G01*
X162465101Y-127279529D01*
X162598255Y-127368499D01*
X162711501Y-127481745D01*
X162800471Y-127614899D01*
X162861758Y-127762858D01*
X162893000Y-127919925D01*
X162893000Y-128080075D01*
X162861758Y-128237142D01*
X162800471Y-128385101D01*
X162711501Y-128518255D01*
X162598255Y-128631501D01*
X162465101Y-128720471D01*
X162317142Y-128781758D01*
X162160075Y-128813000D01*
X161999925Y-128813000D01*
X161842858Y-128781758D01*
X161694899Y-128720471D01*
X161561745Y-128631501D01*
X161448499Y-128518255D01*
X161359529Y-128385101D01*
X161298242Y-128237142D01*
X161267000Y-128080075D01*
X161267000Y-127919925D01*
X161298242Y-127762858D01*
X161359529Y-127614899D01*
X161448499Y-127481745D01*
X161561745Y-127368499D01*
X161694899Y-127279529D01*
X161842858Y-127218242D01*
X161999925Y-127187000D01*
X162160075Y-127187000D01*
X162317142Y-127218242D01*
X162317142Y-127218242D01*
G37*
G36*
X148317142Y-127218242D02*
G01*
X148465101Y-127279529D01*
X148598255Y-127368499D01*
X148711501Y-127481745D01*
X148800471Y-127614899D01*
X148861758Y-127762858D01*
X148893000Y-127919925D01*
X148893000Y-128080075D01*
X148861758Y-128237142D01*
X148800471Y-128385101D01*
X148711501Y-128518255D01*
X148598255Y-128631501D01*
X148465101Y-128720471D01*
X148317142Y-128781758D01*
X148160075Y-128813000D01*
X147999925Y-128813000D01*
X147842858Y-128781758D01*
X147694899Y-128720471D01*
X147561745Y-128631501D01*
X147448499Y-128518255D01*
X147359529Y-128385101D01*
X147298242Y-128237142D01*
X147267000Y-128080075D01*
X147267000Y-127919925D01*
X147298242Y-127762858D01*
X147359529Y-127614899D01*
X147448499Y-127481745D01*
X147561745Y-127368499D01*
X147694899Y-127279529D01*
X147842858Y-127218242D01*
X147999925Y-127187000D01*
X148160075Y-127187000D01*
X148317142Y-127218242D01*
X148317142Y-127218242D01*
G37*
G36*
X148317142Y-111978242D02*
G01*
X148465101Y-112039529D01*
X148598255Y-112128499D01*
X148711501Y-112241745D01*
X148800471Y-112374899D01*
X148861758Y-112522858D01*
X148893000Y-112679925D01*
X148893000Y-112840075D01*
X148861758Y-112997142D01*
X148800471Y-113145101D01*
X148711501Y-113278255D01*
X148598255Y-113391501D01*
X148465101Y-113480471D01*
X148317142Y-113541758D01*
X148160075Y-113573000D01*
X147999925Y-113573000D01*
X147842858Y-113541758D01*
X147694899Y-113480471D01*
X147561745Y-113391501D01*
X147448499Y-113278255D01*
X147359529Y-113145101D01*
X147298242Y-112997142D01*
X147267000Y-112840075D01*
X147267000Y-112679925D01*
X147298242Y-112522858D01*
X147359529Y-112374899D01*
X147448499Y-112241745D01*
X147561745Y-112128499D01*
X147694899Y-112039529D01*
X147842858Y-111978242D01*
X147999925Y-111947000D01*
X148160075Y-111947000D01*
X148317142Y-111978242D01*
X148317142Y-111978242D01*
G37*
G36*
X129237142Y-111978242D02*
G01*
X129385101Y-112039529D01*
X129518255Y-112128499D01*
X129631501Y-112241745D01*
X129720471Y-112374899D01*
X129781758Y-112522858D01*
X129813000Y-112679925D01*
X129813000Y-112840075D01*
X129781758Y-112997142D01*
X129720471Y-113145101D01*
X129631501Y-113278255D01*
X129518255Y-113391501D01*
X129385101Y-113480471D01*
X129237142Y-113541758D01*
X129080075Y-113573000D01*
X128919925Y-113573000D01*
X128762858Y-113541758D01*
X128614899Y-113480471D01*
X128481745Y-113391501D01*
X128368499Y-113278255D01*
X128279529Y-113145101D01*
X128218242Y-112997142D01*
X128187000Y-112840075D01*
X128187000Y-112679925D01*
X128218242Y-112522858D01*
X128279529Y-112374899D01*
X128368499Y-112241745D01*
X128481745Y-112128499D01*
X128614899Y-112039529D01*
X128762858Y-111978242D01*
X128919925Y-111947000D01*
X129080075Y-111947000D01*
X129237142Y-111978242D01*
X129237142Y-111978242D01*
G37*
G36*
X131777142Y-111978242D02*
G01*
X131925101Y-112039529D01*
X132058255Y-112128499D01*
X132171501Y-112241745D01*
X132260471Y-112374899D01*
X132321758Y-112522858D01*
X132353000Y-112679925D01*
X132353000Y-112840075D01*
X132321758Y-112997142D01*
X132260471Y-113145101D01*
X132171501Y-113278255D01*
X132058255Y-113391501D01*
X131925101Y-113480471D01*
X131777142Y-113541758D01*
X131620075Y-113573000D01*
X131459925Y-113573000D01*
X131302858Y-113541758D01*
X131154899Y-113480471D01*
X131021745Y-113391501D01*
X130908499Y-113278255D01*
X130819529Y-113145101D01*
X130758242Y-112997142D01*
X130727000Y-112840075D01*
X130727000Y-112679925D01*
X130758242Y-112522858D01*
X130819529Y-112374899D01*
X130908499Y-112241745D01*
X131021745Y-112128499D01*
X131154899Y-112039529D01*
X131302858Y-111978242D01*
X131459925Y-111947000D01*
X131620075Y-111947000D01*
X131777142Y-111978242D01*
X131777142Y-111978242D01*
G37*
G36*
X138157142Y-111978242D02*
G01*
X138305101Y-112039529D01*
X138438255Y-112128499D01*
X138551501Y-112241745D01*
X138640471Y-112374899D01*
X138701758Y-112522858D01*
X138733000Y-112679925D01*
X138733000Y-112840075D01*
X138701758Y-112997142D01*
X138640471Y-113145101D01*
X138551501Y-113278255D01*
X138438255Y-113391501D01*
X138305101Y-113480471D01*
X138157142Y-113541758D01*
X138000075Y-113573000D01*
X137839925Y-113573000D01*
X137682858Y-113541758D01*
X137534899Y-113480471D01*
X137401745Y-113391501D01*
X137288499Y-113278255D01*
X137199529Y-113145101D01*
X137138242Y-112997142D01*
X137107000Y-112840075D01*
X137107000Y-112679925D01*
X137138242Y-112522858D01*
X137199529Y-112374899D01*
X137288499Y-112241745D01*
X137401745Y-112128499D01*
X137534899Y-112039529D01*
X137682858Y-111978242D01*
X137839925Y-111947000D01*
X138000075Y-111947000D01*
X138157142Y-111978242D01*
X138157142Y-111978242D01*
G37*
G36*
X140697142Y-111978242D02*
G01*
X140845101Y-112039529D01*
X140978255Y-112128499D01*
X141091501Y-112241745D01*
X141180471Y-112374899D01*
X141241758Y-112522858D01*
X141273000Y-112679925D01*
X141273000Y-112840075D01*
X141241758Y-112997142D01*
X141180471Y-113145101D01*
X141091501Y-113278255D01*
X140978255Y-113391501D01*
X140845101Y-113480471D01*
X140697142Y-113541758D01*
X140540075Y-113573000D01*
X140379925Y-113573000D01*
X140222858Y-113541758D01*
X140074899Y-113480471D01*
X139941745Y-113391501D01*
X139828499Y-113278255D01*
X139739529Y-113145101D01*
X139678242Y-112997142D01*
X139647000Y-112840075D01*
X139647000Y-112679925D01*
X139678242Y-112522858D01*
X139739529Y-112374899D01*
X139828499Y-112241745D01*
X139941745Y-112128499D01*
X140074899Y-112039529D01*
X140222858Y-111978242D01*
X140379925Y-111947000D01*
X140540075Y-111947000D01*
X140697142Y-111978242D01*
X140697142Y-111978242D01*
G37*
G36*
X143237142Y-111978242D02*
G01*
X143385101Y-112039529D01*
X143518255Y-112128499D01*
X143631501Y-112241745D01*
X143720471Y-112374899D01*
X143781758Y-112522858D01*
X143813000Y-112679925D01*
X143813000Y-112840075D01*
X143781758Y-112997142D01*
X143720471Y-113145101D01*
X143631501Y-113278255D01*
X143518255Y-113391501D01*
X143385101Y-113480471D01*
X143237142Y-113541758D01*
X143080075Y-113573000D01*
X142919925Y-113573000D01*
X142762858Y-113541758D01*
X142614899Y-113480471D01*
X142481745Y-113391501D01*
X142368499Y-113278255D01*
X142279529Y-113145101D01*
X142218242Y-112997142D01*
X142187000Y-112840075D01*
X142187000Y-112679925D01*
X142218242Y-112522858D01*
X142279529Y-112374899D01*
X142368499Y-112241745D01*
X142481745Y-112128499D01*
X142614899Y-112039529D01*
X142762858Y-111978242D01*
X142919925Y-111947000D01*
X143080075Y-111947000D01*
X143237142Y-111978242D01*
X143237142Y-111978242D01*
G37*
G36*
X162317142Y-111978242D02*
G01*
X162465101Y-112039529D01*
X162598255Y-112128499D01*
X162711501Y-112241745D01*
X162800471Y-112374899D01*
X162861758Y-112522858D01*
X162893000Y-112679925D01*
X162893000Y-112840075D01*
X162861758Y-112997142D01*
X162800471Y-113145101D01*
X162711501Y-113278255D01*
X162598255Y-113391501D01*
X162465101Y-113480471D01*
X162317142Y-113541758D01*
X162160075Y-113573000D01*
X161999925Y-113573000D01*
X161842858Y-113541758D01*
X161694899Y-113480471D01*
X161561745Y-113391501D01*
X161448499Y-113278255D01*
X161359529Y-113145101D01*
X161298242Y-112997142D01*
X161267000Y-112840075D01*
X161267000Y-112679925D01*
X161298242Y-112522858D01*
X161359529Y-112374899D01*
X161448499Y-112241745D01*
X161561745Y-112128499D01*
X161694899Y-112039529D01*
X161842858Y-111978242D01*
X161999925Y-111947000D01*
X162160075Y-111947000D01*
X162317142Y-111978242D01*
X162317142Y-111978242D01*
G37*
G36*
X159777142Y-111978242D02*
G01*
X159925101Y-112039529D01*
X160058255Y-112128499D01*
X160171501Y-112241745D01*
X160260471Y-112374899D01*
X160321758Y-112522858D01*
X160353000Y-112679925D01*
X160353000Y-112840075D01*
X160321758Y-112997142D01*
X160260471Y-113145101D01*
X160171501Y-113278255D01*
X160058255Y-113391501D01*
X159925101Y-113480471D01*
X159777142Y-113541758D01*
X159620075Y-113573000D01*
X159459925Y-113573000D01*
X159302858Y-113541758D01*
X159154899Y-113480471D01*
X159021745Y-113391501D01*
X158908499Y-113278255D01*
X158819529Y-113145101D01*
X158758242Y-112997142D01*
X158727000Y-112840075D01*
X158727000Y-112679925D01*
X158758242Y-112522858D01*
X158819529Y-112374899D01*
X158908499Y-112241745D01*
X159021745Y-112128499D01*
X159154899Y-112039529D01*
X159302858Y-111978242D01*
X159459925Y-111947000D01*
X159620075Y-111947000D01*
X159777142Y-111978242D01*
X159777142Y-111978242D01*
G37*
G36*
X176317142Y-111978242D02*
G01*
X176465101Y-112039529D01*
X176598255Y-112128499D01*
X176711501Y-112241745D01*
X176800471Y-112374899D01*
X176861758Y-112522858D01*
X176893000Y-112679925D01*
X176893000Y-112840075D01*
X176861758Y-112997142D01*
X176800471Y-113145101D01*
X176711501Y-113278255D01*
X176598255Y-113391501D01*
X176465101Y-113480471D01*
X176317142Y-113541758D01*
X176160075Y-113573000D01*
X175999925Y-113573000D01*
X175842858Y-113541758D01*
X175694899Y-113480471D01*
X175561745Y-113391501D01*
X175448499Y-113278255D01*
X175359529Y-113145101D01*
X175298242Y-112997142D01*
X175267000Y-112840075D01*
X175267000Y-112679925D01*
X175298242Y-112522858D01*
X175359529Y-112374899D01*
X175448499Y-112241745D01*
X175561745Y-112128499D01*
X175694899Y-112039529D01*
X175842858Y-111978242D01*
X175999925Y-111947000D01*
X176160075Y-111947000D01*
X176317142Y-111978242D01*
X176317142Y-111978242D01*
G37*
G36*
X173777142Y-111978242D02*
G01*
X173925101Y-112039529D01*
X174058255Y-112128499D01*
X174171501Y-112241745D01*
X174260471Y-112374899D01*
X174321758Y-112522858D01*
X174353000Y-112679925D01*
X174353000Y-112840075D01*
X174321758Y-112997142D01*
X174260471Y-113145101D01*
X174171501Y-113278255D01*
X174058255Y-113391501D01*
X173925101Y-113480471D01*
X173777142Y-113541758D01*
X173620075Y-113573000D01*
X173459925Y-113573000D01*
X173302858Y-113541758D01*
X173154899Y-113480471D01*
X173021745Y-113391501D01*
X172908499Y-113278255D01*
X172819529Y-113145101D01*
X172758242Y-112997142D01*
X172727000Y-112840075D01*
X172727000Y-112679925D01*
X172758242Y-112522858D01*
X172819529Y-112374899D01*
X172908499Y-112241745D01*
X173021745Y-112128499D01*
X173154899Y-112039529D01*
X173302858Y-111978242D01*
X173459925Y-111947000D01*
X173620075Y-111947000D01*
X173777142Y-111978242D01*
X173777142Y-111978242D01*
G37*
G36*
X171237142Y-111978242D02*
G01*
X171385101Y-112039529D01*
X171518255Y-112128499D01*
X171631501Y-112241745D01*
X171720471Y-112374899D01*
X171781758Y-112522858D01*
X171813000Y-112679925D01*
X171813000Y-112840075D01*
X171781758Y-112997142D01*
X171720471Y-113145101D01*
X171631501Y-113278255D01*
X171518255Y-113391501D01*
X171385101Y-113480471D01*
X171237142Y-113541758D01*
X171080075Y-113573000D01*
X170919925Y-113573000D01*
X170762858Y-113541758D01*
X170614899Y-113480471D01*
X170481745Y-113391501D01*
X170368499Y-113278255D01*
X170279529Y-113145101D01*
X170218242Y-112997142D01*
X170187000Y-112840075D01*
X170187000Y-112679925D01*
X170218242Y-112522858D01*
X170279529Y-112374899D01*
X170368499Y-112241745D01*
X170481745Y-112128499D01*
X170614899Y-112039529D01*
X170762858Y-111978242D01*
X170919925Y-111947000D01*
X171080075Y-111947000D01*
X171237142Y-111978242D01*
X171237142Y-111978242D01*
G37*
G36*
X168697142Y-111978242D02*
G01*
X168845101Y-112039529D01*
X168978255Y-112128499D01*
X169091501Y-112241745D01*
X169180471Y-112374899D01*
X169241758Y-112522858D01*
X169273000Y-112679925D01*
X169273000Y-112840075D01*
X169241758Y-112997142D01*
X169180471Y-113145101D01*
X169091501Y-113278255D01*
X168978255Y-113391501D01*
X168845101Y-113480471D01*
X168697142Y-113541758D01*
X168540075Y-113573000D01*
X168379925Y-113573000D01*
X168222858Y-113541758D01*
X168074899Y-113480471D01*
X167941745Y-113391501D01*
X167828499Y-113278255D01*
X167739529Y-113145101D01*
X167678242Y-112997142D01*
X167647000Y-112840075D01*
X167647000Y-112679925D01*
X167678242Y-112522858D01*
X167739529Y-112374899D01*
X167828499Y-112241745D01*
X167941745Y-112128499D01*
X168074899Y-112039529D01*
X168222858Y-111978242D01*
X168379925Y-111947000D01*
X168540075Y-111947000D01*
X168697142Y-111978242D01*
X168697142Y-111978242D01*
G37*
G36*
X166157142Y-111978242D02*
G01*
X166305101Y-112039529D01*
X166438255Y-112128499D01*
X166551501Y-112241745D01*
X166640471Y-112374899D01*
X166701758Y-112522858D01*
X166733000Y-112679925D01*
X166733000Y-112840075D01*
X166701758Y-112997142D01*
X166640471Y-113145101D01*
X166551501Y-113278255D01*
X166438255Y-113391501D01*
X166305101Y-113480471D01*
X166157142Y-113541758D01*
X166000075Y-113573000D01*
X165839925Y-113573000D01*
X165682858Y-113541758D01*
X165534899Y-113480471D01*
X165401745Y-113391501D01*
X165288499Y-113278255D01*
X165199529Y-113145101D01*
X165138242Y-112997142D01*
X165107000Y-112840075D01*
X165107000Y-112679925D01*
X165138242Y-112522858D01*
X165199529Y-112374899D01*
X165288499Y-112241745D01*
X165401745Y-112128499D01*
X165534899Y-112039529D01*
X165682858Y-111978242D01*
X165839925Y-111947000D01*
X166000075Y-111947000D01*
X166157142Y-111978242D01*
X166157142Y-111978242D01*
G37*
G36*
X145777142Y-111978242D02*
G01*
X145925101Y-112039529D01*
X146058255Y-112128499D01*
X146171501Y-112241745D01*
X146260471Y-112374899D01*
X146321758Y-112522858D01*
X146353000Y-112679925D01*
X146353000Y-112840075D01*
X146321758Y-112997142D01*
X146260471Y-113145101D01*
X146171501Y-113278255D01*
X146058255Y-113391501D01*
X145925101Y-113480471D01*
X145777142Y-113541758D01*
X145620075Y-113573000D01*
X145459925Y-113573000D01*
X145302858Y-113541758D01*
X145154899Y-113480471D01*
X145021745Y-113391501D01*
X144908499Y-113278255D01*
X144819529Y-113145101D01*
X144758242Y-112997142D01*
X144727000Y-112840075D01*
X144727000Y-112679925D01*
X144758242Y-112522858D01*
X144819529Y-112374899D01*
X144908499Y-112241745D01*
X145021745Y-112128499D01*
X145154899Y-112039529D01*
X145302858Y-111978242D01*
X145459925Y-111947000D01*
X145620075Y-111947000D01*
X145777142Y-111978242D01*
X145777142Y-111978242D01*
G37*
G36*
X112697142Y-111978242D02*
G01*
X112845101Y-112039529D01*
X112978255Y-112128499D01*
X113091501Y-112241745D01*
X113180471Y-112374899D01*
X113241758Y-112522858D01*
X113273000Y-112679925D01*
X113273000Y-112840075D01*
X113241758Y-112997142D01*
X113180471Y-113145101D01*
X113091501Y-113278255D01*
X112978255Y-113391501D01*
X112845101Y-113480471D01*
X112697142Y-113541758D01*
X112540075Y-113573000D01*
X112379925Y-113573000D01*
X112222858Y-113541758D01*
X112074899Y-113480471D01*
X111941745Y-113391501D01*
X111828499Y-113278255D01*
X111739529Y-113145101D01*
X111678242Y-112997142D01*
X111647000Y-112840075D01*
X111647000Y-112679925D01*
X111678242Y-112522858D01*
X111739529Y-112374899D01*
X111828499Y-112241745D01*
X111941745Y-112128499D01*
X112074899Y-112039529D01*
X112222858Y-111978242D01*
X112379925Y-111947000D01*
X112540075Y-111947000D01*
X112697142Y-111978242D01*
X112697142Y-111978242D01*
G37*
G36*
X126697142Y-111978242D02*
G01*
X126845101Y-112039529D01*
X126978255Y-112128499D01*
X127091501Y-112241745D01*
X127180471Y-112374899D01*
X127241758Y-112522858D01*
X127273000Y-112679925D01*
X127273000Y-112840075D01*
X127241758Y-112997142D01*
X127180471Y-113145101D01*
X127091501Y-113278255D01*
X126978255Y-113391501D01*
X126845101Y-113480471D01*
X126697142Y-113541758D01*
X126540075Y-113573000D01*
X126379925Y-113573000D01*
X126222858Y-113541758D01*
X126074899Y-113480471D01*
X125941745Y-113391501D01*
X125828499Y-113278255D01*
X125739529Y-113145101D01*
X125678242Y-112997142D01*
X125647000Y-112840075D01*
X125647000Y-112679925D01*
X125678242Y-112522858D01*
X125739529Y-112374899D01*
X125828499Y-112241745D01*
X125941745Y-112128499D01*
X126074899Y-112039529D01*
X126222858Y-111978242D01*
X126379925Y-111947000D01*
X126540075Y-111947000D01*
X126697142Y-111978242D01*
X126697142Y-111978242D01*
G37*
G36*
X124157142Y-111978242D02*
G01*
X124305101Y-112039529D01*
X124438255Y-112128499D01*
X124551501Y-112241745D01*
X124640471Y-112374899D01*
X124701758Y-112522858D01*
X124733000Y-112679925D01*
X124733000Y-112840075D01*
X124701758Y-112997142D01*
X124640471Y-113145101D01*
X124551501Y-113278255D01*
X124438255Y-113391501D01*
X124305101Y-113480471D01*
X124157142Y-113541758D01*
X124000075Y-113573000D01*
X123839925Y-113573000D01*
X123682858Y-113541758D01*
X123534899Y-113480471D01*
X123401745Y-113391501D01*
X123288499Y-113278255D01*
X123199529Y-113145101D01*
X123138242Y-112997142D01*
X123107000Y-112840075D01*
X123107000Y-112679925D01*
X123138242Y-112522858D01*
X123199529Y-112374899D01*
X123288499Y-112241745D01*
X123401745Y-112128499D01*
X123534899Y-112039529D01*
X123682858Y-111978242D01*
X123839925Y-111947000D01*
X124000075Y-111947000D01*
X124157142Y-111978242D01*
X124157142Y-111978242D01*
G37*
G36*
X157237142Y-111978242D02*
G01*
X157385101Y-112039529D01*
X157518255Y-112128499D01*
X157631501Y-112241745D01*
X157720471Y-112374899D01*
X157781758Y-112522858D01*
X157813000Y-112679925D01*
X157813000Y-112840075D01*
X157781758Y-112997142D01*
X157720471Y-113145101D01*
X157631501Y-113278255D01*
X157518255Y-113391501D01*
X157385101Y-113480471D01*
X157237142Y-113541758D01*
X157080075Y-113573000D01*
X156919925Y-113573000D01*
X156762858Y-113541758D01*
X156614899Y-113480471D01*
X156481745Y-113391501D01*
X156368499Y-113278255D01*
X156279529Y-113145101D01*
X156218242Y-112997142D01*
X156187000Y-112840075D01*
X156187000Y-112679925D01*
X156218242Y-112522858D01*
X156279529Y-112374899D01*
X156368499Y-112241745D01*
X156481745Y-112128499D01*
X156614899Y-112039529D01*
X156762858Y-111978242D01*
X156919925Y-111947000D01*
X157080075Y-111947000D01*
X157237142Y-111978242D01*
X157237142Y-111978242D01*
G37*
G36*
X154697142Y-111978242D02*
G01*
X154845101Y-112039529D01*
X154978255Y-112128499D01*
X155091501Y-112241745D01*
X155180471Y-112374899D01*
X155241758Y-112522858D01*
X155273000Y-112679925D01*
X155273000Y-112840075D01*
X155241758Y-112997142D01*
X155180471Y-113145101D01*
X155091501Y-113278255D01*
X154978255Y-113391501D01*
X154845101Y-113480471D01*
X154697142Y-113541758D01*
X154540075Y-113573000D01*
X154379925Y-113573000D01*
X154222858Y-113541758D01*
X154074899Y-113480471D01*
X153941745Y-113391501D01*
X153828499Y-113278255D01*
X153739529Y-113145101D01*
X153678242Y-112997142D01*
X153647000Y-112840075D01*
X153647000Y-112679925D01*
X153678242Y-112522858D01*
X153739529Y-112374899D01*
X153828499Y-112241745D01*
X153941745Y-112128499D01*
X154074899Y-112039529D01*
X154222858Y-111978242D01*
X154379925Y-111947000D01*
X154540075Y-111947000D01*
X154697142Y-111978242D01*
X154697142Y-111978242D01*
G37*
G36*
X110157142Y-111978242D02*
G01*
X110305101Y-112039529D01*
X110438255Y-112128499D01*
X110551501Y-112241745D01*
X110640471Y-112374899D01*
X110701758Y-112522858D01*
X110733000Y-112679925D01*
X110733000Y-112840075D01*
X110701758Y-112997142D01*
X110640471Y-113145101D01*
X110551501Y-113278255D01*
X110438255Y-113391501D01*
X110305101Y-113480471D01*
X110157142Y-113541758D01*
X110000075Y-113573000D01*
X109839925Y-113573000D01*
X109682858Y-113541758D01*
X109534899Y-113480471D01*
X109401745Y-113391501D01*
X109288499Y-113278255D01*
X109199529Y-113145101D01*
X109138242Y-112997142D01*
X109107000Y-112840075D01*
X109107000Y-112679925D01*
X109138242Y-112522858D01*
X109199529Y-112374899D01*
X109288499Y-112241745D01*
X109401745Y-112128499D01*
X109534899Y-112039529D01*
X109682858Y-111978242D01*
X109839925Y-111947000D01*
X110000075Y-111947000D01*
X110157142Y-111978242D01*
X110157142Y-111978242D01*
G37*
G36*
X115237142Y-111978242D02*
G01*
X115385101Y-112039529D01*
X115518255Y-112128499D01*
X115631501Y-112241745D01*
X115720471Y-112374899D01*
X115781758Y-112522858D01*
X115813000Y-112679925D01*
X115813000Y-112840075D01*
X115781758Y-112997142D01*
X115720471Y-113145101D01*
X115631501Y-113278255D01*
X115518255Y-113391501D01*
X115385101Y-113480471D01*
X115237142Y-113541758D01*
X115080075Y-113573000D01*
X114919925Y-113573000D01*
X114762858Y-113541758D01*
X114614899Y-113480471D01*
X114481745Y-113391501D01*
X114368499Y-113278255D01*
X114279529Y-113145101D01*
X114218242Y-112997142D01*
X114187000Y-112840075D01*
X114187000Y-112679925D01*
X114218242Y-112522858D01*
X114279529Y-112374899D01*
X114368499Y-112241745D01*
X114481745Y-112128499D01*
X114614899Y-112039529D01*
X114762858Y-111978242D01*
X114919925Y-111947000D01*
X115080075Y-111947000D01*
X115237142Y-111978242D01*
X115237142Y-111978242D01*
G37*
G36*
X117777142Y-111978242D02*
G01*
X117925101Y-112039529D01*
X118058255Y-112128499D01*
X118171501Y-112241745D01*
X118260471Y-112374899D01*
X118321758Y-112522858D01*
X118353000Y-112679925D01*
X118353000Y-112840075D01*
X118321758Y-112997142D01*
X118260471Y-113145101D01*
X118171501Y-113278255D01*
X118058255Y-113391501D01*
X117925101Y-113480471D01*
X117777142Y-113541758D01*
X117620075Y-113573000D01*
X117459925Y-113573000D01*
X117302858Y-113541758D01*
X117154899Y-113480471D01*
X117021745Y-113391501D01*
X116908499Y-113278255D01*
X116819529Y-113145101D01*
X116758242Y-112997142D01*
X116727000Y-112840075D01*
X116727000Y-112679925D01*
X116758242Y-112522858D01*
X116819529Y-112374899D01*
X116908499Y-112241745D01*
X117021745Y-112128499D01*
X117154899Y-112039529D01*
X117302858Y-111978242D01*
X117459925Y-111947000D01*
X117620075Y-111947000D01*
X117777142Y-111978242D01*
X117777142Y-111978242D01*
G37*
G36*
X120317142Y-111978242D02*
G01*
X120465101Y-112039529D01*
X120598255Y-112128499D01*
X120711501Y-112241745D01*
X120800471Y-112374899D01*
X120861758Y-112522858D01*
X120893000Y-112679925D01*
X120893000Y-112840075D01*
X120861758Y-112997142D01*
X120800471Y-113145101D01*
X120711501Y-113278255D01*
X120598255Y-113391501D01*
X120465101Y-113480471D01*
X120317142Y-113541758D01*
X120160075Y-113573000D01*
X119999925Y-113573000D01*
X119842858Y-113541758D01*
X119694899Y-113480471D01*
X119561745Y-113391501D01*
X119448499Y-113278255D01*
X119359529Y-113145101D01*
X119298242Y-112997142D01*
X119267000Y-112840075D01*
X119267000Y-112679925D01*
X119298242Y-112522858D01*
X119359529Y-112374899D01*
X119448499Y-112241745D01*
X119561745Y-112128499D01*
X119694899Y-112039529D01*
X119842858Y-111978242D01*
X119999925Y-111947000D01*
X120160075Y-111947000D01*
X120317142Y-111978242D01*
X120317142Y-111978242D01*
G37*
G36*
X152157142Y-111978242D02*
G01*
X152305101Y-112039529D01*
X152438255Y-112128499D01*
X152551501Y-112241745D01*
X152640471Y-112374899D01*
X152701758Y-112522858D01*
X152733000Y-112679925D01*
X152733000Y-112840075D01*
X152701758Y-112997142D01*
X152640471Y-113145101D01*
X152551501Y-113278255D01*
X152438255Y-113391501D01*
X152305101Y-113480471D01*
X152157142Y-113541758D01*
X152000075Y-113573000D01*
X151839925Y-113573000D01*
X151682858Y-113541758D01*
X151534899Y-113480471D01*
X151401745Y-113391501D01*
X151288499Y-113278255D01*
X151199529Y-113145101D01*
X151138242Y-112997142D01*
X151107000Y-112840075D01*
X151107000Y-112679925D01*
X151138242Y-112522858D01*
X151199529Y-112374899D01*
X151288499Y-112241745D01*
X151401745Y-112128499D01*
X151534899Y-112039529D01*
X151682858Y-111978242D01*
X151839925Y-111947000D01*
X152000075Y-111947000D01*
X152157142Y-111978242D01*
X152157142Y-111978242D01*
G37*
G36*
X134317142Y-111978242D02*
G01*
X134465101Y-112039529D01*
X134598255Y-112128499D01*
X134711501Y-112241745D01*
X134800471Y-112374899D01*
X134861758Y-112522858D01*
X134893000Y-112679925D01*
X134893000Y-112840075D01*
X134861758Y-112997142D01*
X134800471Y-113145101D01*
X134711501Y-113278255D01*
X134598255Y-113391501D01*
X134465101Y-113480471D01*
X134317142Y-113541758D01*
X134160075Y-113573000D01*
X133999925Y-113573000D01*
X133842858Y-113541758D01*
X133694899Y-113480471D01*
X133561745Y-113391501D01*
X133448499Y-113278255D01*
X133359529Y-113145101D01*
X133298242Y-112997142D01*
X133267000Y-112840075D01*
X133267000Y-112679925D01*
X133298242Y-112522858D01*
X133359529Y-112374899D01*
X133448499Y-112241745D01*
X133561745Y-112128499D01*
X133694899Y-112039529D01*
X133842858Y-111978242D01*
X133999925Y-111947000D01*
X134160075Y-111947000D01*
X134317142Y-111978242D01*
X134317142Y-111978242D01*
G37*
G36*
X146086823Y-105401313D02*
G01*
X146247242Y-105449976D01*
X146379906Y-105520886D01*
X146395078Y-105528996D01*
X146524659Y-105635341D01*
X146631004Y-105764922D01*
X146631005Y-105764924D01*
X146710024Y-105912758D01*
X146758687Y-106073177D01*
X146775117Y-106240000D01*
X146758687Y-106406823D01*
X146710024Y-106567242D01*
X146639114Y-106699906D01*
X146631004Y-106715078D01*
X146524659Y-106844659D01*
X146395078Y-106951004D01*
X146395076Y-106951005D01*
X146247242Y-107030024D01*
X146086823Y-107078687D01*
X145961804Y-107091000D01*
X145878196Y-107091000D01*
X145753177Y-107078687D01*
X145592758Y-107030024D01*
X145444924Y-106951005D01*
X145444922Y-106951004D01*
X145315341Y-106844659D01*
X145208996Y-106715078D01*
X145200886Y-106699906D01*
X145129976Y-106567242D01*
X145081313Y-106406823D01*
X145064883Y-106240000D01*
X145081313Y-106073177D01*
X145129976Y-105912758D01*
X145208995Y-105764924D01*
X145208996Y-105764922D01*
X145315341Y-105635341D01*
X145444922Y-105528996D01*
X145460094Y-105520886D01*
X145592758Y-105449976D01*
X145753177Y-105401313D01*
X145878196Y-105389000D01*
X145961804Y-105389000D01*
X146086823Y-105401313D01*
X146086823Y-105401313D01*
G37*
G36*
X151166823Y-105401313D02*
G01*
X151327242Y-105449976D01*
X151459906Y-105520886D01*
X151475078Y-105528996D01*
X151604659Y-105635341D01*
X151711004Y-105764922D01*
X151711005Y-105764924D01*
X151790024Y-105912758D01*
X151838687Y-106073177D01*
X151855117Y-106240000D01*
X151838687Y-106406823D01*
X151790024Y-106567242D01*
X151719114Y-106699906D01*
X151711004Y-106715078D01*
X151604659Y-106844659D01*
X151475078Y-106951004D01*
X151475076Y-106951005D01*
X151327242Y-107030024D01*
X151166823Y-107078687D01*
X151041804Y-107091000D01*
X150958196Y-107091000D01*
X150833177Y-107078687D01*
X150672758Y-107030024D01*
X150524924Y-106951005D01*
X150524922Y-106951004D01*
X150395341Y-106844659D01*
X150288996Y-106715078D01*
X150280886Y-106699906D01*
X150209976Y-106567242D01*
X150161313Y-106406823D01*
X150144883Y-106240000D01*
X150161313Y-106073177D01*
X150209976Y-105912758D01*
X150288995Y-105764924D01*
X150288996Y-105764922D01*
X150395341Y-105635341D01*
X150524922Y-105528996D01*
X150540094Y-105520886D01*
X150672758Y-105449976D01*
X150833177Y-105401313D01*
X150958196Y-105389000D01*
X151041804Y-105389000D01*
X151166823Y-105401313D01*
X151166823Y-105401313D01*
G37*
G36*
X148626823Y-105401313D02*
G01*
X148787242Y-105449976D01*
X148919906Y-105520886D01*
X148935078Y-105528996D01*
X149064659Y-105635341D01*
X149171004Y-105764922D01*
X149171005Y-105764924D01*
X149250024Y-105912758D01*
X149298687Y-106073177D01*
X149315117Y-106240000D01*
X149298687Y-106406823D01*
X149250024Y-106567242D01*
X149179114Y-106699906D01*
X149171004Y-106715078D01*
X149064659Y-106844659D01*
X148935078Y-106951004D01*
X148935076Y-106951005D01*
X148787242Y-107030024D01*
X148626823Y-107078687D01*
X148501804Y-107091000D01*
X148418196Y-107091000D01*
X148293177Y-107078687D01*
X148132758Y-107030024D01*
X147984924Y-106951005D01*
X147984922Y-106951004D01*
X147855341Y-106844659D01*
X147748996Y-106715078D01*
X147740886Y-106699906D01*
X147669976Y-106567242D01*
X147621313Y-106406823D01*
X147604883Y-106240000D01*
X147621313Y-106073177D01*
X147669976Y-105912758D01*
X147748995Y-105764924D01*
X147748996Y-105764922D01*
X147855341Y-105635341D01*
X147984922Y-105528996D01*
X148000094Y-105520886D01*
X148132758Y-105449976D01*
X148293177Y-105401313D01*
X148418196Y-105389000D01*
X148501804Y-105389000D01*
X148626823Y-105401313D01*
X148626823Y-105401313D01*
G37*
G36*
X143546823Y-105401313D02*
G01*
X143707242Y-105449976D01*
X143839906Y-105520886D01*
X143855078Y-105528996D01*
X143984659Y-105635341D01*
X144091004Y-105764922D01*
X144091005Y-105764924D01*
X144170024Y-105912758D01*
X144218687Y-106073177D01*
X144235117Y-106240000D01*
X144218687Y-106406823D01*
X144170024Y-106567242D01*
X144099114Y-106699906D01*
X144091004Y-106715078D01*
X143984659Y-106844659D01*
X143855078Y-106951004D01*
X143855076Y-106951005D01*
X143707242Y-107030024D01*
X143546823Y-107078687D01*
X143421804Y-107091000D01*
X143338196Y-107091000D01*
X143213177Y-107078687D01*
X143052758Y-107030024D01*
X142904924Y-106951005D01*
X142904922Y-106951004D01*
X142775341Y-106844659D01*
X142668996Y-106715078D01*
X142660886Y-106699906D01*
X142589976Y-106567242D01*
X142541313Y-106406823D01*
X142524883Y-106240000D01*
X142541313Y-106073177D01*
X142589976Y-105912758D01*
X142668995Y-105764924D01*
X142668996Y-105764922D01*
X142775341Y-105635341D01*
X142904922Y-105528996D01*
X142920094Y-105520886D01*
X143052758Y-105449976D01*
X143213177Y-105401313D01*
X143338196Y-105389000D01*
X143421804Y-105389000D01*
X143546823Y-105401313D01*
X143546823Y-105401313D01*
G37*
G36*
X141006823Y-105401313D02*
G01*
X141167242Y-105449976D01*
X141299906Y-105520886D01*
X141315078Y-105528996D01*
X141444659Y-105635341D01*
X141551004Y-105764922D01*
X141551005Y-105764924D01*
X141630024Y-105912758D01*
X141678687Y-106073177D01*
X141695117Y-106240000D01*
X141678687Y-106406823D01*
X141630024Y-106567242D01*
X141559114Y-106699906D01*
X141551004Y-106715078D01*
X141444659Y-106844659D01*
X141315078Y-106951004D01*
X141315076Y-106951005D01*
X141167242Y-107030024D01*
X141006823Y-107078687D01*
X140881804Y-107091000D01*
X140798196Y-107091000D01*
X140673177Y-107078687D01*
X140512758Y-107030024D01*
X140364924Y-106951005D01*
X140364922Y-106951004D01*
X140235341Y-106844659D01*
X140128996Y-106715078D01*
X140120886Y-106699906D01*
X140049976Y-106567242D01*
X140001313Y-106406823D01*
X139984883Y-106240000D01*
X140001313Y-106073177D01*
X140049976Y-105912758D01*
X140128995Y-105764924D01*
X140128996Y-105764922D01*
X140235341Y-105635341D01*
X140364922Y-105528996D01*
X140380094Y-105520886D01*
X140512758Y-105449976D01*
X140673177Y-105401313D01*
X140798196Y-105389000D01*
X140881804Y-105389000D01*
X141006823Y-105401313D01*
X141006823Y-105401313D01*
G37*
G36*
X138466823Y-105401313D02*
G01*
X138627242Y-105449976D01*
X138759906Y-105520886D01*
X138775078Y-105528996D01*
X138904659Y-105635341D01*
X139011004Y-105764922D01*
X139011005Y-105764924D01*
X139090024Y-105912758D01*
X139138687Y-106073177D01*
X139155117Y-106240000D01*
X139138687Y-106406823D01*
X139090024Y-106567242D01*
X139019114Y-106699906D01*
X139011004Y-106715078D01*
X138904659Y-106844659D01*
X138775078Y-106951004D01*
X138775076Y-106951005D01*
X138627242Y-107030024D01*
X138466823Y-107078687D01*
X138341804Y-107091000D01*
X138258196Y-107091000D01*
X138133177Y-107078687D01*
X137972758Y-107030024D01*
X137824924Y-106951005D01*
X137824922Y-106951004D01*
X137695341Y-106844659D01*
X137588996Y-106715078D01*
X137580886Y-106699906D01*
X137509976Y-106567242D01*
X137461313Y-106406823D01*
X137444883Y-106240000D01*
X137461313Y-106073177D01*
X137509976Y-105912758D01*
X137588995Y-105764924D01*
X137588996Y-105764922D01*
X137695341Y-105635341D01*
X137824922Y-105528996D01*
X137840094Y-105520886D01*
X137972758Y-105449976D01*
X138133177Y-105401313D01*
X138258196Y-105389000D01*
X138341804Y-105389000D01*
X138466823Y-105401313D01*
X138466823Y-105401313D01*
G37*
G36*
X135926823Y-105401313D02*
G01*
X136087242Y-105449976D01*
X136219906Y-105520886D01*
X136235078Y-105528996D01*
X136364659Y-105635341D01*
X136471004Y-105764922D01*
X136471005Y-105764924D01*
X136550024Y-105912758D01*
X136598687Y-106073177D01*
X136615117Y-106240000D01*
X136598687Y-106406823D01*
X136550024Y-106567242D01*
X136479114Y-106699906D01*
X136471004Y-106715078D01*
X136364659Y-106844659D01*
X136235078Y-106951004D01*
X136235076Y-106951005D01*
X136087242Y-107030024D01*
X135926823Y-107078687D01*
X135801804Y-107091000D01*
X135718196Y-107091000D01*
X135593177Y-107078687D01*
X135432758Y-107030024D01*
X135284924Y-106951005D01*
X135284922Y-106951004D01*
X135155341Y-106844659D01*
X135048996Y-106715078D01*
X135040886Y-106699906D01*
X134969976Y-106567242D01*
X134921313Y-106406823D01*
X134904883Y-106240000D01*
X134921313Y-106073177D01*
X134969976Y-105912758D01*
X135048995Y-105764924D01*
X135048996Y-105764922D01*
X135155341Y-105635341D01*
X135284922Y-105528996D01*
X135300094Y-105520886D01*
X135432758Y-105449976D01*
X135593177Y-105401313D01*
X135718196Y-105389000D01*
X135801804Y-105389000D01*
X135926823Y-105401313D01*
X135926823Y-105401313D01*
G37*
G36*
X130846823Y-105401313D02*
G01*
X131007242Y-105449976D01*
X131139906Y-105520886D01*
X131155078Y-105528996D01*
X131284659Y-105635341D01*
X131391004Y-105764922D01*
X131391005Y-105764924D01*
X131470024Y-105912758D01*
X131518687Y-106073177D01*
X131535117Y-106240000D01*
X131518687Y-106406823D01*
X131470024Y-106567242D01*
X131399114Y-106699906D01*
X131391004Y-106715078D01*
X131284659Y-106844659D01*
X131155078Y-106951004D01*
X131155076Y-106951005D01*
X131007242Y-107030024D01*
X130846823Y-107078687D01*
X130721804Y-107091000D01*
X130638196Y-107091000D01*
X130513177Y-107078687D01*
X130352758Y-107030024D01*
X130204924Y-106951005D01*
X130204922Y-106951004D01*
X130075341Y-106844659D01*
X129968996Y-106715078D01*
X129960886Y-106699906D01*
X129889976Y-106567242D01*
X129841313Y-106406823D01*
X129824883Y-106240000D01*
X129841313Y-106073177D01*
X129889976Y-105912758D01*
X129968995Y-105764924D01*
X129968996Y-105764922D01*
X130075341Y-105635341D01*
X130204922Y-105528996D01*
X130220094Y-105520886D01*
X130352758Y-105449976D01*
X130513177Y-105401313D01*
X130638196Y-105389000D01*
X130721804Y-105389000D01*
X130846823Y-105401313D01*
X130846823Y-105401313D01*
G37*
G36*
X125766823Y-105401313D02*
G01*
X125927242Y-105449976D01*
X126059906Y-105520886D01*
X126075078Y-105528996D01*
X126204659Y-105635341D01*
X126311004Y-105764922D01*
X126311005Y-105764924D01*
X126390024Y-105912758D01*
X126438687Y-106073177D01*
X126455117Y-106240000D01*
X126438687Y-106406823D01*
X126390024Y-106567242D01*
X126319114Y-106699906D01*
X126311004Y-106715078D01*
X126204659Y-106844659D01*
X126075078Y-106951004D01*
X126075076Y-106951005D01*
X125927242Y-107030024D01*
X125766823Y-107078687D01*
X125641804Y-107091000D01*
X125558196Y-107091000D01*
X125433177Y-107078687D01*
X125272758Y-107030024D01*
X125124924Y-106951005D01*
X125124922Y-106951004D01*
X124995341Y-106844659D01*
X124888996Y-106715078D01*
X124880886Y-106699906D01*
X124809976Y-106567242D01*
X124761313Y-106406823D01*
X124744883Y-106240000D01*
X124761313Y-106073177D01*
X124809976Y-105912758D01*
X124888995Y-105764924D01*
X124888996Y-105764922D01*
X124995341Y-105635341D01*
X125124922Y-105528996D01*
X125140094Y-105520886D01*
X125272758Y-105449976D01*
X125433177Y-105401313D01*
X125558196Y-105389000D01*
X125641804Y-105389000D01*
X125766823Y-105401313D01*
X125766823Y-105401313D01*
G37*
G36*
X128306823Y-105401313D02*
G01*
X128467242Y-105449976D01*
X128599906Y-105520886D01*
X128615078Y-105528996D01*
X128744659Y-105635341D01*
X128851004Y-105764922D01*
X128851005Y-105764924D01*
X128930024Y-105912758D01*
X128978687Y-106073177D01*
X128995117Y-106240000D01*
X128978687Y-106406823D01*
X128930024Y-106567242D01*
X128859114Y-106699906D01*
X128851004Y-106715078D01*
X128744659Y-106844659D01*
X128615078Y-106951004D01*
X128615076Y-106951005D01*
X128467242Y-107030024D01*
X128306823Y-107078687D01*
X128181804Y-107091000D01*
X128098196Y-107091000D01*
X127973177Y-107078687D01*
X127812758Y-107030024D01*
X127664924Y-106951005D01*
X127664922Y-106951004D01*
X127535341Y-106844659D01*
X127428996Y-106715078D01*
X127420886Y-106699906D01*
X127349976Y-106567242D01*
X127301313Y-106406823D01*
X127284883Y-106240000D01*
X127301313Y-106073177D01*
X127349976Y-105912758D01*
X127428995Y-105764924D01*
X127428996Y-105764922D01*
X127535341Y-105635341D01*
X127664922Y-105528996D01*
X127680094Y-105520886D01*
X127812758Y-105449976D01*
X127973177Y-105401313D01*
X128098196Y-105389000D01*
X128181804Y-105389000D01*
X128306823Y-105401313D01*
X128306823Y-105401313D01*
G37*
G36*
X133386823Y-105401313D02*
G01*
X133547242Y-105449976D01*
X133679906Y-105520886D01*
X133695078Y-105528996D01*
X133824659Y-105635341D01*
X133931004Y-105764922D01*
X133931005Y-105764924D01*
X134010024Y-105912758D01*
X134058687Y-106073177D01*
X134075117Y-106240000D01*
X134058687Y-106406823D01*
X134010024Y-106567242D01*
X133939114Y-106699906D01*
X133931004Y-106715078D01*
X133824659Y-106844659D01*
X133695078Y-106951004D01*
X133695076Y-106951005D01*
X133547242Y-107030024D01*
X133386823Y-107078687D01*
X133261804Y-107091000D01*
X133178196Y-107091000D01*
X133053177Y-107078687D01*
X132892758Y-107030024D01*
X132744924Y-106951005D01*
X132744922Y-106951004D01*
X132615341Y-106844659D01*
X132508996Y-106715078D01*
X132500886Y-106699906D01*
X132429976Y-106567242D01*
X132381313Y-106406823D01*
X132364883Y-106240000D01*
X132381313Y-106073177D01*
X132429976Y-105912758D01*
X132508995Y-105764924D01*
X132508996Y-105764922D01*
X132615341Y-105635341D01*
X132744922Y-105528996D01*
X132760094Y-105520886D01*
X132892758Y-105449976D01*
X133053177Y-105401313D01*
X133178196Y-105389000D01*
X133261804Y-105389000D01*
X133386823Y-105401313D01*
X133386823Y-105401313D01*
G37*
G36*
X120686823Y-105401313D02*
G01*
X120847242Y-105449976D01*
X120979906Y-105520886D01*
X120995078Y-105528996D01*
X121124659Y-105635341D01*
X121231004Y-105764922D01*
X121231005Y-105764924D01*
X121310024Y-105912758D01*
X121358687Y-106073177D01*
X121375117Y-106240000D01*
X121358687Y-106406823D01*
X121310024Y-106567242D01*
X121239114Y-106699906D01*
X121231004Y-106715078D01*
X121124659Y-106844659D01*
X120995078Y-106951004D01*
X120995076Y-106951005D01*
X120847242Y-107030024D01*
X120686823Y-107078687D01*
X120561804Y-107091000D01*
X120478196Y-107091000D01*
X120353177Y-107078687D01*
X120192758Y-107030024D01*
X120044924Y-106951005D01*
X120044922Y-106951004D01*
X119915341Y-106844659D01*
X119808996Y-106715078D01*
X119800886Y-106699906D01*
X119729976Y-106567242D01*
X119681313Y-106406823D01*
X119664883Y-106240000D01*
X119681313Y-106073177D01*
X119729976Y-105912758D01*
X119808995Y-105764924D01*
X119808996Y-105764922D01*
X119915341Y-105635341D01*
X120044922Y-105528996D01*
X120060094Y-105520886D01*
X120192758Y-105449976D01*
X120353177Y-105401313D01*
X120478196Y-105389000D01*
X120561804Y-105389000D01*
X120686823Y-105401313D01*
X120686823Y-105401313D01*
G37*
G36*
X123226823Y-105401313D02*
G01*
X123387242Y-105449976D01*
X123519906Y-105520886D01*
X123535078Y-105528996D01*
X123664659Y-105635341D01*
X123771004Y-105764922D01*
X123771005Y-105764924D01*
X123850024Y-105912758D01*
X123898687Y-106073177D01*
X123915117Y-106240000D01*
X123898687Y-106406823D01*
X123850024Y-106567242D01*
X123779114Y-106699906D01*
X123771004Y-106715078D01*
X123664659Y-106844659D01*
X123535078Y-106951004D01*
X123535076Y-106951005D01*
X123387242Y-107030024D01*
X123226823Y-107078687D01*
X123101804Y-107091000D01*
X123018196Y-107091000D01*
X122893177Y-107078687D01*
X122732758Y-107030024D01*
X122584924Y-106951005D01*
X122584922Y-106951004D01*
X122455341Y-106844659D01*
X122348996Y-106715078D01*
X122340886Y-106699906D01*
X122269976Y-106567242D01*
X122221313Y-106406823D01*
X122204883Y-106240000D01*
X122221313Y-106073177D01*
X122269976Y-105912758D01*
X122348995Y-105764924D01*
X122348996Y-105764922D01*
X122455341Y-105635341D01*
X122584922Y-105528996D01*
X122600094Y-105520886D01*
X122732758Y-105449976D01*
X122893177Y-105401313D01*
X123018196Y-105389000D01*
X123101804Y-105389000D01*
X123226823Y-105401313D01*
X123226823Y-105401313D01*
G37*
G36*
X118146823Y-105401313D02*
G01*
X118307242Y-105449976D01*
X118439906Y-105520886D01*
X118455078Y-105528996D01*
X118584659Y-105635341D01*
X118691004Y-105764922D01*
X118691005Y-105764924D01*
X118770024Y-105912758D01*
X118818687Y-106073177D01*
X118835117Y-106240000D01*
X118818687Y-106406823D01*
X118770024Y-106567242D01*
X118699114Y-106699906D01*
X118691004Y-106715078D01*
X118584659Y-106844659D01*
X118455078Y-106951004D01*
X118455076Y-106951005D01*
X118307242Y-107030024D01*
X118146823Y-107078687D01*
X118021804Y-107091000D01*
X117938196Y-107091000D01*
X117813177Y-107078687D01*
X117652758Y-107030024D01*
X117504924Y-106951005D01*
X117504922Y-106951004D01*
X117375341Y-106844659D01*
X117268996Y-106715078D01*
X117260886Y-106699906D01*
X117189976Y-106567242D01*
X117141313Y-106406823D01*
X117124883Y-106240000D01*
X117141313Y-106073177D01*
X117189976Y-105912758D01*
X117268995Y-105764924D01*
X117268996Y-105764922D01*
X117375341Y-105635341D01*
X117504922Y-105528996D01*
X117520094Y-105520886D01*
X117652758Y-105449976D01*
X117813177Y-105401313D01*
X117938196Y-105389000D01*
X118021804Y-105389000D01*
X118146823Y-105401313D01*
X118146823Y-105401313D01*
G37*
G36*
X115606823Y-105401313D02*
G01*
X115767242Y-105449976D01*
X115899906Y-105520886D01*
X115915078Y-105528996D01*
X116044659Y-105635341D01*
X116151004Y-105764922D01*
X116151005Y-105764924D01*
X116230024Y-105912758D01*
X116278687Y-106073177D01*
X116295117Y-106240000D01*
X116278687Y-106406823D01*
X116230024Y-106567242D01*
X116159114Y-106699906D01*
X116151004Y-106715078D01*
X116044659Y-106844659D01*
X115915078Y-106951004D01*
X115915076Y-106951005D01*
X115767242Y-107030024D01*
X115606823Y-107078687D01*
X115481804Y-107091000D01*
X115398196Y-107091000D01*
X115273177Y-107078687D01*
X115112758Y-107030024D01*
X114964924Y-106951005D01*
X114964922Y-106951004D01*
X114835341Y-106844659D01*
X114728996Y-106715078D01*
X114720886Y-106699906D01*
X114649976Y-106567242D01*
X114601313Y-106406823D01*
X114584883Y-106240000D01*
X114601313Y-106073177D01*
X114649976Y-105912758D01*
X114728995Y-105764924D01*
X114728996Y-105764922D01*
X114835341Y-105635341D01*
X114964922Y-105528996D01*
X114980094Y-105520886D01*
X115112758Y-105449976D01*
X115273177Y-105401313D01*
X115398196Y-105389000D01*
X115481804Y-105389000D01*
X115606823Y-105401313D01*
X115606823Y-105401313D01*
G37*
G36*
X189052585Y-90328802D02*
G01*
X189202410Y-90358604D01*
X189484674Y-90475521D01*
X189738705Y-90645259D01*
X189954741Y-90861295D01*
X190124479Y-91115326D01*
X190212257Y-91327242D01*
X190241396Y-91397591D01*
X190289357Y-91638704D01*
X190301000Y-91697240D01*
X190301000Y-92002760D01*
X190241396Y-92302410D01*
X190124479Y-92584674D01*
X189954741Y-92838705D01*
X189738705Y-93054741D01*
X189484674Y-93224479D01*
X189202410Y-93341396D01*
X189052585Y-93371198D01*
X188902761Y-93401000D01*
X188597239Y-93401000D01*
X188447415Y-93371198D01*
X188297590Y-93341396D01*
X188015326Y-93224479D01*
X187761295Y-93054741D01*
X187545259Y-92838705D01*
X187375521Y-92584674D01*
X187258604Y-92302410D01*
X187199000Y-92002760D01*
X187199000Y-91697240D01*
X187210644Y-91638704D01*
X187258604Y-91397591D01*
X187287743Y-91327242D01*
X187375521Y-91115326D01*
X187545259Y-90861295D01*
X187761295Y-90645259D01*
X188015326Y-90475521D01*
X188297590Y-90358604D01*
X188447415Y-90328802D01*
X188597239Y-90299000D01*
X188902761Y-90299000D01*
X189052585Y-90328802D01*
X189052585Y-90328802D01*
G37*
G36*
X197552585Y-89128802D02*
G01*
X197702410Y-89158604D01*
X197984674Y-89275521D01*
X198238705Y-89445259D01*
X198454741Y-89661295D01*
X198624479Y-89915326D01*
X198741396Y-90197590D01*
X198759578Y-90288996D01*
X198801000Y-90497239D01*
X198801000Y-90802761D01*
X198771198Y-90952585D01*
X198741396Y-91102410D01*
X198624479Y-91384674D01*
X198454741Y-91638705D01*
X198238705Y-91854741D01*
X197984674Y-92024479D01*
X197702410Y-92141396D01*
X197552585Y-92171198D01*
X197402761Y-92201000D01*
X197097239Y-92201000D01*
X196947415Y-92171198D01*
X196797590Y-92141396D01*
X196515326Y-92024479D01*
X196261295Y-91854741D01*
X196045259Y-91638705D01*
X195875521Y-91384674D01*
X195758604Y-91102410D01*
X195728802Y-90952585D01*
X195699000Y-90802761D01*
X195699000Y-90497239D01*
X195740422Y-90288996D01*
X195758604Y-90197590D01*
X195875521Y-89915326D01*
X196045259Y-89661295D01*
X196261295Y-89445259D01*
X196515326Y-89275521D01*
X196797590Y-89158604D01*
X196947415Y-89128802D01*
X197097239Y-89099000D01*
X197402761Y-89099000D01*
X197552585Y-89128802D01*
X197552585Y-89128802D01*
G37*
G36*
X118146823Y-90161313D02*
G01*
X118307242Y-90209976D01*
X118439906Y-90280886D01*
X118455078Y-90288996D01*
X118584659Y-90395341D01*
X118691004Y-90524922D01*
X118691005Y-90524924D01*
X118770024Y-90672758D01*
X118818687Y-90833177D01*
X118835117Y-91000000D01*
X118818687Y-91166823D01*
X118770024Y-91327242D01*
X118699114Y-91459906D01*
X118691004Y-91475078D01*
X118584659Y-91604659D01*
X118455078Y-91711004D01*
X118455076Y-91711005D01*
X118307242Y-91790024D01*
X118146823Y-91838687D01*
X118021804Y-91851000D01*
X117938196Y-91851000D01*
X117813177Y-91838687D01*
X117652758Y-91790024D01*
X117504924Y-91711005D01*
X117504922Y-91711004D01*
X117375341Y-91604659D01*
X117268996Y-91475078D01*
X117260886Y-91459906D01*
X117189976Y-91327242D01*
X117141313Y-91166823D01*
X117124883Y-91000000D01*
X117141313Y-90833177D01*
X117189976Y-90672758D01*
X117268995Y-90524924D01*
X117268996Y-90524922D01*
X117375341Y-90395341D01*
X117504922Y-90288996D01*
X117520094Y-90280886D01*
X117652758Y-90209976D01*
X117813177Y-90161313D01*
X117938196Y-90149000D01*
X118021804Y-90149000D01*
X118146823Y-90161313D01*
X118146823Y-90161313D01*
G37*
G36*
X130846823Y-90161313D02*
G01*
X131007242Y-90209976D01*
X131139906Y-90280886D01*
X131155078Y-90288996D01*
X131284659Y-90395341D01*
X131391004Y-90524922D01*
X131391005Y-90524924D01*
X131470024Y-90672758D01*
X131518687Y-90833177D01*
X131535117Y-91000000D01*
X131518687Y-91166823D01*
X131470024Y-91327242D01*
X131399114Y-91459906D01*
X131391004Y-91475078D01*
X131284659Y-91604659D01*
X131155078Y-91711004D01*
X131155076Y-91711005D01*
X131007242Y-91790024D01*
X130846823Y-91838687D01*
X130721804Y-91851000D01*
X130638196Y-91851000D01*
X130513177Y-91838687D01*
X130352758Y-91790024D01*
X130204924Y-91711005D01*
X130204922Y-91711004D01*
X130075341Y-91604659D01*
X129968996Y-91475078D01*
X129960886Y-91459906D01*
X129889976Y-91327242D01*
X129841313Y-91166823D01*
X129824883Y-91000000D01*
X129841313Y-90833177D01*
X129889976Y-90672758D01*
X129968995Y-90524924D01*
X129968996Y-90524922D01*
X130075341Y-90395341D01*
X130204922Y-90288996D01*
X130220094Y-90280886D01*
X130352758Y-90209976D01*
X130513177Y-90161313D01*
X130638196Y-90149000D01*
X130721804Y-90149000D01*
X130846823Y-90161313D01*
X130846823Y-90161313D01*
G37*
G36*
X125766823Y-90161313D02*
G01*
X125927242Y-90209976D01*
X126059906Y-90280886D01*
X126075078Y-90288996D01*
X126204659Y-90395341D01*
X126311004Y-90524922D01*
X126311005Y-90524924D01*
X126390024Y-90672758D01*
X126438687Y-90833177D01*
X126455117Y-91000000D01*
X126438687Y-91166823D01*
X126390024Y-91327242D01*
X126319114Y-91459906D01*
X126311004Y-91475078D01*
X126204659Y-91604659D01*
X126075078Y-91711004D01*
X126075076Y-91711005D01*
X125927242Y-91790024D01*
X125766823Y-91838687D01*
X125641804Y-91851000D01*
X125558196Y-91851000D01*
X125433177Y-91838687D01*
X125272758Y-91790024D01*
X125124924Y-91711005D01*
X125124922Y-91711004D01*
X124995341Y-91604659D01*
X124888996Y-91475078D01*
X124880886Y-91459906D01*
X124809976Y-91327242D01*
X124761313Y-91166823D01*
X124744883Y-91000000D01*
X124761313Y-90833177D01*
X124809976Y-90672758D01*
X124888995Y-90524924D01*
X124888996Y-90524922D01*
X124995341Y-90395341D01*
X125124922Y-90288996D01*
X125140094Y-90280886D01*
X125272758Y-90209976D01*
X125433177Y-90161313D01*
X125558196Y-90149000D01*
X125641804Y-90149000D01*
X125766823Y-90161313D01*
X125766823Y-90161313D01*
G37*
G36*
X123226823Y-90161313D02*
G01*
X123387242Y-90209976D01*
X123519906Y-90280886D01*
X123535078Y-90288996D01*
X123664659Y-90395341D01*
X123771004Y-90524922D01*
X123771005Y-90524924D01*
X123850024Y-90672758D01*
X123898687Y-90833177D01*
X123915117Y-91000000D01*
X123898687Y-91166823D01*
X123850024Y-91327242D01*
X123779114Y-91459906D01*
X123771004Y-91475078D01*
X123664659Y-91604659D01*
X123535078Y-91711004D01*
X123535076Y-91711005D01*
X123387242Y-91790024D01*
X123226823Y-91838687D01*
X123101804Y-91851000D01*
X123018196Y-91851000D01*
X122893177Y-91838687D01*
X122732758Y-91790024D01*
X122584924Y-91711005D01*
X122584922Y-91711004D01*
X122455341Y-91604659D01*
X122348996Y-91475078D01*
X122340886Y-91459906D01*
X122269976Y-91327242D01*
X122221313Y-91166823D01*
X122204883Y-91000000D01*
X122221313Y-90833177D01*
X122269976Y-90672758D01*
X122348995Y-90524924D01*
X122348996Y-90524922D01*
X122455341Y-90395341D01*
X122584922Y-90288996D01*
X122600094Y-90280886D01*
X122732758Y-90209976D01*
X122893177Y-90161313D01*
X123018196Y-90149000D01*
X123101804Y-90149000D01*
X123226823Y-90161313D01*
X123226823Y-90161313D01*
G37*
G36*
X120686823Y-90161313D02*
G01*
X120847242Y-90209976D01*
X120979906Y-90280886D01*
X120995078Y-90288996D01*
X121124659Y-90395341D01*
X121231004Y-90524922D01*
X121231005Y-90524924D01*
X121310024Y-90672758D01*
X121358687Y-90833177D01*
X121375117Y-91000000D01*
X121358687Y-91166823D01*
X121310024Y-91327242D01*
X121239114Y-91459906D01*
X121231004Y-91475078D01*
X121124659Y-91604659D01*
X120995078Y-91711004D01*
X120995076Y-91711005D01*
X120847242Y-91790024D01*
X120686823Y-91838687D01*
X120561804Y-91851000D01*
X120478196Y-91851000D01*
X120353177Y-91838687D01*
X120192758Y-91790024D01*
X120044924Y-91711005D01*
X120044922Y-91711004D01*
X119915341Y-91604659D01*
X119808996Y-91475078D01*
X119800886Y-91459906D01*
X119729976Y-91327242D01*
X119681313Y-91166823D01*
X119664883Y-91000000D01*
X119681313Y-90833177D01*
X119729976Y-90672758D01*
X119808995Y-90524924D01*
X119808996Y-90524922D01*
X119915341Y-90395341D01*
X120044922Y-90288996D01*
X120060094Y-90280886D01*
X120192758Y-90209976D01*
X120353177Y-90161313D01*
X120478196Y-90149000D01*
X120561804Y-90149000D01*
X120686823Y-90161313D01*
X120686823Y-90161313D01*
G37*
G36*
X115606823Y-90161313D02*
G01*
X115767242Y-90209976D01*
X115899906Y-90280886D01*
X115915078Y-90288996D01*
X116044659Y-90395341D01*
X116151004Y-90524922D01*
X116151005Y-90524924D01*
X116230024Y-90672758D01*
X116278687Y-90833177D01*
X116295117Y-91000000D01*
X116278687Y-91166823D01*
X116230024Y-91327242D01*
X116159114Y-91459906D01*
X116151004Y-91475078D01*
X116044659Y-91604659D01*
X115915078Y-91711004D01*
X115915076Y-91711005D01*
X115767242Y-91790024D01*
X115606823Y-91838687D01*
X115481804Y-91851000D01*
X115398196Y-91851000D01*
X115273177Y-91838687D01*
X115112758Y-91790024D01*
X114964924Y-91711005D01*
X114964922Y-91711004D01*
X114835341Y-91604659D01*
X114728996Y-91475078D01*
X114720886Y-91459906D01*
X114649976Y-91327242D01*
X114601313Y-91166823D01*
X114584883Y-91000000D01*
X114601313Y-90833177D01*
X114649976Y-90672758D01*
X114728995Y-90524924D01*
X114728996Y-90524922D01*
X114835341Y-90395341D01*
X114964922Y-90288996D01*
X114980094Y-90280886D01*
X115112758Y-90209976D01*
X115273177Y-90161313D01*
X115398196Y-90149000D01*
X115481804Y-90149000D01*
X115606823Y-90161313D01*
X115606823Y-90161313D01*
G37*
G36*
X128306823Y-90161313D02*
G01*
X128467242Y-90209976D01*
X128599906Y-90280886D01*
X128615078Y-90288996D01*
X128744659Y-90395341D01*
X128851004Y-90524922D01*
X128851005Y-90524924D01*
X128930024Y-90672758D01*
X128978687Y-90833177D01*
X128995117Y-91000000D01*
X128978687Y-91166823D01*
X128930024Y-91327242D01*
X128859114Y-91459906D01*
X128851004Y-91475078D01*
X128744659Y-91604659D01*
X128615078Y-91711004D01*
X128615076Y-91711005D01*
X128467242Y-91790024D01*
X128306823Y-91838687D01*
X128181804Y-91851000D01*
X128098196Y-91851000D01*
X127973177Y-91838687D01*
X127812758Y-91790024D01*
X127664924Y-91711005D01*
X127664922Y-91711004D01*
X127535341Y-91604659D01*
X127428996Y-91475078D01*
X127420886Y-91459906D01*
X127349976Y-91327242D01*
X127301313Y-91166823D01*
X127284883Y-91000000D01*
X127301313Y-90833177D01*
X127349976Y-90672758D01*
X127428995Y-90524924D01*
X127428996Y-90524922D01*
X127535341Y-90395341D01*
X127664922Y-90288996D01*
X127680094Y-90280886D01*
X127812758Y-90209976D01*
X127973177Y-90161313D01*
X128098196Y-90149000D01*
X128181804Y-90149000D01*
X128306823Y-90161313D01*
X128306823Y-90161313D01*
G37*
G36*
X135926823Y-90161313D02*
G01*
X136087242Y-90209976D01*
X136219906Y-90280886D01*
X136235078Y-90288996D01*
X136364659Y-90395341D01*
X136471004Y-90524922D01*
X136471005Y-90524924D01*
X136550024Y-90672758D01*
X136598687Y-90833177D01*
X136615117Y-91000000D01*
X136598687Y-91166823D01*
X136550024Y-91327242D01*
X136479114Y-91459906D01*
X136471004Y-91475078D01*
X136364659Y-91604659D01*
X136235078Y-91711004D01*
X136235076Y-91711005D01*
X136087242Y-91790024D01*
X135926823Y-91838687D01*
X135801804Y-91851000D01*
X135718196Y-91851000D01*
X135593177Y-91838687D01*
X135432758Y-91790024D01*
X135284924Y-91711005D01*
X135284922Y-91711004D01*
X135155341Y-91604659D01*
X135048996Y-91475078D01*
X135040886Y-91459906D01*
X134969976Y-91327242D01*
X134921313Y-91166823D01*
X134904883Y-91000000D01*
X134921313Y-90833177D01*
X134969976Y-90672758D01*
X135048995Y-90524924D01*
X135048996Y-90524922D01*
X135155341Y-90395341D01*
X135284922Y-90288996D01*
X135300094Y-90280886D01*
X135432758Y-90209976D01*
X135593177Y-90161313D01*
X135718196Y-90149000D01*
X135801804Y-90149000D01*
X135926823Y-90161313D01*
X135926823Y-90161313D01*
G37*
G36*
X138466823Y-90161313D02*
G01*
X138627242Y-90209976D01*
X138759906Y-90280886D01*
X138775078Y-90288996D01*
X138904659Y-90395341D01*
X139011004Y-90524922D01*
X139011005Y-90524924D01*
X139090024Y-90672758D01*
X139138687Y-90833177D01*
X139155117Y-91000000D01*
X139138687Y-91166823D01*
X139090024Y-91327242D01*
X139019114Y-91459906D01*
X139011004Y-91475078D01*
X138904659Y-91604659D01*
X138775078Y-91711004D01*
X138775076Y-91711005D01*
X138627242Y-91790024D01*
X138466823Y-91838687D01*
X138341804Y-91851000D01*
X138258196Y-91851000D01*
X138133177Y-91838687D01*
X137972758Y-91790024D01*
X137824924Y-91711005D01*
X137824922Y-91711004D01*
X137695341Y-91604659D01*
X137588996Y-91475078D01*
X137580886Y-91459906D01*
X137509976Y-91327242D01*
X137461313Y-91166823D01*
X137444883Y-91000000D01*
X137461313Y-90833177D01*
X137509976Y-90672758D01*
X137588995Y-90524924D01*
X137588996Y-90524922D01*
X137695341Y-90395341D01*
X137824922Y-90288996D01*
X137840094Y-90280886D01*
X137972758Y-90209976D01*
X138133177Y-90161313D01*
X138258196Y-90149000D01*
X138341804Y-90149000D01*
X138466823Y-90161313D01*
X138466823Y-90161313D01*
G37*
G36*
X141006823Y-90161313D02*
G01*
X141167242Y-90209976D01*
X141299906Y-90280886D01*
X141315078Y-90288996D01*
X141444659Y-90395341D01*
X141551004Y-90524922D01*
X141551005Y-90524924D01*
X141630024Y-90672758D01*
X141678687Y-90833177D01*
X141695117Y-91000000D01*
X141678687Y-91166823D01*
X141630024Y-91327242D01*
X141559114Y-91459906D01*
X141551004Y-91475078D01*
X141444659Y-91604659D01*
X141315078Y-91711004D01*
X141315076Y-91711005D01*
X141167242Y-91790024D01*
X141006823Y-91838687D01*
X140881804Y-91851000D01*
X140798196Y-91851000D01*
X140673177Y-91838687D01*
X140512758Y-91790024D01*
X140364924Y-91711005D01*
X140364922Y-91711004D01*
X140235341Y-91604659D01*
X140128996Y-91475078D01*
X140120886Y-91459906D01*
X140049976Y-91327242D01*
X140001313Y-91166823D01*
X139984883Y-91000000D01*
X140001313Y-90833177D01*
X140049976Y-90672758D01*
X140128995Y-90524924D01*
X140128996Y-90524922D01*
X140235341Y-90395341D01*
X140364922Y-90288996D01*
X140380094Y-90280886D01*
X140512758Y-90209976D01*
X140673177Y-90161313D01*
X140798196Y-90149000D01*
X140881804Y-90149000D01*
X141006823Y-90161313D01*
X141006823Y-90161313D01*
G37*
G36*
X143546823Y-90161313D02*
G01*
X143707242Y-90209976D01*
X143839906Y-90280886D01*
X143855078Y-90288996D01*
X143984659Y-90395341D01*
X144091004Y-90524922D01*
X144091005Y-90524924D01*
X144170024Y-90672758D01*
X144218687Y-90833177D01*
X144235117Y-91000000D01*
X144218687Y-91166823D01*
X144170024Y-91327242D01*
X144099114Y-91459906D01*
X144091004Y-91475078D01*
X143984659Y-91604659D01*
X143855078Y-91711004D01*
X143855076Y-91711005D01*
X143707242Y-91790024D01*
X143546823Y-91838687D01*
X143421804Y-91851000D01*
X143338196Y-91851000D01*
X143213177Y-91838687D01*
X143052758Y-91790024D01*
X142904924Y-91711005D01*
X142904922Y-91711004D01*
X142775341Y-91604659D01*
X142668996Y-91475078D01*
X142660886Y-91459906D01*
X142589976Y-91327242D01*
X142541313Y-91166823D01*
X142524883Y-91000000D01*
X142541313Y-90833177D01*
X142589976Y-90672758D01*
X142668995Y-90524924D01*
X142668996Y-90524922D01*
X142775341Y-90395341D01*
X142904922Y-90288996D01*
X142920094Y-90280886D01*
X143052758Y-90209976D01*
X143213177Y-90161313D01*
X143338196Y-90149000D01*
X143421804Y-90149000D01*
X143546823Y-90161313D01*
X143546823Y-90161313D01*
G37*
G36*
X146086823Y-90161313D02*
G01*
X146247242Y-90209976D01*
X146379906Y-90280886D01*
X146395078Y-90288996D01*
X146524659Y-90395341D01*
X146631004Y-90524922D01*
X146631005Y-90524924D01*
X146710024Y-90672758D01*
X146758687Y-90833177D01*
X146775117Y-91000000D01*
X146758687Y-91166823D01*
X146710024Y-91327242D01*
X146639114Y-91459906D01*
X146631004Y-91475078D01*
X146524659Y-91604659D01*
X146395078Y-91711004D01*
X146395076Y-91711005D01*
X146247242Y-91790024D01*
X146086823Y-91838687D01*
X145961804Y-91851000D01*
X145878196Y-91851000D01*
X145753177Y-91838687D01*
X145592758Y-91790024D01*
X145444924Y-91711005D01*
X145444922Y-91711004D01*
X145315341Y-91604659D01*
X145208996Y-91475078D01*
X145200886Y-91459906D01*
X145129976Y-91327242D01*
X145081313Y-91166823D01*
X145064883Y-91000000D01*
X145081313Y-90833177D01*
X145129976Y-90672758D01*
X145208995Y-90524924D01*
X145208996Y-90524922D01*
X145315341Y-90395341D01*
X145444922Y-90288996D01*
X145460094Y-90280886D01*
X145592758Y-90209976D01*
X145753177Y-90161313D01*
X145878196Y-90149000D01*
X145961804Y-90149000D01*
X146086823Y-90161313D01*
X146086823Y-90161313D01*
G37*
G36*
X148626823Y-90161313D02*
G01*
X148787242Y-90209976D01*
X148919906Y-90280886D01*
X148935078Y-90288996D01*
X149064659Y-90395341D01*
X149171004Y-90524922D01*
X149171005Y-90524924D01*
X149250024Y-90672758D01*
X149298687Y-90833177D01*
X149315117Y-91000000D01*
X149298687Y-91166823D01*
X149250024Y-91327242D01*
X149179114Y-91459906D01*
X149171004Y-91475078D01*
X149064659Y-91604659D01*
X148935078Y-91711004D01*
X148935076Y-91711005D01*
X148787242Y-91790024D01*
X148626823Y-91838687D01*
X148501804Y-91851000D01*
X148418196Y-91851000D01*
X148293177Y-91838687D01*
X148132758Y-91790024D01*
X147984924Y-91711005D01*
X147984922Y-91711004D01*
X147855341Y-91604659D01*
X147748996Y-91475078D01*
X147740886Y-91459906D01*
X147669976Y-91327242D01*
X147621313Y-91166823D01*
X147604883Y-91000000D01*
X147621313Y-90833177D01*
X147669976Y-90672758D01*
X147748995Y-90524924D01*
X147748996Y-90524922D01*
X147855341Y-90395341D01*
X147984922Y-90288996D01*
X148000094Y-90280886D01*
X148132758Y-90209976D01*
X148293177Y-90161313D01*
X148418196Y-90149000D01*
X148501804Y-90149000D01*
X148626823Y-90161313D01*
X148626823Y-90161313D01*
G37*
G36*
X151851000Y-91851000D02*
G01*
X150149000Y-91851000D01*
X150149000Y-90149000D01*
X151851000Y-90149000D01*
X151851000Y-91851000D01*
X151851000Y-91851000D01*
G37*
G36*
X133386823Y-90161313D02*
G01*
X133547242Y-90209976D01*
X133679906Y-90280886D01*
X133695078Y-90288996D01*
X133824659Y-90395341D01*
X133931004Y-90524922D01*
X133931005Y-90524924D01*
X134010024Y-90672758D01*
X134058687Y-90833177D01*
X134075117Y-91000000D01*
X134058687Y-91166823D01*
X134010024Y-91327242D01*
X133939114Y-91459906D01*
X133931004Y-91475078D01*
X133824659Y-91604659D01*
X133695078Y-91711004D01*
X133695076Y-91711005D01*
X133547242Y-91790024D01*
X133386823Y-91838687D01*
X133261804Y-91851000D01*
X133178196Y-91851000D01*
X133053177Y-91838687D01*
X132892758Y-91790024D01*
X132744924Y-91711005D01*
X132744922Y-91711004D01*
X132615341Y-91604659D01*
X132508996Y-91475078D01*
X132500886Y-91459906D01*
X132429976Y-91327242D01*
X132381313Y-91166823D01*
X132364883Y-91000000D01*
X132381313Y-90833177D01*
X132429976Y-90672758D01*
X132508995Y-90524924D01*
X132508996Y-90524922D01*
X132615341Y-90395341D01*
X132744922Y-90288996D01*
X132760094Y-90280886D01*
X132892758Y-90209976D01*
X133053177Y-90161313D01*
X133178196Y-90149000D01*
X133261804Y-90149000D01*
X133386823Y-90161313D01*
X133386823Y-90161313D01*
G37*
G36*
X191629487Y-85248996D02*
G01*
X191866253Y-85347068D01*
X191866255Y-85347069D01*
X192079339Y-85489447D01*
X192260553Y-85670661D01*
X192402932Y-85883747D01*
X192501004Y-86120513D01*
X192551000Y-86371861D01*
X192551000Y-86628139D01*
X192501004Y-86879487D01*
X192402932Y-87116253D01*
X192402931Y-87116255D01*
X192260553Y-87329339D01*
X192079339Y-87510553D01*
X191866255Y-87652931D01*
X191866254Y-87652932D01*
X191866253Y-87652932D01*
X191629487Y-87751004D01*
X191378139Y-87801000D01*
X191121861Y-87801000D01*
X190870513Y-87751004D01*
X190633747Y-87652932D01*
X190633746Y-87652932D01*
X190633745Y-87652931D01*
X190420661Y-87510553D01*
X190239447Y-87329339D01*
X190097069Y-87116255D01*
X190097068Y-87116253D01*
X189998996Y-86879487D01*
X189949000Y-86628139D01*
X189949000Y-86371861D01*
X189998996Y-86120513D01*
X190097068Y-85883747D01*
X190239447Y-85670661D01*
X190420661Y-85489447D01*
X190633745Y-85347069D01*
X190633747Y-85347068D01*
X190870513Y-85248996D01*
X191121861Y-85199000D01*
X191378139Y-85199000D01*
X191629487Y-85248996D01*
X191629487Y-85248996D01*
G37*
G36*
X201375256Y-80391298D02*
G01*
X201481579Y-80412447D01*
X201782042Y-80536903D01*
X202052451Y-80717585D01*
X202282415Y-80947549D01*
X202463097Y-81217958D01*
X202587553Y-81518421D01*
X202599817Y-81580075D01*
X202651000Y-81837389D01*
X202651000Y-82162611D01*
X202617072Y-82333175D01*
X202587553Y-82481579D01*
X202463097Y-82782042D01*
X202282415Y-83052451D01*
X202052451Y-83282415D01*
X201782042Y-83463097D01*
X201481579Y-83587553D01*
X201375256Y-83608702D01*
X201162611Y-83651000D01*
X200837389Y-83651000D01*
X200624744Y-83608702D01*
X200518421Y-83587553D01*
X200217958Y-83463097D01*
X199947549Y-83282415D01*
X199717585Y-83052451D01*
X199536903Y-82782042D01*
X199412447Y-82481579D01*
X199382928Y-82333175D01*
X199349000Y-82162611D01*
X199349000Y-81837389D01*
X199400183Y-81580075D01*
X199412447Y-81518421D01*
X199536903Y-81217958D01*
X199717585Y-80947549D01*
X199947549Y-80717585D01*
X200217958Y-80536903D01*
X200518421Y-80412447D01*
X200624744Y-80391298D01*
X200837389Y-80349000D01*
X201162611Y-80349000D01*
X201375256Y-80391298D01*
X201375256Y-80391298D01*
G37*
G36*
X114248228Y-81681703D02*
G01*
X114403100Y-81745853D01*
X114542481Y-81838985D01*
X114661015Y-81957519D01*
X114754147Y-82096900D01*
X114818297Y-82251772D01*
X114851000Y-82416184D01*
X114851000Y-82583816D01*
X114818297Y-82748228D01*
X114754147Y-82903100D01*
X114661015Y-83042481D01*
X114542481Y-83161015D01*
X114403100Y-83254147D01*
X114248228Y-83318297D01*
X114083816Y-83351000D01*
X113916184Y-83351000D01*
X113751772Y-83318297D01*
X113596900Y-83254147D01*
X113457519Y-83161015D01*
X113338985Y-83042481D01*
X113245853Y-82903100D01*
X113181703Y-82748228D01*
X113149000Y-82583816D01*
X113149000Y-82416184D01*
X113181703Y-82251772D01*
X113245853Y-82096900D01*
X113338985Y-81957519D01*
X113457519Y-81838985D01*
X113596900Y-81745853D01*
X113751772Y-81681703D01*
X113916184Y-81649000D01*
X114083816Y-81649000D01*
X114248228Y-81681703D01*
X114248228Y-81681703D01*
G37*
G36*
X121346823Y-81661313D02*
G01*
X121507242Y-81709976D01*
X121574361Y-81745852D01*
X121655078Y-81788996D01*
X121784659Y-81895341D01*
X121891004Y-82024922D01*
X121891005Y-82024924D01*
X121970024Y-82172758D01*
X122018687Y-82333177D01*
X122035117Y-82500000D01*
X122018687Y-82666823D01*
X121970024Y-82827242D01*
X121929477Y-82903100D01*
X121891004Y-82975078D01*
X121784659Y-83104659D01*
X121655078Y-83211004D01*
X121655076Y-83211005D01*
X121507242Y-83290024D01*
X121346823Y-83338687D01*
X121221804Y-83351000D01*
X120138196Y-83351000D01*
X120013177Y-83338687D01*
X119852758Y-83290024D01*
X119704924Y-83211005D01*
X119704922Y-83211004D01*
X119575341Y-83104659D01*
X119468996Y-82975078D01*
X119430523Y-82903100D01*
X119389976Y-82827242D01*
X119341313Y-82666823D01*
X119324883Y-82500000D01*
X119341313Y-82333177D01*
X119389976Y-82172758D01*
X119468995Y-82024924D01*
X119468996Y-82024922D01*
X119575341Y-81895341D01*
X119704922Y-81788996D01*
X119785639Y-81745852D01*
X119852758Y-81709976D01*
X120013177Y-81661313D01*
X120138196Y-81649000D01*
X121221804Y-81649000D01*
X121346823Y-81661313D01*
X121346823Y-81661313D01*
G37*
G36*
X131237142Y-80718242D02*
G01*
X131385101Y-80779529D01*
X131518255Y-80868499D01*
X131631501Y-80981745D01*
X131720471Y-81114899D01*
X131781758Y-81262858D01*
X131813000Y-81419925D01*
X131813000Y-81580075D01*
X131781758Y-81737142D01*
X131720471Y-81885101D01*
X131631501Y-82018255D01*
X131518255Y-82131501D01*
X131385101Y-82220471D01*
X131237142Y-82281758D01*
X131080075Y-82313000D01*
X130919925Y-82313000D01*
X130762858Y-82281758D01*
X130614899Y-82220471D01*
X130481745Y-82131501D01*
X130368499Y-82018255D01*
X130279529Y-81885101D01*
X130218242Y-81737142D01*
X130187000Y-81580075D01*
X130187000Y-81419925D01*
X130218242Y-81262858D01*
X130279529Y-81114899D01*
X130368499Y-80981745D01*
X130481745Y-80868499D01*
X130614899Y-80779529D01*
X130762858Y-80718242D01*
X130919925Y-80687000D01*
X131080075Y-80687000D01*
X131237142Y-80718242D01*
X131237142Y-80718242D01*
G37*
G36*
X140189890Y-79874017D02*
G01*
X140308364Y-79923091D01*
X140414988Y-79994335D01*
X140505665Y-80085012D01*
X140576909Y-80191636D01*
X140625983Y-80310110D01*
X140651000Y-80435882D01*
X140651000Y-80564118D01*
X140625983Y-80689890D01*
X140576909Y-80808364D01*
X140505665Y-80914988D01*
X140414988Y-81005665D01*
X140308364Y-81076909D01*
X140308363Y-81076910D01*
X140308362Y-81076910D01*
X140189890Y-81125983D01*
X140064119Y-81151000D01*
X139935881Y-81151000D01*
X139810110Y-81125983D01*
X139691638Y-81076910D01*
X139691637Y-81076910D01*
X139691636Y-81076909D01*
X139585012Y-81005665D01*
X139494335Y-80914988D01*
X139423091Y-80808364D01*
X139374017Y-80689890D01*
X139349000Y-80564118D01*
X139349000Y-80435882D01*
X139374017Y-80310110D01*
X139423091Y-80191636D01*
X139494335Y-80085012D01*
X139585012Y-79994335D01*
X139691636Y-79923091D01*
X139810110Y-79874017D01*
X139935881Y-79849000D01*
X140064119Y-79849000D01*
X140189890Y-79874017D01*
X140189890Y-79874017D01*
G37*
G36*
X135189890Y-79874017D02*
G01*
X135308364Y-79923091D01*
X135414988Y-79994335D01*
X135505665Y-80085012D01*
X135576909Y-80191636D01*
X135625983Y-80310110D01*
X135651000Y-80435882D01*
X135651000Y-80564118D01*
X135625983Y-80689890D01*
X135576909Y-80808364D01*
X135505665Y-80914988D01*
X135414988Y-81005665D01*
X135308364Y-81076909D01*
X135308363Y-81076910D01*
X135308362Y-81076910D01*
X135189890Y-81125983D01*
X135064119Y-81151000D01*
X134935881Y-81151000D01*
X134810110Y-81125983D01*
X134691638Y-81076910D01*
X134691637Y-81076910D01*
X134691636Y-81076909D01*
X134585012Y-81005665D01*
X134494335Y-80914988D01*
X134423091Y-80808364D01*
X134374017Y-80689890D01*
X134349000Y-80564118D01*
X134349000Y-80435882D01*
X134374017Y-80310110D01*
X134423091Y-80191636D01*
X134494335Y-80085012D01*
X134585012Y-79994335D01*
X134691636Y-79923091D01*
X134810110Y-79874017D01*
X134935881Y-79849000D01*
X135064119Y-79849000D01*
X135189890Y-79874017D01*
X135189890Y-79874017D01*
G37*
G36*
X113164549Y-78821116D02*
G01*
X113275734Y-78843232D01*
X113485203Y-78929997D01*
X113673720Y-79055960D01*
X113834040Y-79216280D01*
X113960003Y-79404797D01*
X114046768Y-79614266D01*
X114091000Y-79836636D01*
X114091000Y-80063364D01*
X114046768Y-80285734D01*
X113960003Y-80495203D01*
X113834040Y-80683720D01*
X113673720Y-80844040D01*
X113485203Y-80970003D01*
X113485202Y-80970004D01*
X113485201Y-80970004D01*
X113423850Y-80995416D01*
X113275734Y-81056768D01*
X113174478Y-81076909D01*
X113053365Y-81101000D01*
X112826635Y-81101000D01*
X112705522Y-81076909D01*
X112604266Y-81056768D01*
X112456150Y-80995416D01*
X112394799Y-80970004D01*
X112394798Y-80970004D01*
X112394797Y-80970003D01*
X112206280Y-80844040D01*
X112045960Y-80683720D01*
X111919997Y-80495203D01*
X111833232Y-80285734D01*
X111789000Y-80063364D01*
X111789000Y-79836636D01*
X111833232Y-79614266D01*
X111919997Y-79404797D01*
X112045960Y-79216280D01*
X112206280Y-79055960D01*
X112394797Y-78929997D01*
X112604266Y-78843232D01*
X112715451Y-78821116D01*
X112826635Y-78799000D01*
X113053365Y-78799000D01*
X113164549Y-78821116D01*
X113164549Y-78821116D01*
G37*
G36*
X122064549Y-78821116D02*
G01*
X122175734Y-78843232D01*
X122385203Y-78929997D01*
X122573720Y-79055960D01*
X122734040Y-79216280D01*
X122860003Y-79404797D01*
X122946768Y-79614266D01*
X122991000Y-79836636D01*
X122991000Y-80063364D01*
X122946768Y-80285734D01*
X122860003Y-80495203D01*
X122734040Y-80683720D01*
X122573720Y-80844040D01*
X122385203Y-80970003D01*
X122385202Y-80970004D01*
X122385201Y-80970004D01*
X122323850Y-80995416D01*
X122175734Y-81056768D01*
X122074478Y-81076909D01*
X121953365Y-81101000D01*
X121726635Y-81101000D01*
X121605522Y-81076909D01*
X121504266Y-81056768D01*
X121356150Y-80995416D01*
X121294799Y-80970004D01*
X121294798Y-80970004D01*
X121294797Y-80970003D01*
X121106280Y-80844040D01*
X120945960Y-80683720D01*
X120819997Y-80495203D01*
X120733232Y-80285734D01*
X120689000Y-80063364D01*
X120689000Y-79836636D01*
X120733232Y-79614266D01*
X120819997Y-79404797D01*
X120945960Y-79216280D01*
X121106280Y-79055960D01*
X121294797Y-78929997D01*
X121504266Y-78843232D01*
X121615451Y-78821116D01*
X121726635Y-78799000D01*
X121953365Y-78799000D01*
X122064549Y-78821116D01*
X122064549Y-78821116D01*
G37*
G36*
X119764549Y-77321116D02*
G01*
X119875734Y-77343232D01*
X119950055Y-77374017D01*
X120068531Y-77423091D01*
X120085203Y-77429997D01*
X120273720Y-77555960D01*
X120434040Y-77716280D01*
X120496735Y-77810110D01*
X120560004Y-77904799D01*
X120572879Y-77935882D01*
X120646768Y-78114266D01*
X120668884Y-78225451D01*
X120685377Y-78308364D01*
X120691000Y-78336636D01*
X120691000Y-78563364D01*
X120646768Y-78785734D01*
X120560003Y-78995203D01*
X120434040Y-79183720D01*
X120273720Y-79344040D01*
X120085203Y-79470003D01*
X119875734Y-79556768D01*
X119764549Y-79578884D01*
X119653365Y-79601000D01*
X119426635Y-79601000D01*
X119315451Y-79578884D01*
X119204266Y-79556768D01*
X118994797Y-79470003D01*
X118806280Y-79344040D01*
X118645960Y-79183720D01*
X118519997Y-78995203D01*
X118433232Y-78785734D01*
X118389000Y-78563364D01*
X118389000Y-78336636D01*
X118394624Y-78308364D01*
X118411116Y-78225451D01*
X118433232Y-78114266D01*
X118507121Y-77935882D01*
X118519996Y-77904799D01*
X118583265Y-77810110D01*
X118645960Y-77716280D01*
X118806280Y-77555960D01*
X118994797Y-77429997D01*
X119011470Y-77423091D01*
X119129945Y-77374017D01*
X119204266Y-77343232D01*
X119315451Y-77321116D01*
X119426635Y-77299000D01*
X119653365Y-77299000D01*
X119764549Y-77321116D01*
X119764549Y-77321116D01*
G37*
G36*
X115314549Y-77321116D02*
G01*
X115425734Y-77343232D01*
X115500055Y-77374017D01*
X115618531Y-77423091D01*
X115635203Y-77429997D01*
X115823720Y-77555960D01*
X115984040Y-77716280D01*
X116046735Y-77810110D01*
X116110004Y-77904799D01*
X116122879Y-77935882D01*
X116196768Y-78114266D01*
X116218884Y-78225451D01*
X116235377Y-78308364D01*
X116241000Y-78336636D01*
X116241000Y-78563364D01*
X116196768Y-78785734D01*
X116110003Y-78995203D01*
X115984040Y-79183720D01*
X115823720Y-79344040D01*
X115635203Y-79470003D01*
X115425734Y-79556768D01*
X115314549Y-79578884D01*
X115203365Y-79601000D01*
X114976635Y-79601000D01*
X114865451Y-79578884D01*
X114754266Y-79556768D01*
X114544797Y-79470003D01*
X114356280Y-79344040D01*
X114195960Y-79183720D01*
X114069997Y-78995203D01*
X113983232Y-78785734D01*
X113939000Y-78563364D01*
X113939000Y-78336636D01*
X113944624Y-78308364D01*
X113961116Y-78225451D01*
X113983232Y-78114266D01*
X114057121Y-77935882D01*
X114069996Y-77904799D01*
X114133265Y-77810110D01*
X114195960Y-77716280D01*
X114356280Y-77555960D01*
X114544797Y-77429997D01*
X114561470Y-77423091D01*
X114679945Y-77374017D01*
X114754266Y-77343232D01*
X114865451Y-77321116D01*
X114976635Y-77299000D01*
X115203365Y-77299000D01*
X115314549Y-77321116D01*
X115314549Y-77321116D01*
G37*
G36*
X137689890Y-77374017D02*
G01*
X137808364Y-77423091D01*
X137914988Y-77494335D01*
X138005665Y-77585012D01*
X138076910Y-77691638D01*
X138125983Y-77810110D01*
X138144818Y-77904799D01*
X138151000Y-77935882D01*
X138151000Y-78064118D01*
X138125983Y-78189890D01*
X138076909Y-78308364D01*
X138005665Y-78414988D01*
X137914988Y-78505665D01*
X137808364Y-78576909D01*
X137808363Y-78576910D01*
X137808362Y-78576910D01*
X137689890Y-78625983D01*
X137564119Y-78651000D01*
X137435881Y-78651000D01*
X137310110Y-78625983D01*
X137191638Y-78576910D01*
X137191637Y-78576910D01*
X137191636Y-78576909D01*
X137085012Y-78505665D01*
X136994335Y-78414988D01*
X136923091Y-78308364D01*
X136874017Y-78189890D01*
X136849000Y-78064118D01*
X136849000Y-77935882D01*
X136855183Y-77904799D01*
X136874017Y-77810110D01*
X136923090Y-77691638D01*
X136994335Y-77585012D01*
X137085012Y-77494335D01*
X137191636Y-77423091D01*
X137310110Y-77374017D01*
X137435881Y-77349000D01*
X137564119Y-77349000D01*
X137689890Y-77374017D01*
X137689890Y-77374017D01*
G37*
G36*
X140737142Y-74718242D02*
G01*
X140885101Y-74779529D01*
X141018255Y-74868499D01*
X141131501Y-74981745D01*
X141220471Y-75114899D01*
X141281758Y-75262858D01*
X141313000Y-75419925D01*
X141313000Y-75580075D01*
X141281758Y-75737142D01*
X141220471Y-75885101D01*
X141131501Y-76018255D01*
X141018255Y-76131501D01*
X140885101Y-76220471D01*
X140737142Y-76281758D01*
X140580075Y-76313000D01*
X140419925Y-76313000D01*
X140262858Y-76281758D01*
X140114899Y-76220471D01*
X139981745Y-76131501D01*
X139868499Y-76018255D01*
X139779529Y-75885101D01*
X139718242Y-75737142D01*
X139687000Y-75580075D01*
X139687000Y-75419925D01*
X139718242Y-75262858D01*
X139779529Y-75114899D01*
X139868499Y-74981745D01*
X139981745Y-74868499D01*
X140114899Y-74779529D01*
X140262858Y-74718242D01*
X140419925Y-74687000D01*
X140580075Y-74687000D01*
X140737142Y-74718242D01*
X140737142Y-74718242D01*
G37*
G36*
X107306564Y-71189389D02*
G01*
X107497833Y-71268615D01*
X107497835Y-71268616D01*
X107669973Y-71383635D01*
X107816365Y-71530027D01*
X107910894Y-71671499D01*
X107931385Y-71702167D01*
X108010611Y-71893436D01*
X108051000Y-72096484D01*
X108051000Y-72303516D01*
X108010611Y-72506564D01*
X107931385Y-72697833D01*
X107931384Y-72697835D01*
X107816365Y-72869973D01*
X107669973Y-73016365D01*
X107497835Y-73131384D01*
X107497834Y-73131385D01*
X107497833Y-73131385D01*
X107306564Y-73210611D01*
X107103516Y-73251000D01*
X106896484Y-73251000D01*
X106693436Y-73210611D01*
X106502167Y-73131385D01*
X106502166Y-73131385D01*
X106502165Y-73131384D01*
X106330027Y-73016365D01*
X106183635Y-72869973D01*
X106068616Y-72697835D01*
X106068615Y-72697833D01*
X105989389Y-72506564D01*
X105949000Y-72303516D01*
X105949000Y-72096484D01*
X105989389Y-71893436D01*
X106068615Y-71702167D01*
X106089107Y-71671499D01*
X106183635Y-71530027D01*
X106330027Y-71383635D01*
X106502165Y-71268616D01*
X106502167Y-71268615D01*
X106693436Y-71189389D01*
X106896484Y-71149000D01*
X107103516Y-71149000D01*
X107306564Y-71189389D01*
X107306564Y-71189389D01*
G37*
G36*
X126737142Y-70258242D02*
G01*
X126885101Y-70319529D01*
X127018255Y-70408499D01*
X127131501Y-70521745D01*
X127220471Y-70654899D01*
X127281758Y-70802858D01*
X127313000Y-70959925D01*
X127313000Y-71120075D01*
X127281758Y-71277142D01*
X127220471Y-71425101D01*
X127131501Y-71558255D01*
X127018255Y-71671501D01*
X126885101Y-71760471D01*
X126737142Y-71821758D01*
X126580075Y-71853000D01*
X126419925Y-71853000D01*
X126262858Y-71821758D01*
X126114899Y-71760471D01*
X125981745Y-71671501D01*
X125868499Y-71558255D01*
X125779529Y-71425101D01*
X125718242Y-71277142D01*
X125687000Y-71120075D01*
X125687000Y-70959925D01*
X125718242Y-70802858D01*
X125779529Y-70654899D01*
X125868499Y-70521745D01*
X125981745Y-70408499D01*
X126114899Y-70319529D01*
X126262858Y-70258242D01*
X126419925Y-70227000D01*
X126580075Y-70227000D01*
X126737142Y-70258242D01*
X126737142Y-70258242D01*
G37*
G36*
X126737142Y-67718242D02*
G01*
X126885101Y-67779529D01*
X127018255Y-67868499D01*
X127131501Y-67981745D01*
X127220471Y-68114899D01*
X127281758Y-68262858D01*
X127313000Y-68419925D01*
X127313000Y-68580075D01*
X127281758Y-68737142D01*
X127220471Y-68885101D01*
X127131501Y-69018255D01*
X127018255Y-69131501D01*
X126885101Y-69220471D01*
X126737142Y-69281758D01*
X126580075Y-69313000D01*
X126419925Y-69313000D01*
X126262858Y-69281758D01*
X126114899Y-69220471D01*
X125981745Y-69131501D01*
X125868499Y-69018255D01*
X125779529Y-68885101D01*
X125718242Y-68737142D01*
X125687000Y-68580075D01*
X125687000Y-68419925D01*
X125718242Y-68262858D01*
X125779529Y-68114899D01*
X125868499Y-67981745D01*
X125981745Y-67868499D01*
X126114899Y-67779529D01*
X126262858Y-67718242D01*
X126419925Y-67687000D01*
X126580075Y-67687000D01*
X126737142Y-67718242D01*
X126737142Y-67718242D01*
G37*
G36*
X127313000Y-66773000D02*
G01*
X125687000Y-66773000D01*
X125687000Y-65147000D01*
X127313000Y-65147000D01*
X127313000Y-66773000D01*
X127313000Y-66773000D01*
G37*
G36*
X107306564Y-63789389D02*
G01*
X107497833Y-63868615D01*
X107497835Y-63868616D01*
X107669973Y-63983635D01*
X107816365Y-64130027D01*
X107931385Y-64302167D01*
X108010611Y-64493436D01*
X108051000Y-64696484D01*
X108051000Y-64903516D01*
X108010611Y-65106564D01*
X107931385Y-65297833D01*
X107931384Y-65297835D01*
X107816365Y-65469973D01*
X107669973Y-65616365D01*
X107497835Y-65731384D01*
X107497834Y-65731385D01*
X107497833Y-65731385D01*
X107306564Y-65810611D01*
X107103516Y-65851000D01*
X106896484Y-65851000D01*
X106693436Y-65810611D01*
X106502167Y-65731385D01*
X106502166Y-65731385D01*
X106502165Y-65731384D01*
X106330027Y-65616365D01*
X106183635Y-65469973D01*
X106068616Y-65297835D01*
X106068615Y-65297833D01*
X105989389Y-65106564D01*
X105949000Y-64903516D01*
X105949000Y-64696484D01*
X105989389Y-64493436D01*
X106068615Y-64302167D01*
X106183635Y-64130027D01*
X106330027Y-63983635D01*
X106502165Y-63868616D01*
X106502167Y-63868615D01*
X106693436Y-63789389D01*
X106896484Y-63749000D01*
X107103516Y-63749000D01*
X107306564Y-63789389D01*
X107306564Y-63789389D01*
G37*
G36*
X137756823Y-58711313D02*
G01*
X137917242Y-58759976D01*
X137984361Y-58795852D01*
X138065078Y-58838996D01*
X138194659Y-58945341D01*
X138301004Y-59074922D01*
X138301005Y-59074924D01*
X138380024Y-59222758D01*
X138428687Y-59383177D01*
X138445117Y-59550000D01*
X138428687Y-59716823D01*
X138380024Y-59877242D01*
X138309114Y-60009906D01*
X138301004Y-60025078D01*
X138194659Y-60154659D01*
X138065078Y-60261004D01*
X138065076Y-60261005D01*
X137917242Y-60340024D01*
X137756823Y-60388687D01*
X137631804Y-60401000D01*
X136548196Y-60401000D01*
X136423177Y-60388687D01*
X136262758Y-60340024D01*
X136114924Y-60261005D01*
X136114922Y-60261004D01*
X135985341Y-60154659D01*
X135878996Y-60025078D01*
X135870886Y-60009906D01*
X135799976Y-59877242D01*
X135751313Y-59716823D01*
X135734883Y-59550000D01*
X135751313Y-59383177D01*
X135799976Y-59222758D01*
X135878995Y-59074924D01*
X135878996Y-59074922D01*
X135985341Y-58945341D01*
X136114922Y-58838996D01*
X136195639Y-58795852D01*
X136262758Y-58759976D01*
X136423177Y-58711313D01*
X136548196Y-58699000D01*
X137631804Y-58699000D01*
X137756823Y-58711313D01*
X137756823Y-58711313D01*
G37*
G36*
X130658228Y-58731703D02*
G01*
X130813100Y-58795853D01*
X130952481Y-58888985D01*
X131071015Y-59007519D01*
X131164147Y-59146900D01*
X131228297Y-59301772D01*
X131261000Y-59466184D01*
X131261000Y-59633816D01*
X131228297Y-59798228D01*
X131164147Y-59953100D01*
X131071015Y-60092481D01*
X130952481Y-60211015D01*
X130813100Y-60304147D01*
X130658228Y-60368297D01*
X130493816Y-60401000D01*
X130326184Y-60401000D01*
X130161772Y-60368297D01*
X130006900Y-60304147D01*
X129867519Y-60211015D01*
X129748985Y-60092481D01*
X129655853Y-59953100D01*
X129591703Y-59798228D01*
X129559000Y-59633816D01*
X129559000Y-59466184D01*
X129591703Y-59301772D01*
X129655853Y-59146900D01*
X129748985Y-59007519D01*
X129867519Y-58888985D01*
X130006900Y-58795853D01*
X130161772Y-58731703D01*
X130326184Y-58699000D01*
X130493816Y-58699000D01*
X130658228Y-58731703D01*
X130658228Y-58731703D01*
G37*
G36*
X178346823Y-58661313D02*
G01*
X178507242Y-58709976D01*
X178574361Y-58745852D01*
X178655078Y-58788996D01*
X178784659Y-58895341D01*
X178891004Y-59024922D01*
X178891005Y-59024924D01*
X178970024Y-59172758D01*
X179018687Y-59333177D01*
X179035117Y-59500000D01*
X179018687Y-59666823D01*
X178970024Y-59827242D01*
X178929477Y-59903100D01*
X178891004Y-59975078D01*
X178784659Y-60104659D01*
X178655078Y-60211004D01*
X178655076Y-60211005D01*
X178507242Y-60290024D01*
X178346823Y-60338687D01*
X178221804Y-60351000D01*
X177138196Y-60351000D01*
X177013177Y-60338687D01*
X176852758Y-60290024D01*
X176704924Y-60211005D01*
X176704922Y-60211004D01*
X176575341Y-60104659D01*
X176468996Y-59975078D01*
X176430523Y-59903100D01*
X176389976Y-59827242D01*
X176341313Y-59666823D01*
X176324883Y-59500000D01*
X176341313Y-59333177D01*
X176389976Y-59172758D01*
X176468995Y-59024924D01*
X176468996Y-59024922D01*
X176575341Y-58895341D01*
X176704922Y-58788996D01*
X176785639Y-58745852D01*
X176852758Y-58709976D01*
X177013177Y-58661313D01*
X177138196Y-58649000D01*
X178221804Y-58649000D01*
X178346823Y-58661313D01*
X178346823Y-58661313D01*
G37*
G36*
X171248228Y-58681703D02*
G01*
X171403100Y-58745853D01*
X171542481Y-58838985D01*
X171661015Y-58957519D01*
X171754147Y-59096900D01*
X171818297Y-59251772D01*
X171851000Y-59416184D01*
X171851000Y-59583816D01*
X171818297Y-59748228D01*
X171754147Y-59903100D01*
X171661015Y-60042481D01*
X171542481Y-60161015D01*
X171403100Y-60254147D01*
X171248228Y-60318297D01*
X171083816Y-60351000D01*
X170916184Y-60351000D01*
X170751772Y-60318297D01*
X170596900Y-60254147D01*
X170457519Y-60161015D01*
X170338985Y-60042481D01*
X170245853Y-59903100D01*
X170181703Y-59748228D01*
X170149000Y-59583816D01*
X170149000Y-59416184D01*
X170181703Y-59251772D01*
X170245853Y-59096900D01*
X170338985Y-58957519D01*
X170457519Y-58838985D01*
X170596900Y-58745853D01*
X170751772Y-58681703D01*
X170916184Y-58649000D01*
X171083816Y-58649000D01*
X171248228Y-58681703D01*
X171248228Y-58681703D01*
G37*
G36*
X164846823Y-58661313D02*
G01*
X165007242Y-58709976D01*
X165074361Y-58745852D01*
X165155078Y-58788996D01*
X165284659Y-58895341D01*
X165391004Y-59024922D01*
X165391005Y-59024924D01*
X165470024Y-59172758D01*
X165518687Y-59333177D01*
X165535117Y-59500000D01*
X165518687Y-59666823D01*
X165470024Y-59827242D01*
X165429477Y-59903100D01*
X165391004Y-59975078D01*
X165284659Y-60104659D01*
X165155078Y-60211004D01*
X165155076Y-60211005D01*
X165007242Y-60290024D01*
X164846823Y-60338687D01*
X164721804Y-60351000D01*
X163638196Y-60351000D01*
X163513177Y-60338687D01*
X163352758Y-60290024D01*
X163204924Y-60211005D01*
X163204922Y-60211004D01*
X163075341Y-60104659D01*
X162968996Y-59975078D01*
X162930523Y-59903100D01*
X162889976Y-59827242D01*
X162841313Y-59666823D01*
X162824883Y-59500000D01*
X162841313Y-59333177D01*
X162889976Y-59172758D01*
X162968995Y-59024924D01*
X162968996Y-59024922D01*
X163075341Y-58895341D01*
X163204922Y-58788996D01*
X163285639Y-58745852D01*
X163352758Y-58709976D01*
X163513177Y-58661313D01*
X163638196Y-58649000D01*
X164721804Y-58649000D01*
X164846823Y-58661313D01*
X164846823Y-58661313D01*
G37*
G36*
X157748228Y-58681703D02*
G01*
X157903100Y-58745853D01*
X158042481Y-58838985D01*
X158161015Y-58957519D01*
X158254147Y-59096900D01*
X158318297Y-59251772D01*
X158351000Y-59416184D01*
X158351000Y-59583816D01*
X158318297Y-59748228D01*
X158254147Y-59903100D01*
X158161015Y-60042481D01*
X158042481Y-60161015D01*
X157903100Y-60254147D01*
X157748228Y-60318297D01*
X157583816Y-60351000D01*
X157416184Y-60351000D01*
X157251772Y-60318297D01*
X157096900Y-60254147D01*
X156957519Y-60161015D01*
X156838985Y-60042481D01*
X156745853Y-59903100D01*
X156681703Y-59748228D01*
X156649000Y-59583816D01*
X156649000Y-59416184D01*
X156681703Y-59251772D01*
X156745853Y-59096900D01*
X156838985Y-58957519D01*
X156957519Y-58838985D01*
X157096900Y-58745853D01*
X157251772Y-58681703D01*
X157416184Y-58649000D01*
X157583816Y-58649000D01*
X157748228Y-58681703D01*
X157748228Y-58681703D01*
G37*
G36*
X151346823Y-58661313D02*
G01*
X151507242Y-58709976D01*
X151574361Y-58745852D01*
X151655078Y-58788996D01*
X151784659Y-58895341D01*
X151891004Y-59024922D01*
X151891005Y-59024924D01*
X151970024Y-59172758D01*
X152018687Y-59333177D01*
X152035117Y-59500000D01*
X152018687Y-59666823D01*
X151970024Y-59827242D01*
X151929477Y-59903100D01*
X151891004Y-59975078D01*
X151784659Y-60104659D01*
X151655078Y-60211004D01*
X151655076Y-60211005D01*
X151507242Y-60290024D01*
X151346823Y-60338687D01*
X151221804Y-60351000D01*
X150138196Y-60351000D01*
X150013177Y-60338687D01*
X149852758Y-60290024D01*
X149704924Y-60211005D01*
X149704922Y-60211004D01*
X149575341Y-60104659D01*
X149468996Y-59975078D01*
X149430523Y-59903100D01*
X149389976Y-59827242D01*
X149341313Y-59666823D01*
X149324883Y-59500000D01*
X149341313Y-59333177D01*
X149389976Y-59172758D01*
X149468995Y-59024924D01*
X149468996Y-59024922D01*
X149575341Y-58895341D01*
X149704922Y-58788996D01*
X149785639Y-58745852D01*
X149852758Y-58709976D01*
X150013177Y-58661313D01*
X150138196Y-58649000D01*
X151221804Y-58649000D01*
X151346823Y-58661313D01*
X151346823Y-58661313D01*
G37*
G36*
X144248228Y-58681703D02*
G01*
X144403100Y-58745853D01*
X144542481Y-58838985D01*
X144661015Y-58957519D01*
X144754147Y-59096900D01*
X144818297Y-59251772D01*
X144851000Y-59416184D01*
X144851000Y-59583816D01*
X144818297Y-59748228D01*
X144754147Y-59903100D01*
X144661015Y-60042481D01*
X144542481Y-60161015D01*
X144403100Y-60254147D01*
X144248228Y-60318297D01*
X144083816Y-60351000D01*
X143916184Y-60351000D01*
X143751772Y-60318297D01*
X143596900Y-60254147D01*
X143457519Y-60161015D01*
X143338985Y-60042481D01*
X143245853Y-59903100D01*
X143181703Y-59748228D01*
X143149000Y-59583816D01*
X143149000Y-59416184D01*
X143181703Y-59251772D01*
X143245853Y-59096900D01*
X143338985Y-58957519D01*
X143457519Y-58838985D01*
X143596900Y-58745853D01*
X143751772Y-58681703D01*
X143916184Y-58649000D01*
X144083816Y-58649000D01*
X144248228Y-58681703D01*
X144248228Y-58681703D01*
G37*
G36*
X138474549Y-55871116D02*
G01*
X138585734Y-55893232D01*
X138795203Y-55979997D01*
X138983720Y-56105960D01*
X139144040Y-56266280D01*
X139229406Y-56394040D01*
X139270004Y-56454799D01*
X139295416Y-56516150D01*
X139336058Y-56614267D01*
X139356768Y-56664267D01*
X139391055Y-56836636D01*
X139401000Y-56886636D01*
X139401000Y-57113364D01*
X139356768Y-57335734D01*
X139270003Y-57545203D01*
X139144040Y-57733720D01*
X138983720Y-57894040D01*
X138795203Y-58020003D01*
X138585734Y-58106768D01*
X138474549Y-58128884D01*
X138363365Y-58151000D01*
X138136635Y-58151000D01*
X138025451Y-58128884D01*
X137914266Y-58106768D01*
X137704797Y-58020003D01*
X137516280Y-57894040D01*
X137355960Y-57733720D01*
X137229997Y-57545203D01*
X137143232Y-57335734D01*
X137099000Y-57113364D01*
X137099000Y-56886636D01*
X137108946Y-56836636D01*
X137143232Y-56664267D01*
X137163943Y-56614267D01*
X137204584Y-56516150D01*
X137229996Y-56454799D01*
X137270594Y-56394040D01*
X137355960Y-56266280D01*
X137516280Y-56105960D01*
X137704797Y-55979997D01*
X137914266Y-55893232D01*
X138025451Y-55871116D01*
X138136635Y-55849000D01*
X138363365Y-55849000D01*
X138474549Y-55871116D01*
X138474549Y-55871116D01*
G37*
G36*
X129574549Y-55871116D02*
G01*
X129685734Y-55893232D01*
X129895203Y-55979997D01*
X130083720Y-56105960D01*
X130244040Y-56266280D01*
X130329406Y-56394040D01*
X130370004Y-56454799D01*
X130395416Y-56516150D01*
X130436058Y-56614267D01*
X130456768Y-56664267D01*
X130491055Y-56836636D01*
X130501000Y-56886636D01*
X130501000Y-57113364D01*
X130456768Y-57335734D01*
X130370003Y-57545203D01*
X130244040Y-57733720D01*
X130083720Y-57894040D01*
X129895203Y-58020003D01*
X129685734Y-58106768D01*
X129574549Y-58128884D01*
X129463365Y-58151000D01*
X129236635Y-58151000D01*
X129125451Y-58128884D01*
X129014266Y-58106768D01*
X128804797Y-58020003D01*
X128616280Y-57894040D01*
X128455960Y-57733720D01*
X128329997Y-57545203D01*
X128243232Y-57335734D01*
X128199000Y-57113364D01*
X128199000Y-56886636D01*
X128208946Y-56836636D01*
X128243232Y-56664267D01*
X128263943Y-56614267D01*
X128304584Y-56516150D01*
X128329996Y-56454799D01*
X128370594Y-56394040D01*
X128455960Y-56266280D01*
X128616280Y-56105960D01*
X128804797Y-55979997D01*
X129014266Y-55893232D01*
X129125451Y-55871116D01*
X129236635Y-55849000D01*
X129463365Y-55849000D01*
X129574549Y-55871116D01*
X129574549Y-55871116D01*
G37*
G36*
X152064549Y-55821116D02*
G01*
X152175734Y-55843232D01*
X152385203Y-55929997D01*
X152573720Y-56055960D01*
X152734040Y-56216280D01*
X152860003Y-56404797D01*
X152946768Y-56614266D01*
X152956714Y-56664267D01*
X152991000Y-56836635D01*
X152991000Y-57063365D01*
X152981054Y-57113365D01*
X152946768Y-57285734D01*
X152860003Y-57495203D01*
X152734040Y-57683720D01*
X152573720Y-57844040D01*
X152385203Y-57970003D01*
X152175734Y-58056768D01*
X152064549Y-58078884D01*
X151953365Y-58101000D01*
X151726635Y-58101000D01*
X151615451Y-58078884D01*
X151504266Y-58056768D01*
X151294797Y-57970003D01*
X151106280Y-57844040D01*
X150945960Y-57683720D01*
X150819997Y-57495203D01*
X150733232Y-57285734D01*
X150698946Y-57113365D01*
X150689000Y-57063365D01*
X150689000Y-56836635D01*
X150723286Y-56664267D01*
X150733232Y-56614266D01*
X150819997Y-56404797D01*
X150945960Y-56216280D01*
X151106280Y-56055960D01*
X151294797Y-55929997D01*
X151504266Y-55843232D01*
X151615451Y-55821116D01*
X151726635Y-55799000D01*
X151953365Y-55799000D01*
X152064549Y-55821116D01*
X152064549Y-55821116D01*
G37*
G36*
X170164549Y-55821116D02*
G01*
X170275734Y-55843232D01*
X170485203Y-55929997D01*
X170673720Y-56055960D01*
X170834040Y-56216280D01*
X170960003Y-56404797D01*
X171046768Y-56614266D01*
X171056714Y-56664267D01*
X171091000Y-56836635D01*
X171091000Y-57063365D01*
X171081054Y-57113365D01*
X171046768Y-57285734D01*
X170960003Y-57495203D01*
X170834040Y-57683720D01*
X170673720Y-57844040D01*
X170485203Y-57970003D01*
X170275734Y-58056768D01*
X170164549Y-58078884D01*
X170053365Y-58101000D01*
X169826635Y-58101000D01*
X169715451Y-58078884D01*
X169604266Y-58056768D01*
X169394797Y-57970003D01*
X169206280Y-57844040D01*
X169045960Y-57683720D01*
X168919997Y-57495203D01*
X168833232Y-57285734D01*
X168798946Y-57113365D01*
X168789000Y-57063365D01*
X168789000Y-56836635D01*
X168823286Y-56664267D01*
X168833232Y-56614266D01*
X168919997Y-56404797D01*
X169045960Y-56216280D01*
X169206280Y-56055960D01*
X169394797Y-55929997D01*
X169604266Y-55843232D01*
X169715451Y-55821116D01*
X169826635Y-55799000D01*
X170053365Y-55799000D01*
X170164549Y-55821116D01*
X170164549Y-55821116D01*
G37*
G36*
X179064549Y-55821116D02*
G01*
X179175734Y-55843232D01*
X179385203Y-55929997D01*
X179573720Y-56055960D01*
X179734040Y-56216280D01*
X179860003Y-56404797D01*
X179946768Y-56614266D01*
X179956714Y-56664267D01*
X179991000Y-56836635D01*
X179991000Y-57063365D01*
X179981054Y-57113365D01*
X179946768Y-57285734D01*
X179860003Y-57495203D01*
X179734040Y-57683720D01*
X179573720Y-57844040D01*
X179385203Y-57970003D01*
X179175734Y-58056768D01*
X179064549Y-58078884D01*
X178953365Y-58101000D01*
X178726635Y-58101000D01*
X178615451Y-58078884D01*
X178504266Y-58056768D01*
X178294797Y-57970003D01*
X178106280Y-57844040D01*
X177945960Y-57683720D01*
X177819997Y-57495203D01*
X177733232Y-57285734D01*
X177698946Y-57113365D01*
X177689000Y-57063365D01*
X177689000Y-56836635D01*
X177723286Y-56664267D01*
X177733232Y-56614266D01*
X177819997Y-56404797D01*
X177945960Y-56216280D01*
X178106280Y-56055960D01*
X178294797Y-55929997D01*
X178504266Y-55843232D01*
X178615451Y-55821116D01*
X178726635Y-55799000D01*
X178953365Y-55799000D01*
X179064549Y-55821116D01*
X179064549Y-55821116D01*
G37*
G36*
X156664549Y-55821116D02*
G01*
X156775734Y-55843232D01*
X156985203Y-55929997D01*
X157173720Y-56055960D01*
X157334040Y-56216280D01*
X157460003Y-56404797D01*
X157546768Y-56614266D01*
X157556714Y-56664267D01*
X157591000Y-56836635D01*
X157591000Y-57063365D01*
X157581054Y-57113365D01*
X157546768Y-57285734D01*
X157460003Y-57495203D01*
X157334040Y-57683720D01*
X157173720Y-57844040D01*
X156985203Y-57970003D01*
X156775734Y-58056768D01*
X156664549Y-58078884D01*
X156553365Y-58101000D01*
X156326635Y-58101000D01*
X156215451Y-58078884D01*
X156104266Y-58056768D01*
X155894797Y-57970003D01*
X155706280Y-57844040D01*
X155545960Y-57683720D01*
X155419997Y-57495203D01*
X155333232Y-57285734D01*
X155298946Y-57113365D01*
X155289000Y-57063365D01*
X155289000Y-56836635D01*
X155323286Y-56664267D01*
X155333232Y-56614266D01*
X155419997Y-56404797D01*
X155545960Y-56216280D01*
X155706280Y-56055960D01*
X155894797Y-55929997D01*
X156104266Y-55843232D01*
X156215451Y-55821116D01*
X156326635Y-55799000D01*
X156553365Y-55799000D01*
X156664549Y-55821116D01*
X156664549Y-55821116D01*
G37*
G36*
X165564549Y-55821116D02*
G01*
X165675734Y-55843232D01*
X165885203Y-55929997D01*
X166073720Y-56055960D01*
X166234040Y-56216280D01*
X166360003Y-56404797D01*
X166446768Y-56614266D01*
X166456714Y-56664267D01*
X166491000Y-56836635D01*
X166491000Y-57063365D01*
X166481054Y-57113365D01*
X166446768Y-57285734D01*
X166360003Y-57495203D01*
X166234040Y-57683720D01*
X166073720Y-57844040D01*
X165885203Y-57970003D01*
X165675734Y-58056768D01*
X165564549Y-58078884D01*
X165453365Y-58101000D01*
X165226635Y-58101000D01*
X165115451Y-58078884D01*
X165004266Y-58056768D01*
X164794797Y-57970003D01*
X164606280Y-57844040D01*
X164445960Y-57683720D01*
X164319997Y-57495203D01*
X164233232Y-57285734D01*
X164198946Y-57113365D01*
X164189000Y-57063365D01*
X164189000Y-56836635D01*
X164223286Y-56664267D01*
X164233232Y-56614266D01*
X164319997Y-56404797D01*
X164445960Y-56216280D01*
X164606280Y-56055960D01*
X164794797Y-55929997D01*
X165004266Y-55843232D01*
X165115451Y-55821116D01*
X165226635Y-55799000D01*
X165453365Y-55799000D01*
X165564549Y-55821116D01*
X165564549Y-55821116D01*
G37*
G36*
X143164549Y-55821116D02*
G01*
X143275734Y-55843232D01*
X143485203Y-55929997D01*
X143673720Y-56055960D01*
X143834040Y-56216280D01*
X143960003Y-56404797D01*
X144046768Y-56614266D01*
X144056714Y-56664267D01*
X144091000Y-56836635D01*
X144091000Y-57063365D01*
X144081054Y-57113365D01*
X144046768Y-57285734D01*
X143960003Y-57495203D01*
X143834040Y-57683720D01*
X143673720Y-57844040D01*
X143485203Y-57970003D01*
X143275734Y-58056768D01*
X143164549Y-58078884D01*
X143053365Y-58101000D01*
X142826635Y-58101000D01*
X142715451Y-58078884D01*
X142604266Y-58056768D01*
X142394797Y-57970003D01*
X142206280Y-57844040D01*
X142045960Y-57683720D01*
X141919997Y-57495203D01*
X141833232Y-57285734D01*
X141798946Y-57113365D01*
X141789000Y-57063365D01*
X141789000Y-56836635D01*
X141823286Y-56664267D01*
X141833232Y-56614266D01*
X141919997Y-56404797D01*
X142045960Y-56216280D01*
X142206280Y-56055960D01*
X142394797Y-55929997D01*
X142604266Y-55843232D01*
X142715451Y-55821116D01*
X142826635Y-55799000D01*
X143053365Y-55799000D01*
X143164549Y-55821116D01*
X143164549Y-55821116D01*
G37*
G36*
X201375256Y-54391298D02*
G01*
X201481579Y-54412447D01*
X201782042Y-54536903D01*
X202052451Y-54717585D01*
X202282415Y-54947549D01*
X202463097Y-55217958D01*
X202587553Y-55518421D01*
X202608702Y-55624744D01*
X202651000Y-55837389D01*
X202651000Y-56162611D01*
X202614911Y-56344040D01*
X202587553Y-56481579D01*
X202463097Y-56782042D01*
X202282415Y-57052451D01*
X202052451Y-57282415D01*
X201782042Y-57463097D01*
X201481579Y-57587553D01*
X201375256Y-57608702D01*
X201162611Y-57651000D01*
X200837389Y-57651000D01*
X200624744Y-57608702D01*
X200518421Y-57587553D01*
X200217958Y-57463097D01*
X199947549Y-57282415D01*
X199717585Y-57052451D01*
X199536903Y-56782042D01*
X199412447Y-56481579D01*
X199385089Y-56344040D01*
X199349000Y-56162611D01*
X199349000Y-55837389D01*
X199391298Y-55624744D01*
X199412447Y-55518421D01*
X199536903Y-55217958D01*
X199717585Y-54947549D01*
X199947549Y-54717585D01*
X200217958Y-54536903D01*
X200518421Y-54412447D01*
X200624744Y-54391298D01*
X200837389Y-54349000D01*
X201162611Y-54349000D01*
X201375256Y-54391298D01*
X201375256Y-54391298D01*
G37*
G36*
X109375256Y-54391298D02*
G01*
X109481579Y-54412447D01*
X109782042Y-54536903D01*
X110052451Y-54717585D01*
X110282415Y-54947549D01*
X110463097Y-55217958D01*
X110587553Y-55518421D01*
X110608702Y-55624744D01*
X110651000Y-55837389D01*
X110651000Y-56162611D01*
X110614911Y-56344040D01*
X110587553Y-56481579D01*
X110463097Y-56782042D01*
X110282415Y-57052451D01*
X110052451Y-57282415D01*
X109782042Y-57463097D01*
X109481579Y-57587553D01*
X109375256Y-57608702D01*
X109162611Y-57651000D01*
X108837389Y-57651000D01*
X108624744Y-57608702D01*
X108518421Y-57587553D01*
X108217958Y-57463097D01*
X107947549Y-57282415D01*
X107717585Y-57052451D01*
X107536903Y-56782042D01*
X107412447Y-56481579D01*
X107385089Y-56344040D01*
X107349000Y-56162611D01*
X107349000Y-55837389D01*
X107391298Y-55624744D01*
X107412447Y-55518421D01*
X107536903Y-55217958D01*
X107717585Y-54947549D01*
X107947549Y-54717585D01*
X108217958Y-54536903D01*
X108518421Y-54412447D01*
X108624744Y-54391298D01*
X108837389Y-54349000D01*
X109162611Y-54349000D01*
X109375256Y-54391298D01*
X109375256Y-54391298D01*
G37*
G36*
X131724549Y-54371116D02*
G01*
X131835734Y-54393232D01*
X132045203Y-54479997D01*
X132233720Y-54605960D01*
X132394040Y-54766280D01*
X132520003Y-54954797D01*
X132586058Y-55114267D01*
X132606768Y-55164267D01*
X132641055Y-55336636D01*
X132651000Y-55386636D01*
X132651000Y-55613364D01*
X132606768Y-55835734D01*
X132520003Y-56045203D01*
X132394040Y-56233720D01*
X132233720Y-56394040D01*
X132045203Y-56520003D01*
X131835734Y-56606768D01*
X131724549Y-56628884D01*
X131613365Y-56651000D01*
X131386635Y-56651000D01*
X131275451Y-56628884D01*
X131164266Y-56606768D01*
X130954797Y-56520003D01*
X130766280Y-56394040D01*
X130605960Y-56233720D01*
X130479997Y-56045203D01*
X130393232Y-55835734D01*
X130349000Y-55613364D01*
X130349000Y-55386636D01*
X130358946Y-55336636D01*
X130393232Y-55164267D01*
X130413943Y-55114267D01*
X130479997Y-54954797D01*
X130605960Y-54766280D01*
X130766280Y-54605960D01*
X130954797Y-54479997D01*
X131164266Y-54393232D01*
X131275451Y-54371116D01*
X131386635Y-54349000D01*
X131613365Y-54349000D01*
X131724549Y-54371116D01*
X131724549Y-54371116D01*
G37*
G36*
X136174549Y-54371116D02*
G01*
X136285734Y-54393232D01*
X136495203Y-54479997D01*
X136683720Y-54605960D01*
X136844040Y-54766280D01*
X136970003Y-54954797D01*
X137036058Y-55114267D01*
X137056768Y-55164267D01*
X137091055Y-55336636D01*
X137101000Y-55386636D01*
X137101000Y-55613364D01*
X137056768Y-55835734D01*
X136970003Y-56045203D01*
X136844040Y-56233720D01*
X136683720Y-56394040D01*
X136495203Y-56520003D01*
X136285734Y-56606768D01*
X136174549Y-56628884D01*
X136063365Y-56651000D01*
X135836635Y-56651000D01*
X135725451Y-56628884D01*
X135614266Y-56606768D01*
X135404797Y-56520003D01*
X135216280Y-56394040D01*
X135055960Y-56233720D01*
X134929997Y-56045203D01*
X134843232Y-55835734D01*
X134799000Y-55613364D01*
X134799000Y-55386636D01*
X134808946Y-55336636D01*
X134843232Y-55164267D01*
X134863943Y-55114267D01*
X134929997Y-54954797D01*
X135055960Y-54766280D01*
X135216280Y-54605960D01*
X135404797Y-54479997D01*
X135614266Y-54393232D01*
X135725451Y-54371116D01*
X135836635Y-54349000D01*
X136063365Y-54349000D01*
X136174549Y-54371116D01*
X136174549Y-54371116D01*
G37*
G36*
X163264549Y-54321116D02*
G01*
X163375734Y-54343232D01*
X163585203Y-54429997D01*
X163773720Y-54555960D01*
X163934040Y-54716280D01*
X164060003Y-54904797D01*
X164060004Y-54904799D01*
X164077712Y-54947551D01*
X164146768Y-55114266D01*
X164156714Y-55164267D01*
X164191000Y-55336635D01*
X164191000Y-55563365D01*
X164181054Y-55613365D01*
X164146768Y-55785734D01*
X164060003Y-55995203D01*
X163934040Y-56183720D01*
X163773720Y-56344040D01*
X163585203Y-56470003D01*
X163375734Y-56556768D01*
X163264549Y-56578884D01*
X163153365Y-56601000D01*
X162926635Y-56601000D01*
X162815451Y-56578884D01*
X162704266Y-56556768D01*
X162494797Y-56470003D01*
X162306280Y-56344040D01*
X162145960Y-56183720D01*
X162019997Y-55995203D01*
X161933232Y-55785734D01*
X161898946Y-55613365D01*
X161889000Y-55563365D01*
X161889000Y-55336635D01*
X161923286Y-55164267D01*
X161933232Y-55114266D01*
X162002288Y-54947551D01*
X162019996Y-54904799D01*
X162019997Y-54904797D01*
X162145960Y-54716280D01*
X162306280Y-54555960D01*
X162494797Y-54429997D01*
X162704266Y-54343232D01*
X162815451Y-54321116D01*
X162926635Y-54299000D01*
X163153365Y-54299000D01*
X163264549Y-54321116D01*
X163264549Y-54321116D01*
G37*
G36*
X158814549Y-54321116D02*
G01*
X158925734Y-54343232D01*
X159135203Y-54429997D01*
X159323720Y-54555960D01*
X159484040Y-54716280D01*
X159610003Y-54904797D01*
X159610004Y-54904799D01*
X159627712Y-54947551D01*
X159696768Y-55114266D01*
X159706714Y-55164267D01*
X159741000Y-55336635D01*
X159741000Y-55563365D01*
X159731054Y-55613365D01*
X159696768Y-55785734D01*
X159610003Y-55995203D01*
X159484040Y-56183720D01*
X159323720Y-56344040D01*
X159135203Y-56470003D01*
X158925734Y-56556768D01*
X158814549Y-56578884D01*
X158703365Y-56601000D01*
X158476635Y-56601000D01*
X158365451Y-56578884D01*
X158254266Y-56556768D01*
X158044797Y-56470003D01*
X157856280Y-56344040D01*
X157695960Y-56183720D01*
X157569997Y-55995203D01*
X157483232Y-55785734D01*
X157448946Y-55613365D01*
X157439000Y-55563365D01*
X157439000Y-55336635D01*
X157473286Y-55164267D01*
X157483232Y-55114266D01*
X157552288Y-54947551D01*
X157569996Y-54904799D01*
X157569997Y-54904797D01*
X157695960Y-54716280D01*
X157856280Y-54555960D01*
X158044797Y-54429997D01*
X158254266Y-54343232D01*
X158365451Y-54321116D01*
X158476635Y-54299000D01*
X158703365Y-54299000D01*
X158814549Y-54321116D01*
X158814549Y-54321116D01*
G37*
G36*
X149764549Y-54321116D02*
G01*
X149875734Y-54343232D01*
X150085203Y-54429997D01*
X150273720Y-54555960D01*
X150434040Y-54716280D01*
X150560003Y-54904797D01*
X150560004Y-54904799D01*
X150577712Y-54947551D01*
X150646768Y-55114266D01*
X150656714Y-55164267D01*
X150691000Y-55336635D01*
X150691000Y-55563365D01*
X150681054Y-55613365D01*
X150646768Y-55785734D01*
X150560003Y-55995203D01*
X150434040Y-56183720D01*
X150273720Y-56344040D01*
X150085203Y-56470003D01*
X149875734Y-56556768D01*
X149764549Y-56578884D01*
X149653365Y-56601000D01*
X149426635Y-56601000D01*
X149315451Y-56578884D01*
X149204266Y-56556768D01*
X148994797Y-56470003D01*
X148806280Y-56344040D01*
X148645960Y-56183720D01*
X148519997Y-55995203D01*
X148433232Y-55785734D01*
X148398946Y-55613365D01*
X148389000Y-55563365D01*
X148389000Y-55336635D01*
X148423286Y-55164267D01*
X148433232Y-55114266D01*
X148502288Y-54947551D01*
X148519996Y-54904799D01*
X148519997Y-54904797D01*
X148645960Y-54716280D01*
X148806280Y-54555960D01*
X148994797Y-54429997D01*
X149204266Y-54343232D01*
X149315451Y-54321116D01*
X149426635Y-54299000D01*
X149653365Y-54299000D01*
X149764549Y-54321116D01*
X149764549Y-54321116D01*
G37*
G36*
X145314549Y-54321116D02*
G01*
X145425734Y-54343232D01*
X145635203Y-54429997D01*
X145823720Y-54555960D01*
X145984040Y-54716280D01*
X146110003Y-54904797D01*
X146110004Y-54904799D01*
X146127712Y-54947551D01*
X146196768Y-55114266D01*
X146206714Y-55164267D01*
X146241000Y-55336635D01*
X146241000Y-55563365D01*
X146231054Y-55613365D01*
X146196768Y-55785734D01*
X146110003Y-55995203D01*
X145984040Y-56183720D01*
X145823720Y-56344040D01*
X145635203Y-56470003D01*
X145425734Y-56556768D01*
X145314549Y-56578884D01*
X145203365Y-56601000D01*
X144976635Y-56601000D01*
X144865451Y-56578884D01*
X144754266Y-56556768D01*
X144544797Y-56470003D01*
X144356280Y-56344040D01*
X144195960Y-56183720D01*
X144069997Y-55995203D01*
X143983232Y-55785734D01*
X143948946Y-55613365D01*
X143939000Y-55563365D01*
X143939000Y-55336635D01*
X143973286Y-55164267D01*
X143983232Y-55114266D01*
X144052288Y-54947551D01*
X144069996Y-54904799D01*
X144069997Y-54904797D01*
X144195960Y-54716280D01*
X144356280Y-54555960D01*
X144544797Y-54429997D01*
X144754266Y-54343232D01*
X144865451Y-54321116D01*
X144976635Y-54299000D01*
X145203365Y-54299000D01*
X145314549Y-54321116D01*
X145314549Y-54321116D01*
G37*
G36*
X176764549Y-54321116D02*
G01*
X176875734Y-54343232D01*
X177085203Y-54429997D01*
X177273720Y-54555960D01*
X177434040Y-54716280D01*
X177560003Y-54904797D01*
X177560004Y-54904799D01*
X177577712Y-54947551D01*
X177646768Y-55114266D01*
X177656714Y-55164267D01*
X177691000Y-55336635D01*
X177691000Y-55563365D01*
X177681054Y-55613365D01*
X177646768Y-55785734D01*
X177560003Y-55995203D01*
X177434040Y-56183720D01*
X177273720Y-56344040D01*
X177085203Y-56470003D01*
X176875734Y-56556768D01*
X176764549Y-56578884D01*
X176653365Y-56601000D01*
X176426635Y-56601000D01*
X176315451Y-56578884D01*
X176204266Y-56556768D01*
X175994797Y-56470003D01*
X175806280Y-56344040D01*
X175645960Y-56183720D01*
X175519997Y-55995203D01*
X175433232Y-55785734D01*
X175398946Y-55613365D01*
X175389000Y-55563365D01*
X175389000Y-55336635D01*
X175423286Y-55164267D01*
X175433232Y-55114266D01*
X175502288Y-54947551D01*
X175519996Y-54904799D01*
X175519997Y-54904797D01*
X175645960Y-54716280D01*
X175806280Y-54555960D01*
X175994797Y-54429997D01*
X176204266Y-54343232D01*
X176315451Y-54321116D01*
X176426635Y-54299000D01*
X176653365Y-54299000D01*
X176764549Y-54321116D01*
X176764549Y-54321116D01*
G37*
G36*
X172314549Y-54321116D02*
G01*
X172425734Y-54343232D01*
X172635203Y-54429997D01*
X172823720Y-54555960D01*
X172984040Y-54716280D01*
X173110003Y-54904797D01*
X173110004Y-54904799D01*
X173127712Y-54947551D01*
X173196768Y-55114266D01*
X173206714Y-55164267D01*
X173241000Y-55336635D01*
X173241000Y-55563365D01*
X173231054Y-55613365D01*
X173196768Y-55785734D01*
X173110003Y-55995203D01*
X172984040Y-56183720D01*
X172823720Y-56344040D01*
X172635203Y-56470003D01*
X172425734Y-56556768D01*
X172314549Y-56578884D01*
X172203365Y-56601000D01*
X171976635Y-56601000D01*
X171865451Y-56578884D01*
X171754266Y-56556768D01*
X171544797Y-56470003D01*
X171356280Y-56344040D01*
X171195960Y-56183720D01*
X171069997Y-55995203D01*
X170983232Y-55785734D01*
X170948946Y-55613365D01*
X170939000Y-55563365D01*
X170939000Y-55336635D01*
X170973286Y-55164267D01*
X170983232Y-55114266D01*
X171052288Y-54947551D01*
X171069996Y-54904799D01*
X171069997Y-54904797D01*
X171195960Y-54716280D01*
X171356280Y-54555960D01*
X171544797Y-54429997D01*
X171754266Y-54343232D01*
X171865451Y-54321116D01*
X171976635Y-54299000D01*
X172203365Y-54299000D01*
X172314549Y-54321116D01*
X172314549Y-54321116D01*
G37*
M02*
