G04 #@! TF.GenerationSoftware,KiCad,Pcbnew,5.1.4*
G04 #@! TF.CreationDate,2019-12-03T14:43:41+09:00*
G04 #@! TF.ProjectId,Sync-chan,53796e63-2d63-4686-916e-2e6b69636164,rev?*
G04 #@! TF.SameCoordinates,Original*
G04 #@! TF.FileFunction,Paste,Top*
G04 #@! TF.FilePolarity,Positive*
%FSLAX46Y46*%
G04 Gerber Fmt 4.6, Leading zero omitted, Abs format (unit mm)*
G04 Created by KiCad (PCBNEW 5.1.4) date 2019-12-03 14:43:41*
%MOMM*%
%LPD*%
G04 APERTURE LIST*
%ADD10R,1.200000X0.900000*%
%ADD11R,1.400000X0.900000*%
%ADD12R,0.600000X2.200000*%
%ADD13R,1.600000X2.000000*%
%ADD14R,0.750000X1.200000*%
%ADD15R,2.000000X1.600000*%
%ADD16R,2.860000X1.200000*%
%ADD17R,0.900000X1.400000*%
%ADD18R,0.900000X1.200000*%
%ADD19R,5.000000X10.000000*%
%ADD20R,0.600000X1.550000*%
%ADD21R,0.600000X1.500000*%
G04 APERTURE END LIST*
D10*
X136000000Y-131500000D03*
X138200000Y-131500000D03*
D11*
X149400000Y-132000000D03*
X151600000Y-132000000D03*
X165000000Y-70000000D03*
X162800000Y-70000000D03*
X153900000Y-70000000D03*
X156100000Y-70000000D03*
D12*
X163745000Y-96250000D03*
X163745000Y-103750000D03*
X165015000Y-96250000D03*
X165015000Y-103750000D03*
X166285000Y-96250000D03*
X166285000Y-103750000D03*
X167555000Y-96250000D03*
X167555000Y-103750000D03*
X168825000Y-96250000D03*
X168825000Y-103750000D03*
X170095000Y-96250000D03*
X170095000Y-103750000D03*
X171365000Y-96250000D03*
X171365000Y-103750000D03*
X172635000Y-96250000D03*
X172635000Y-103750000D03*
X173905000Y-96250000D03*
X173905000Y-103750000D03*
X175175000Y-96250000D03*
X175175000Y-103750000D03*
X176445000Y-96250000D03*
X176445000Y-103750000D03*
X177715000Y-96250000D03*
X177715000Y-103750000D03*
X178985000Y-96250000D03*
X178985000Y-103750000D03*
X180255000Y-96250000D03*
X180255000Y-103750000D03*
D13*
X134500000Y-70500000D03*
X134500000Y-66500000D03*
D14*
X144500000Y-76550000D03*
X144500000Y-78450000D03*
X157100000Y-101850000D03*
X157100000Y-99950000D03*
X158800000Y-101850000D03*
X158800000Y-99950000D03*
X161000000Y-99900000D03*
X161000000Y-101800000D03*
X161000000Y-90850000D03*
X161000000Y-88950000D03*
D15*
X173100000Y-92050000D03*
X177100000Y-92050000D03*
D14*
X184000000Y-66950000D03*
X184000000Y-65050000D03*
D16*
X112570000Y-69700000D03*
X112570000Y-67300000D03*
D17*
X130500000Y-70600000D03*
X130500000Y-68400000D03*
X128000000Y-79400000D03*
X128000000Y-81600000D03*
D11*
X176200000Y-70000000D03*
X174000000Y-70000000D03*
X183400000Y-115500000D03*
X185600000Y-115500000D03*
D10*
X129300000Y-65500000D03*
X131500000Y-65500000D03*
D18*
X157100000Y-98000000D03*
X157100000Y-95800000D03*
X159000000Y-98000000D03*
X159000000Y-95800000D03*
X161100000Y-95800000D03*
X161100000Y-98000000D03*
X126000000Y-79400000D03*
X126000000Y-81600000D03*
D10*
X148600000Y-84500000D03*
X146400000Y-84500000D03*
X146400000Y-86500000D03*
X148600000Y-86500000D03*
X176100000Y-68000000D03*
X173900000Y-68000000D03*
X156600000Y-132000000D03*
X154400000Y-132000000D03*
X162900000Y-68000000D03*
X165100000Y-68000000D03*
X156100000Y-68000000D03*
X153900000Y-68000000D03*
X185500000Y-113500000D03*
X183300000Y-113500000D03*
D19*
X122100000Y-58100000D03*
X115600000Y-58100000D03*
D20*
X146595000Y-76800000D03*
X147865000Y-76800000D03*
X149135000Y-76800000D03*
X150405000Y-76800000D03*
X150405000Y-82200000D03*
X149135000Y-82200000D03*
X147865000Y-82200000D03*
X146595000Y-82200000D03*
D21*
X186055000Y-65300000D03*
X187325000Y-65300000D03*
X188595000Y-65300000D03*
X189865000Y-65300000D03*
X191135000Y-65300000D03*
X192405000Y-65300000D03*
X193675000Y-65300000D03*
X194945000Y-65300000D03*
X194945000Y-70700000D03*
X193675000Y-70700000D03*
X192405000Y-70700000D03*
X191135000Y-70700000D03*
X189865000Y-70700000D03*
X188595000Y-70700000D03*
X187325000Y-70700000D03*
X186055000Y-70700000D03*
M02*
