M48
; DRILL file {KiCad 5.1.4} date 2019年12月03日 14時43分49秒
; FORMAT={-:-/ absolute / metric / decimal}
; #@! TF.CreationDate,2019-12-03T14:43:49+09:00
; #@! TF.GenerationSoftware,Kicad,Pcbnew,5.1.4
; #@! TF.FileFunction,Plated,1,4,PTH
FMAT,2
METRIC
T1C0.400
T2C0.762
T3C0.800
T4C1.000
T5C1.400
T6C1.500
T7C2.000
T8C3.000
%
G90
G05
T1
X111.0Y-61.0
X115.2Y-93.6
X116.923Y-94.009
X119.7Y-94.75
X121.2Y-92.75
X121.3Y-95.775
X122.7Y-118.95
X122.95Y-117.85
X123.1Y-85.45
X123.1Y-88.95
X123.17Y-123.75
X124.045Y-83.445
X124.67Y-123.8
X124.7Y-98.8
X124.85Y-97.4
X125.0Y-84.7
X125.1Y-118.85
X126.6Y-85.4
X126.6Y-89.0
X127.21Y-117.8
X128.89Y-96.5
X128.995Y-97.608
X129.0Y-98.8
X129.3Y-81.3
X130.8Y-86.2
X131.4Y-92.6
X133.3Y-86.2
X134.0Y-132.0
X136.9Y-70.4
X137.095Y-118.895
X137.1Y-124.0
X137.17Y-117.7
X138.85Y-124.0
X139.0Y-118.85
X139.7Y-92.7
X139.9Y-88.2
X139.9Y-89.2
X141.21Y-117.65
X141.59Y-88.9
X143.0Y-69.6
X143.091Y-86.183
X143.1Y-76.6
X144.9Y-86.0
X145.7Y-78.8
X149.0Y-104.0
X150.0Y-133.0
X150.5Y-83.9
X151.0Y-93.1
X151.0Y-124.0
X151.17Y-117.55
X151.17Y-118.75
X151.3Y-88.05
X151.9Y-86.55
X152.1Y-70.1
X152.67Y-124.0
X152.9Y-95.8
X152.9Y-100.5
X152.932Y-118.721
X153.0Y-84.5
X153.4Y-74.8
X153.4Y-76.7
X153.8Y-86.5
X153.8Y-89.7
X154.5Y-98.333
X154.7Y-93.1
X154.8Y-85.75
X154.8Y-89.7
X154.973Y-84.127
X155.21Y-117.6
X155.7Y-88.9
X156.6Y-87.9
X157.3Y-85.1
X157.949Y-98.984
X159.5Y-84.9
X159.8Y-89.0
X160.0Y-97.0
X160.9Y-103.5
X161.1Y-70.1
X162.4Y-101.6
X163.0Y-91.9
X165.05Y-109.9
X165.15Y-118.65
X165.15Y-124.1
X165.17Y-117.6
X166.67Y-118.65
X166.67Y-124.05
X167.2Y-106.65
X167.5Y-99.3
X168.46Y-128.0
X169.21Y-117.5
X169.25Y-106.65
X170.4Y-109.85
X170.8Y-92.0
X171.46Y-64.94
X172.4Y-69.9
X172.5Y-76.5
X175.0Y-76.5
X175.1Y-98.45
X175.3Y-90.6
X175.7Y-99.7
X175.72Y-64.88
X179.2Y-92.7
X179.25Y-101.5
X179.8Y-112.2
X179.85Y-125.25
X180.1Y-67.15
X180.1Y-69.15
X180.362Y-89.366
X180.75Y-111.0
X180.8Y-108.25
X181.3Y-85.4
X181.7Y-125.25
X181.85Y-108.3
X181.85Y-110.25
X182.0Y-117.0
X182.9Y-67.1
X183.8Y-85.5
X184.0Y-60.3
X184.0Y-63.2
X184.063Y-95.11
X184.3Y-70.7
X184.3Y-73.8
X185.9Y-133.6
X185.9Y-117.9
X187.5Y-133.6
X188.0Y-63.0
X188.1Y-117.9
X195.0Y-72.7
T2
X137.92Y-112.76
X137.92Y-128.0
X140.46Y-112.76
X140.46Y-128.0
X143.0Y-112.76
X143.0Y-128.0
X145.54Y-112.76
X145.54Y-128.0
X148.08Y-112.76
X148.08Y-128.0
X140.5Y-75.5
X123.92Y-112.76
X123.92Y-128.0
X126.46Y-112.76
X126.46Y-128.0
X129.0Y-112.76
X129.0Y-128.0
X131.54Y-112.76
X131.54Y-128.0
X134.08Y-112.76
X134.08Y-128.0
X165.92Y-112.76
X165.92Y-128.0
X168.46Y-112.76
X168.46Y-128.0
X171.0Y-112.76
X171.0Y-128.0
X173.54Y-112.76
X173.54Y-128.0
X176.08Y-112.76
X176.08Y-128.0
X178.0Y-137.0
X131.0Y-81.5
X185.0Y-137.0
X126.5Y-65.96
X126.5Y-68.5
X126.5Y-71.04
X109.92Y-112.76
X109.92Y-128.0
X112.46Y-112.76
X112.46Y-128.0
X115.0Y-112.76
X115.0Y-128.0
X117.54Y-112.76
X117.54Y-128.0
X120.08Y-112.76
X120.08Y-128.0
X151.92Y-112.76
X151.92Y-128.0
X154.46Y-112.76
X154.46Y-128.0
X157.0Y-112.76
X157.0Y-128.0
X159.54Y-112.76
X159.54Y-128.0
X162.08Y-112.76
X162.08Y-128.0
T3
X115.44Y-91.0
X115.44Y-106.24
X117.98Y-91.0
X117.98Y-106.24
X120.52Y-91.0
X120.52Y-106.24
X123.06Y-91.0
X123.06Y-106.24
X125.6Y-91.0
X125.6Y-106.24
X128.14Y-91.0
X128.14Y-106.24
X130.68Y-91.0
X130.68Y-106.24
X133.22Y-91.0
X133.22Y-106.24
X135.76Y-91.0
X135.76Y-106.24
X138.3Y-91.0
X138.3Y-106.24
X140.84Y-91.0
X140.84Y-106.24
X143.38Y-91.0
X143.38Y-106.24
X145.92Y-91.0
X145.92Y-106.24
X148.46Y-91.0
X148.46Y-106.24
X151.0Y-91.0
X151.0Y-106.24
X135.0Y-80.5
X137.5Y-78.0
X140.0Y-80.5
T4
X130.75Y-135.5
X130.75Y-140.0
X137.25Y-135.5
X137.25Y-140.0
X147.25Y-135.5
X147.25Y-140.0
X153.75Y-135.5
X153.75Y-140.0
X116.75Y-135.5
X116.75Y-140.0
X123.25Y-135.5
X123.25Y-140.0
X165.0Y-145.0
X167.5Y-145.0
X170.0Y-145.0
T5
X107.0Y-64.8
X107.0Y-72.2
T6
X191.25Y-86.5
X191.25Y-145.0
X194.75Y-145.0
X112.94Y-79.95
X115.09Y-78.45
X119.54Y-78.45
X121.84Y-79.95
X129.35Y-57.0
X131.5Y-55.5
X135.95Y-55.5
X138.25Y-57.0
X156.44Y-56.95
X158.59Y-55.45
X163.04Y-55.45
X165.34Y-56.95
X169.94Y-56.95
X172.09Y-55.45
X176.54Y-55.45
X178.84Y-56.95
X142.94Y-56.95
X145.09Y-55.45
X149.54Y-55.45
X151.84Y-56.95
T7
X188.75Y-91.85
X188.75Y-139.65
X197.25Y-90.65
X197.25Y-140.85
T8
X163.1Y-138.0
X171.9Y-138.0
T0
M30
