G04 #@! TF.GenerationSoftware,KiCad,Pcbnew,5.1.4*
G04 #@! TF.CreationDate,2019-12-03T14:43:41+09:00*
G04 #@! TF.ProjectId,Sync-chan,53796e63-2d63-4686-916e-2e6b69636164,rev?*
G04 #@! TF.SameCoordinates,Original*
G04 #@! TF.FileFunction,Legend,Bot*
G04 #@! TF.FilePolarity,Positive*
%FSLAX46Y46*%
G04 Gerber Fmt 4.6, Leading zero omitted, Abs format (unit mm)*
G04 Created by KiCad (PCBNEW 5.1.4) date 2019-12-03 14:43:41*
%MOMM*%
%LPD*%
G04 APERTURE LIST*
%ADD10C,0.625000*%
%ADD11C,2.000000*%
G04 APERTURE END LIST*
D10*
X195698511Y-79543452D02*
X195698511Y-77043452D01*
X195698511Y-77995833D02*
X195460416Y-77876785D01*
X194984226Y-77876785D01*
X194746130Y-77995833D01*
X194627083Y-78114880D01*
X194508035Y-78352976D01*
X194508035Y-79067261D01*
X194627083Y-79305357D01*
X194746130Y-79424404D01*
X194984226Y-79543452D01*
X195460416Y-79543452D01*
X195698511Y-79424404D01*
X193674702Y-77876785D02*
X193079464Y-79543452D01*
X192484226Y-77876785D02*
X193079464Y-79543452D01*
X193317559Y-80138690D01*
X193436607Y-80257738D01*
X193674702Y-80376785D01*
X189627083Y-79543452D02*
X189627083Y-77043452D01*
X188198511Y-79543452D02*
X189269940Y-78114880D01*
X188198511Y-77043452D02*
X189627083Y-78472023D01*
X187127083Y-79543452D02*
X187127083Y-77876785D01*
X187127083Y-77043452D02*
X187246130Y-77162500D01*
X187127083Y-77281547D01*
X187008035Y-77162500D01*
X187127083Y-77043452D01*
X187127083Y-77281547D01*
X185936607Y-77876785D02*
X185936607Y-79543452D01*
X185936607Y-78114880D02*
X185817559Y-77995833D01*
X185579464Y-77876785D01*
X185222321Y-77876785D01*
X184984226Y-77995833D01*
X184865178Y-78233928D01*
X184865178Y-79543452D01*
X183317559Y-79543452D02*
X183555654Y-79424404D01*
X183674702Y-79305357D01*
X183793750Y-79067261D01*
X183793750Y-78352976D01*
X183674702Y-78114880D01*
X183555654Y-77995833D01*
X183317559Y-77876785D01*
X182960416Y-77876785D01*
X182722321Y-77995833D01*
X182603273Y-78114880D01*
X182484226Y-78352976D01*
X182484226Y-79067261D01*
X182603273Y-79305357D01*
X182722321Y-79424404D01*
X182960416Y-79543452D01*
X183317559Y-79543452D01*
X181531845Y-79424404D02*
X181293750Y-79543452D01*
X180817559Y-79543452D01*
X180579464Y-79424404D01*
X180460416Y-79186309D01*
X180460416Y-79067261D01*
X180579464Y-78829166D01*
X180817559Y-78710119D01*
X181174702Y-78710119D01*
X181412797Y-78591071D01*
X181531845Y-78352976D01*
X181531845Y-78233928D01*
X181412797Y-77995833D01*
X181174702Y-77876785D01*
X180817559Y-77876785D01*
X180579464Y-77995833D01*
X179388988Y-79543452D02*
X179388988Y-77043452D01*
X178317559Y-79543452D02*
X178317559Y-78233928D01*
X178436607Y-77995833D01*
X178674702Y-77876785D01*
X179031845Y-77876785D01*
X179269940Y-77995833D01*
X179388988Y-78114880D01*
X177127083Y-79543452D02*
X177127083Y-77876785D01*
X177127083Y-77043452D02*
X177246130Y-77162500D01*
X177127083Y-77281547D01*
X177008035Y-77162500D01*
X177127083Y-77043452D01*
X177127083Y-77281547D01*
X176293750Y-77876785D02*
X175341369Y-77876785D01*
X175936607Y-77043452D02*
X175936607Y-79186309D01*
X175817559Y-79424404D01*
X175579464Y-79543452D01*
X175341369Y-79543452D01*
X173436607Y-79543452D02*
X173436607Y-78233928D01*
X173555654Y-77995833D01*
X173793750Y-77876785D01*
X174269940Y-77876785D01*
X174508035Y-77995833D01*
X173436607Y-79424404D02*
X173674702Y-79543452D01*
X174269940Y-79543452D01*
X174508035Y-79424404D01*
X174627083Y-79186309D01*
X174627083Y-78948214D01*
X174508035Y-78710119D01*
X174269940Y-78591071D01*
X173674702Y-78591071D01*
X173436607Y-78472023D01*
X169150892Y-79543452D02*
X170341369Y-79543452D01*
X170341369Y-77043452D01*
X167246130Y-79543452D02*
X167246130Y-78233928D01*
X167365178Y-77995833D01*
X167603273Y-77876785D01*
X168079464Y-77876785D01*
X168317559Y-77995833D01*
X167246130Y-79424404D02*
X167484226Y-79543452D01*
X168079464Y-79543452D01*
X168317559Y-79424404D01*
X168436607Y-79186309D01*
X168436607Y-78948214D01*
X168317559Y-78710119D01*
X168079464Y-78591071D01*
X167484226Y-78591071D01*
X167246130Y-78472023D01*
X166055654Y-79543452D02*
X166055654Y-77043452D01*
X166055654Y-77995833D02*
X165817559Y-77876785D01*
X165341369Y-77876785D01*
X165103273Y-77995833D01*
X164984226Y-78114880D01*
X164865178Y-78352976D01*
X164865178Y-79067261D01*
X164984226Y-79305357D01*
X165103273Y-79424404D01*
X165341369Y-79543452D01*
X165817559Y-79543452D01*
X166055654Y-79424404D01*
X163793750Y-79305357D02*
X163674702Y-79424404D01*
X163793750Y-79543452D01*
X163912797Y-79424404D01*
X163793750Y-79305357D01*
X163793750Y-79543452D01*
X195817559Y-81656547D02*
X195698511Y-81537500D01*
X195460416Y-81418452D01*
X194865178Y-81418452D01*
X194627083Y-81537500D01*
X194508035Y-81656547D01*
X194388988Y-81894642D01*
X194388988Y-82132738D01*
X194508035Y-82489880D01*
X195936607Y-83918452D01*
X194388988Y-83918452D01*
X192841369Y-81418452D02*
X192603273Y-81418452D01*
X192365178Y-81537500D01*
X192246130Y-81656547D01*
X192127083Y-81894642D01*
X192008035Y-82370833D01*
X192008035Y-82966071D01*
X192127083Y-83442261D01*
X192246130Y-83680357D01*
X192365178Y-83799404D01*
X192603273Y-83918452D01*
X192841369Y-83918452D01*
X193079464Y-83799404D01*
X193198511Y-83680357D01*
X193317559Y-83442261D01*
X193436607Y-82966071D01*
X193436607Y-82370833D01*
X193317559Y-81894642D01*
X193198511Y-81656547D01*
X193079464Y-81537500D01*
X192841369Y-81418452D01*
X191055654Y-81656547D02*
X190936607Y-81537500D01*
X190698511Y-81418452D01*
X190103273Y-81418452D01*
X189865178Y-81537500D01*
X189746130Y-81656547D01*
X189627083Y-81894642D01*
X189627083Y-82132738D01*
X189746130Y-82489880D01*
X191174702Y-83918452D01*
X189627083Y-83918452D01*
X188079464Y-81418452D02*
X187841369Y-81418452D01*
X187603273Y-81537500D01*
X187484226Y-81656547D01*
X187365178Y-81894642D01*
X187246130Y-82370833D01*
X187246130Y-82966071D01*
X187365178Y-83442261D01*
X187484226Y-83680357D01*
X187603273Y-83799404D01*
X187841369Y-83918452D01*
X188079464Y-83918452D01*
X188317559Y-83799404D01*
X188436607Y-83680357D01*
X188555654Y-83442261D01*
X188674702Y-82966071D01*
X188674702Y-82370833D01*
X188555654Y-81894642D01*
X188436607Y-81656547D01*
X188317559Y-81537500D01*
X188079464Y-81418452D01*
D11*
X196223809Y-71647619D02*
X194795238Y-72123809D01*
X192414285Y-72123809D01*
X191461904Y-71647619D01*
X190985714Y-71171428D01*
X190509523Y-70219047D01*
X190509523Y-69266666D01*
X190985714Y-68314285D01*
X191461904Y-67838095D01*
X192414285Y-67361904D01*
X194319047Y-66885714D01*
X195271428Y-66409523D01*
X195747619Y-65933333D01*
X196223809Y-64980952D01*
X196223809Y-64028571D01*
X195747619Y-63076190D01*
X195271428Y-62600000D01*
X194319047Y-62123809D01*
X191938095Y-62123809D01*
X190509523Y-62600000D01*
X187176190Y-65457142D02*
X184795238Y-72123809D01*
X182414285Y-65457142D02*
X184795238Y-72123809D01*
X185747619Y-74504761D01*
X186223809Y-74980952D01*
X187176190Y-75457142D01*
X178604761Y-65457142D02*
X178604761Y-72123809D01*
X178604761Y-66409523D02*
X178128571Y-65933333D01*
X177176190Y-65457142D01*
X175747619Y-65457142D01*
X174795238Y-65933333D01*
X174319047Y-66885714D01*
X174319047Y-72123809D01*
X165271428Y-71647619D02*
X166223809Y-72123809D01*
X168128571Y-72123809D01*
X169080952Y-71647619D01*
X169557142Y-71171428D01*
X170033333Y-70219047D01*
X170033333Y-67361904D01*
X169557142Y-66409523D01*
X169080952Y-65933333D01*
X168128571Y-65457142D01*
X166223809Y-65457142D01*
X165271428Y-65933333D01*
X160985714Y-68314285D02*
X153366666Y-68314285D01*
X144319047Y-71647619D02*
X145271428Y-72123809D01*
X147176190Y-72123809D01*
X148128571Y-71647619D01*
X148604761Y-71171428D01*
X149080952Y-70219047D01*
X149080952Y-67361904D01*
X148604761Y-66409523D01*
X148128571Y-65933333D01*
X147176190Y-65457142D01*
X145271428Y-65457142D01*
X144319047Y-65933333D01*
X140033333Y-72123809D02*
X140033333Y-62123809D01*
X135747619Y-72123809D02*
X135747619Y-66885714D01*
X136223809Y-65933333D01*
X137176190Y-65457142D01*
X138604761Y-65457142D01*
X139557142Y-65933333D01*
X140033333Y-66409523D01*
X126699999Y-72123809D02*
X126699999Y-66885714D01*
X127176190Y-65933333D01*
X128128571Y-65457142D01*
X130033333Y-65457142D01*
X130985714Y-65933333D01*
X126699999Y-71647619D02*
X127652380Y-72123809D01*
X130033333Y-72123809D01*
X130985714Y-71647619D01*
X131461904Y-70695238D01*
X131461904Y-69742857D01*
X130985714Y-68790476D01*
X130033333Y-68314285D01*
X127652380Y-68314285D01*
X126699999Y-67838095D01*
X121938095Y-65457142D02*
X121938095Y-72123809D01*
X121938095Y-66409523D02*
X121461904Y-65933333D01*
X120509523Y-65457142D01*
X119080952Y-65457142D01*
X118128571Y-65933333D01*
X117652380Y-66885714D01*
X117652380Y-72123809D01*
M02*
