M48
; DRILL file {KiCad 5.1.4} date 2019年12月03日 14時43分49秒
; FORMAT={-:-/ absolute / metric / decimal}
; #@! TF.CreationDate,2019-12-03T14:43:49+09:00
; #@! TF.GenerationSoftware,Kicad,Pcbnew,5.1.4
; #@! TF.FileFunction,NonPlated,1,4,NPTH
FMAT,2
METRIC
T1C1.600
T2C3.200
%
G90
G05
T1
X157.5Y-59.5
X144.0Y-59.5
X114.0Y-82.5
X130.41Y-59.55
X171.0Y-59.5
T2
X109.0Y-56.0
X201.0Y-145.0
X144.0Y-145.0
X201.0Y-82.0
X109.0Y-145.0
X201.0Y-56.0
T1
G00X163.68Y-59.5
M15
G01X164.68Y-59.5
M16
G05
G00X120.18Y-82.5
M15
G01X121.18Y-82.5
M16
G05
G00X136.59Y-59.55
M15
G01X137.59Y-59.55
M16
G05
G00X177.18Y-59.5
M15
G01X178.18Y-59.5
M16
G05
G00X150.18Y-59.5
M15
G01X151.18Y-59.5
M16
G05
T0
M30
